G75*
%MOIN*%
%OFA0B0*%
%FSLAX25Y25*%
%IPPOS*%
%LPD*%
%AMOC8*
5,1,8,0,0,1.08239X$1,22.5*
%
%ADD10C,0.00000*%
%ADD11R,0.07087X0.06299*%
%ADD12R,0.06299X0.07087*%
%ADD13C,0.06000*%
%ADD14OC8,0.06000*%
%ADD15R,0.04724X0.01181*%
%ADD16C,0.07600*%
%ADD17R,0.12800X0.25400*%
%ADD18C,0.01200*%
%ADD19C,0.00600*%
%ADD20C,0.02000*%
%ADD21C,0.03765*%
%ADD22C,0.03200*%
%ADD23C,0.02400*%
D10*
X0029095Y0011756D02*
X0030595Y0297004D01*
X0194075Y0297004D01*
X0194075Y0011756D01*
X0029095Y0011756D01*
D11*
X0080595Y0095496D03*
X0080595Y0106520D03*
X0053131Y0212421D03*
X0053131Y0223445D03*
X0047095Y0276244D03*
X0047095Y0287268D03*
X0131646Y0225461D03*
X0131646Y0214437D03*
D12*
X0164493Y0136953D03*
X0175516Y0136953D03*
D13*
X0150839Y0134906D02*
X0144839Y0134906D01*
X0144839Y0144906D02*
X0150839Y0144906D01*
X0150839Y0154906D02*
X0144839Y0154906D01*
X0144839Y0164906D02*
X0150839Y0164906D01*
X0168225Y0175811D02*
X0174225Y0175811D01*
X0174225Y0185811D02*
X0168225Y0185811D01*
X0168225Y0195811D02*
X0174225Y0195811D01*
X0174225Y0205811D02*
X0168225Y0205811D01*
X0163764Y0270520D02*
X0163764Y0276520D01*
X0153764Y0276520D02*
X0153764Y0270520D01*
X0143764Y0270520D02*
X0143764Y0276520D01*
X0173764Y0276520D02*
X0173764Y0270520D01*
X0113154Y0139638D02*
X0113154Y0133638D01*
X0103154Y0133638D02*
X0103154Y0139638D01*
X0101701Y0108884D02*
X0095701Y0108884D01*
X0095701Y0091084D02*
X0101701Y0091084D01*
X0121301Y0091084D02*
X0127301Y0091084D01*
X0127301Y0108884D02*
X0121301Y0108884D01*
D14*
X0076855Y0144669D03*
X0076855Y0154669D03*
X0076855Y0164669D03*
X0066855Y0164669D03*
X0066855Y0154669D03*
X0066855Y0144669D03*
X0065355Y0227965D03*
X0065355Y0237965D03*
X0065355Y0247965D03*
X0065355Y0257965D03*
X0065355Y0267965D03*
X0065355Y0277965D03*
X0075355Y0277965D03*
X0075355Y0267965D03*
X0075355Y0257965D03*
X0075355Y0247965D03*
X0075355Y0237965D03*
X0075355Y0227965D03*
D15*
X0082839Y0203232D03*
X0082839Y0200673D03*
X0082839Y0198114D03*
X0082839Y0195555D03*
X0082839Y0192996D03*
X0082839Y0190437D03*
X0082839Y0187878D03*
X0082839Y0185319D03*
X0082839Y0182760D03*
X0082839Y0180201D03*
X0060004Y0180201D03*
X0060004Y0182760D03*
X0060004Y0185319D03*
X0060004Y0187878D03*
X0060004Y0190437D03*
X0060004Y0192996D03*
X0060004Y0195555D03*
X0060004Y0198114D03*
X0060004Y0200673D03*
X0060004Y0203232D03*
X0132839Y0202523D03*
X0132839Y0199964D03*
X0132839Y0197406D03*
X0132839Y0194846D03*
X0132839Y0192287D03*
X0132839Y0189728D03*
X0132839Y0187169D03*
X0132839Y0184610D03*
X0132839Y0182051D03*
X0132839Y0179493D03*
X0155674Y0179493D03*
X0155674Y0182051D03*
X0155674Y0184610D03*
X0155674Y0187169D03*
X0155674Y0189728D03*
X0155674Y0192287D03*
X0155674Y0194846D03*
X0155674Y0197406D03*
X0155674Y0199964D03*
X0155674Y0202523D03*
D16*
X0165280Y0111323D03*
X0165280Y0101480D03*
X0165280Y0091638D03*
X0178272Y0091638D03*
X0178272Y0101480D03*
X0178272Y0111323D03*
X0056855Y0109630D03*
X0056855Y0099787D03*
X0056855Y0089945D03*
X0043863Y0089945D03*
X0043863Y0099787D03*
X0043863Y0109630D03*
D17*
X0054595Y0044756D03*
X0089713Y0044756D03*
X0128095Y0043256D03*
X0163213Y0043256D03*
D18*
X0173095Y0042917D02*
X0153095Y0042917D01*
X0153095Y0041719D02*
X0173095Y0041719D01*
X0173095Y0040520D02*
X0153095Y0040520D01*
X0153095Y0039322D02*
X0173095Y0039322D01*
X0173095Y0038123D02*
X0153095Y0038123D01*
X0153095Y0036925D02*
X0173095Y0036925D01*
X0173095Y0035726D02*
X0153095Y0035726D01*
X0153095Y0034528D02*
X0173095Y0034528D01*
X0173095Y0033329D02*
X0153095Y0033329D01*
X0153095Y0032131D02*
X0173095Y0032131D01*
X0173095Y0030932D02*
X0153095Y0030932D01*
X0153095Y0029734D02*
X0173095Y0029734D01*
X0173095Y0028535D02*
X0153095Y0028535D01*
X0153095Y0027337D02*
X0173095Y0027337D01*
X0173095Y0026138D02*
X0153095Y0026138D01*
X0153095Y0024940D02*
X0173095Y0024940D01*
X0173095Y0023741D02*
X0153095Y0023741D01*
X0153095Y0023256D02*
X0153095Y0063256D01*
X0173095Y0063256D01*
X0173095Y0023256D01*
X0153095Y0023256D01*
X0138095Y0023256D02*
X0118095Y0023256D01*
X0118095Y0058256D01*
X0123095Y0063256D01*
X0138095Y0063256D01*
X0138095Y0023256D01*
X0138095Y0023741D02*
X0118095Y0023741D01*
X0118095Y0024940D02*
X0138095Y0024940D01*
X0138095Y0026138D02*
X0118095Y0026138D01*
X0118095Y0027337D02*
X0138095Y0027337D01*
X0138095Y0028535D02*
X0118095Y0028535D01*
X0118095Y0029734D02*
X0138095Y0029734D01*
X0138095Y0030932D02*
X0118095Y0030932D01*
X0118095Y0032131D02*
X0138095Y0032131D01*
X0138095Y0033329D02*
X0118095Y0033329D01*
X0118095Y0034528D02*
X0138095Y0034528D01*
X0138095Y0035726D02*
X0118095Y0035726D01*
X0118095Y0036925D02*
X0138095Y0036925D01*
X0138095Y0038123D02*
X0118095Y0038123D01*
X0118095Y0039322D02*
X0138095Y0039322D01*
X0138095Y0040520D02*
X0118095Y0040520D01*
X0118095Y0041719D02*
X0138095Y0041719D01*
X0138095Y0042917D02*
X0118095Y0042917D01*
X0118095Y0044116D02*
X0138095Y0044116D01*
X0138095Y0045314D02*
X0118095Y0045314D01*
X0118095Y0046513D02*
X0138095Y0046513D01*
X0138095Y0047711D02*
X0118095Y0047711D01*
X0118095Y0048910D02*
X0138095Y0048910D01*
X0138095Y0050108D02*
X0118095Y0050108D01*
X0118095Y0051307D02*
X0138095Y0051307D01*
X0138095Y0052505D02*
X0118095Y0052505D01*
X0118095Y0053704D02*
X0138095Y0053704D01*
X0138095Y0054902D02*
X0118095Y0054902D01*
X0118095Y0056101D02*
X0138095Y0056101D01*
X0138095Y0057299D02*
X0118095Y0057299D01*
X0118337Y0058498D02*
X0138095Y0058498D01*
X0138095Y0059696D02*
X0119536Y0059696D01*
X0120734Y0060895D02*
X0138095Y0060895D01*
X0138095Y0062093D02*
X0121933Y0062093D01*
X0099595Y0062093D02*
X0079595Y0062093D01*
X0079595Y0060895D02*
X0099595Y0060895D01*
X0099595Y0059696D02*
X0079595Y0059696D01*
X0079595Y0058498D02*
X0099595Y0058498D01*
X0099595Y0057299D02*
X0079595Y0057299D01*
X0079595Y0056101D02*
X0099595Y0056101D01*
X0099595Y0054902D02*
X0079595Y0054902D01*
X0079595Y0053704D02*
X0099595Y0053704D01*
X0099595Y0052505D02*
X0079595Y0052505D01*
X0079595Y0051307D02*
X0099595Y0051307D01*
X0099595Y0050108D02*
X0079595Y0050108D01*
X0079595Y0048910D02*
X0099595Y0048910D01*
X0099595Y0047711D02*
X0079595Y0047711D01*
X0079595Y0046513D02*
X0099595Y0046513D01*
X0099595Y0045314D02*
X0079595Y0045314D01*
X0079595Y0044116D02*
X0099595Y0044116D01*
X0099595Y0042917D02*
X0079595Y0042917D01*
X0079595Y0041719D02*
X0099595Y0041719D01*
X0099595Y0040520D02*
X0079595Y0040520D01*
X0079595Y0039322D02*
X0099595Y0039322D01*
X0099595Y0038123D02*
X0079595Y0038123D01*
X0079595Y0036925D02*
X0099595Y0036925D01*
X0099595Y0035726D02*
X0079595Y0035726D01*
X0079595Y0034528D02*
X0099595Y0034528D01*
X0099595Y0033329D02*
X0079595Y0033329D01*
X0079595Y0032131D02*
X0099595Y0032131D01*
X0099595Y0030932D02*
X0079595Y0030932D01*
X0079595Y0029734D02*
X0099595Y0029734D01*
X0099595Y0028535D02*
X0079595Y0028535D01*
X0079595Y0027337D02*
X0099595Y0027337D01*
X0099595Y0026138D02*
X0079595Y0026138D01*
X0079595Y0024940D02*
X0099595Y0024940D01*
X0099595Y0024756D02*
X0079595Y0024756D01*
X0079595Y0064756D01*
X0099595Y0064756D01*
X0099595Y0024756D01*
X0099595Y0063292D02*
X0079595Y0063292D01*
X0079595Y0064490D02*
X0099595Y0064490D01*
X0064595Y0064490D02*
X0049330Y0064490D01*
X0049595Y0064756D02*
X0064595Y0064756D01*
X0064595Y0024756D01*
X0044595Y0024756D01*
X0044595Y0059756D01*
X0049595Y0064756D01*
X0048131Y0063292D02*
X0064595Y0063292D01*
X0064595Y0062093D02*
X0046933Y0062093D01*
X0045734Y0060895D02*
X0064595Y0060895D01*
X0064595Y0059696D02*
X0044595Y0059696D01*
X0044595Y0058498D02*
X0064595Y0058498D01*
X0064595Y0057299D02*
X0044595Y0057299D01*
X0044595Y0056101D02*
X0064595Y0056101D01*
X0064595Y0054902D02*
X0044595Y0054902D01*
X0044595Y0053704D02*
X0064595Y0053704D01*
X0064595Y0052505D02*
X0044595Y0052505D01*
X0044595Y0051307D02*
X0064595Y0051307D01*
X0064595Y0050108D02*
X0044595Y0050108D01*
X0044595Y0048910D02*
X0064595Y0048910D01*
X0064595Y0047711D02*
X0044595Y0047711D01*
X0044595Y0046513D02*
X0064595Y0046513D01*
X0064595Y0045314D02*
X0044595Y0045314D01*
X0044595Y0044116D02*
X0064595Y0044116D01*
X0064595Y0042917D02*
X0044595Y0042917D01*
X0044595Y0041719D02*
X0064595Y0041719D01*
X0064595Y0040520D02*
X0044595Y0040520D01*
X0044595Y0039322D02*
X0064595Y0039322D01*
X0064595Y0038123D02*
X0044595Y0038123D01*
X0044595Y0036925D02*
X0064595Y0036925D01*
X0064595Y0035726D02*
X0044595Y0035726D01*
X0044595Y0034528D02*
X0064595Y0034528D01*
X0064595Y0033329D02*
X0044595Y0033329D01*
X0044595Y0032131D02*
X0064595Y0032131D01*
X0064595Y0030932D02*
X0044595Y0030932D01*
X0044595Y0029734D02*
X0064595Y0029734D01*
X0064595Y0028535D02*
X0044595Y0028535D01*
X0044595Y0027337D02*
X0064595Y0027337D01*
X0064595Y0026138D02*
X0044595Y0026138D01*
X0044595Y0024940D02*
X0064595Y0024940D01*
X0068095Y0137756D02*
X0044095Y0137756D01*
X0041178Y0140673D01*
X0041178Y0161673D01*
X0044182Y0164669D02*
X0038095Y0170756D01*
X0038095Y0191756D01*
X0044453Y0198114D01*
X0060004Y0198114D01*
X0060004Y0200673D02*
X0045678Y0200673D01*
X0042595Y0203756D01*
X0042595Y0253256D01*
X0056095Y0266756D01*
X0064146Y0266756D01*
X0065355Y0267965D01*
X0065355Y0277965D02*
X0048816Y0277965D01*
X0047095Y0276244D01*
X0050095Y0253256D02*
X0045595Y0248756D01*
X0045595Y0214256D01*
X0047430Y0212421D01*
X0053131Y0212421D01*
X0060004Y0205548D01*
X0060004Y0203232D01*
X0060004Y0195555D02*
X0046394Y0195555D01*
X0041095Y0190256D01*
X0041095Y0173839D01*
X0041178Y0173756D01*
X0044095Y0176756D02*
X0044095Y0188756D01*
X0045595Y0190256D01*
X0059823Y0190256D01*
X0060004Y0190437D01*
X0060004Y0187878D02*
X0064473Y0187878D01*
X0066595Y0185756D01*
X0066595Y0175256D01*
X0068095Y0173756D01*
X0110095Y0173756D01*
X0123512Y0187173D01*
X0132835Y0187173D01*
X0132839Y0187169D01*
X0132752Y0187256D01*
X0132839Y0189728D02*
X0136123Y0189728D01*
X0138595Y0187256D01*
X0138595Y0164150D01*
X0147839Y0154906D01*
X0132839Y0184610D02*
X0129949Y0184610D01*
X0125095Y0179756D01*
X0125095Y0164756D01*
X0123595Y0190256D02*
X0128186Y0194846D01*
X0132839Y0194846D01*
X0132196Y0213888D02*
X0131646Y0214437D01*
X0119095Y0224756D02*
X0118118Y0225733D01*
X0116095Y0227756D01*
X0096595Y0227756D01*
X0096595Y0236756D02*
X0108595Y0236756D01*
X0118118Y0225733D02*
X0119095Y0224756D01*
X0119095Y0191756D01*
X0107540Y0180201D01*
X0082839Y0180201D01*
X0082839Y0182760D02*
X0098099Y0182760D01*
X0104095Y0188756D01*
X0098095Y0188756D02*
X0094658Y0185319D01*
X0082839Y0185319D01*
X0082839Y0187878D02*
X0089717Y0187878D01*
X0090595Y0188756D01*
X0096335Y0192996D02*
X0111595Y0208256D01*
X0110095Y0217256D02*
X0088394Y0195555D01*
X0082839Y0195555D01*
X0082839Y0192996D02*
X0096335Y0192996D01*
X0089095Y0202256D02*
X0089095Y0254224D01*
X0075355Y0267965D01*
X0075355Y0257965D02*
X0084595Y0248724D01*
X0084595Y0212756D01*
X0089095Y0202256D02*
X0084953Y0198114D01*
X0082839Y0198114D01*
X0082839Y0200673D02*
X0077780Y0200673D01*
X0075871Y0198764D01*
X0069595Y0199256D02*
X0069595Y0206756D01*
X0071095Y0208256D01*
X0069595Y0199256D02*
X0063335Y0192996D01*
X0060004Y0192996D01*
X0060004Y0185319D02*
X0047615Y0185319D01*
X0047178Y0185756D01*
X0044095Y0176756D02*
X0047095Y0173756D01*
X0047095Y0169256D01*
X0044182Y0164669D02*
X0066855Y0164669D01*
X0063595Y0172256D02*
X0060004Y0175847D01*
X0060004Y0180201D01*
X0060004Y0182760D02*
X0056099Y0182760D01*
X0054595Y0181256D01*
X0050095Y0160256D02*
X0050095Y0148256D01*
X0051595Y0146756D01*
X0064768Y0146756D01*
X0066855Y0144669D01*
X0072595Y0142256D02*
X0068095Y0137756D01*
X0072595Y0142256D02*
X0072595Y0148929D01*
X0066855Y0154669D01*
X0126595Y0235256D02*
X0126595Y0246350D01*
X0153764Y0273520D01*
X0152095Y0265256D02*
X0135595Y0248756D01*
X0135595Y0236756D01*
X0152095Y0265256D02*
X0155501Y0265256D01*
X0163764Y0273520D01*
X0171225Y0195811D02*
X0170260Y0194846D01*
X0155674Y0194846D01*
X0155674Y0192287D02*
X0164749Y0192287D01*
X0171225Y0185811D01*
X0173095Y0062093D02*
X0153095Y0062093D01*
X0153095Y0060895D02*
X0173095Y0060895D01*
X0173095Y0059696D02*
X0153095Y0059696D01*
X0153095Y0058498D02*
X0173095Y0058498D01*
X0173095Y0057299D02*
X0153095Y0057299D01*
X0153095Y0056101D02*
X0173095Y0056101D01*
X0173095Y0054902D02*
X0153095Y0054902D01*
X0153095Y0053704D02*
X0173095Y0053704D01*
X0173095Y0052505D02*
X0153095Y0052505D01*
X0153095Y0051307D02*
X0173095Y0051307D01*
X0173095Y0050108D02*
X0153095Y0050108D01*
X0153095Y0048910D02*
X0173095Y0048910D01*
X0173095Y0047711D02*
X0153095Y0047711D01*
X0153095Y0046513D02*
X0173095Y0046513D01*
X0173095Y0045314D02*
X0153095Y0045314D01*
X0153095Y0044116D02*
X0173095Y0044116D01*
D19*
X0174995Y0044076D02*
X0187175Y0044076D01*
X0187175Y0044674D02*
X0174995Y0044674D01*
X0174995Y0045273D02*
X0187175Y0045273D01*
X0187175Y0045871D02*
X0174995Y0045871D01*
X0174995Y0046470D02*
X0187175Y0046470D01*
X0187175Y0047068D02*
X0174995Y0047068D01*
X0174995Y0047667D02*
X0187175Y0047667D01*
X0187175Y0048265D02*
X0174995Y0048265D01*
X0174995Y0048864D02*
X0187175Y0048864D01*
X0187175Y0049462D02*
X0174995Y0049462D01*
X0174995Y0050061D02*
X0187175Y0050061D01*
X0187175Y0050659D02*
X0174995Y0050659D01*
X0174995Y0051258D02*
X0187175Y0051258D01*
X0187175Y0051856D02*
X0174995Y0051856D01*
X0174995Y0052455D02*
X0187175Y0052455D01*
X0187175Y0053053D02*
X0174995Y0053053D01*
X0174995Y0053652D02*
X0187175Y0053652D01*
X0187175Y0054250D02*
X0174995Y0054250D01*
X0174995Y0054849D02*
X0187175Y0054849D01*
X0187175Y0055447D02*
X0174995Y0055447D01*
X0174995Y0056046D02*
X0187175Y0056046D01*
X0187175Y0056644D02*
X0174995Y0056644D01*
X0174995Y0057243D02*
X0187175Y0057243D01*
X0187175Y0057841D02*
X0174995Y0057841D01*
X0174995Y0058440D02*
X0187175Y0058440D01*
X0187175Y0059038D02*
X0174995Y0059038D01*
X0174995Y0059637D02*
X0187175Y0059637D01*
X0187175Y0060235D02*
X0174995Y0060235D01*
X0174995Y0060834D02*
X0187175Y0060834D01*
X0187175Y0061432D02*
X0174995Y0061432D01*
X0174995Y0062031D02*
X0187175Y0062031D01*
X0187175Y0062629D02*
X0174995Y0062629D01*
X0174995Y0063228D02*
X0187175Y0063228D01*
X0187175Y0063826D02*
X0174909Y0063826D01*
X0174866Y0063989D02*
X0174616Y0064423D01*
X0174262Y0064776D01*
X0173829Y0065026D01*
X0173345Y0065156D01*
X0163513Y0065156D01*
X0163513Y0043556D01*
X0162913Y0043556D01*
X0162913Y0042956D01*
X0151195Y0042956D01*
X0151195Y0023006D01*
X0151325Y0022523D01*
X0151575Y0022089D01*
X0151928Y0021736D01*
X0152362Y0021485D01*
X0152845Y0021356D01*
X0153345Y0021356D01*
X0162913Y0021356D01*
X0162913Y0042956D01*
X0163513Y0042956D01*
X0163513Y0021356D01*
X0173345Y0021356D01*
X0173829Y0021485D01*
X0174262Y0021736D01*
X0174616Y0022089D01*
X0174866Y0022523D01*
X0174995Y0023006D01*
X0174995Y0042956D01*
X0163513Y0042956D01*
X0163513Y0043556D01*
X0174995Y0043556D01*
X0174995Y0063506D01*
X0174866Y0063989D01*
X0174613Y0064425D02*
X0187175Y0064425D01*
X0187175Y0065023D02*
X0173834Y0065023D01*
X0163513Y0065023D02*
X0162913Y0065023D01*
X0162913Y0065156D02*
X0152845Y0065156D01*
X0152362Y0065026D01*
X0151928Y0064776D01*
X0151575Y0064423D01*
X0151325Y0063989D01*
X0151195Y0063506D01*
X0151195Y0043556D01*
X0162913Y0043556D01*
X0162913Y0065156D01*
X0162913Y0064425D02*
X0163513Y0064425D01*
X0163513Y0063826D02*
X0162913Y0063826D01*
X0162913Y0063228D02*
X0163513Y0063228D01*
X0163513Y0062629D02*
X0162913Y0062629D01*
X0162913Y0062031D02*
X0163513Y0062031D01*
X0163513Y0061432D02*
X0162913Y0061432D01*
X0162913Y0060834D02*
X0163513Y0060834D01*
X0163513Y0060235D02*
X0162913Y0060235D01*
X0162913Y0059637D02*
X0163513Y0059637D01*
X0163513Y0059038D02*
X0162913Y0059038D01*
X0162913Y0058440D02*
X0163513Y0058440D01*
X0163513Y0057841D02*
X0162913Y0057841D01*
X0162913Y0057243D02*
X0163513Y0057243D01*
X0163513Y0056644D02*
X0162913Y0056644D01*
X0162913Y0056046D02*
X0163513Y0056046D01*
X0163513Y0055447D02*
X0162913Y0055447D01*
X0162913Y0054849D02*
X0163513Y0054849D01*
X0163513Y0054250D02*
X0162913Y0054250D01*
X0162913Y0053652D02*
X0163513Y0053652D01*
X0163513Y0053053D02*
X0162913Y0053053D01*
X0162913Y0052455D02*
X0163513Y0052455D01*
X0163513Y0051856D02*
X0162913Y0051856D01*
X0162913Y0051258D02*
X0163513Y0051258D01*
X0163513Y0050659D02*
X0162913Y0050659D01*
X0162913Y0050061D02*
X0163513Y0050061D01*
X0163513Y0049462D02*
X0162913Y0049462D01*
X0162913Y0048864D02*
X0163513Y0048864D01*
X0163513Y0048265D02*
X0162913Y0048265D01*
X0162913Y0047667D02*
X0163513Y0047667D01*
X0163513Y0047068D02*
X0162913Y0047068D01*
X0162913Y0046470D02*
X0163513Y0046470D01*
X0163513Y0045871D02*
X0162913Y0045871D01*
X0162913Y0045273D02*
X0163513Y0045273D01*
X0163513Y0044674D02*
X0162913Y0044674D01*
X0162913Y0044076D02*
X0163513Y0044076D01*
X0163513Y0043477D02*
X0187175Y0043477D01*
X0187175Y0042878D02*
X0174995Y0042878D01*
X0174995Y0042280D02*
X0187175Y0042280D01*
X0187175Y0041681D02*
X0174995Y0041681D01*
X0174995Y0041083D02*
X0187175Y0041083D01*
X0187175Y0040484D02*
X0174995Y0040484D01*
X0174995Y0039886D02*
X0187175Y0039886D01*
X0187175Y0039287D02*
X0174995Y0039287D01*
X0174995Y0038689D02*
X0187175Y0038689D01*
X0187175Y0038090D02*
X0174995Y0038090D01*
X0174995Y0037492D02*
X0187175Y0037492D01*
X0187175Y0036893D02*
X0174995Y0036893D01*
X0174995Y0036295D02*
X0187175Y0036295D01*
X0187175Y0035696D02*
X0174995Y0035696D01*
X0174995Y0035098D02*
X0187175Y0035098D01*
X0187175Y0034499D02*
X0174995Y0034499D01*
X0174995Y0033901D02*
X0187175Y0033901D01*
X0187175Y0033302D02*
X0174995Y0033302D01*
X0174995Y0032704D02*
X0187175Y0032704D01*
X0187175Y0032105D02*
X0174995Y0032105D01*
X0174995Y0031507D02*
X0187175Y0031507D01*
X0187175Y0030908D02*
X0174995Y0030908D01*
X0174995Y0030310D02*
X0187175Y0030310D01*
X0187175Y0029711D02*
X0174995Y0029711D01*
X0174995Y0029113D02*
X0187175Y0029113D01*
X0187175Y0028514D02*
X0174995Y0028514D01*
X0174995Y0027916D02*
X0187175Y0027916D01*
X0187175Y0027317D02*
X0174995Y0027317D01*
X0174995Y0026719D02*
X0187175Y0026719D01*
X0187175Y0026120D02*
X0174995Y0026120D01*
X0174995Y0025522D02*
X0187175Y0025522D01*
X0187175Y0024923D02*
X0174995Y0024923D01*
X0174995Y0024325D02*
X0187175Y0024325D01*
X0187175Y0023726D02*
X0174995Y0023726D01*
X0174995Y0023128D02*
X0187175Y0023128D01*
X0187175Y0022529D02*
X0174867Y0022529D01*
X0174457Y0021931D02*
X0187175Y0021931D01*
X0187175Y0021332D02*
X0145416Y0021332D01*
X0145595Y0021764D02*
X0145595Y0064748D01*
X0144453Y0067504D01*
X0142344Y0069614D01*
X0139587Y0070756D01*
X0136195Y0070756D01*
X0136195Y0072901D01*
X0154580Y0091286D01*
X0154580Y0090229D01*
X0155309Y0087508D01*
X0156718Y0085068D01*
X0158710Y0083076D01*
X0161150Y0081667D01*
X0163871Y0080938D01*
X0166689Y0080938D01*
X0169410Y0081667D01*
X0171776Y0083033D01*
X0174142Y0081667D01*
X0176864Y0080938D01*
X0179681Y0080938D01*
X0182402Y0081667D01*
X0184842Y0083076D01*
X0186834Y0085068D01*
X0187175Y0085659D01*
X0187175Y0018656D01*
X0144102Y0018656D01*
X0144453Y0019007D01*
X0145595Y0021764D01*
X0145595Y0021931D02*
X0151733Y0021931D01*
X0151323Y0022529D02*
X0145595Y0022529D01*
X0145595Y0023128D02*
X0151195Y0023128D01*
X0151195Y0023726D02*
X0145595Y0023726D01*
X0145595Y0024325D02*
X0151195Y0024325D01*
X0151195Y0024923D02*
X0145595Y0024923D01*
X0145595Y0025522D02*
X0151195Y0025522D01*
X0151195Y0026120D02*
X0145595Y0026120D01*
X0145595Y0026719D02*
X0151195Y0026719D01*
X0151195Y0027317D02*
X0145595Y0027317D01*
X0145595Y0027916D02*
X0151195Y0027916D01*
X0151195Y0028514D02*
X0145595Y0028514D01*
X0145595Y0029113D02*
X0151195Y0029113D01*
X0151195Y0029711D02*
X0145595Y0029711D01*
X0145595Y0030310D02*
X0151195Y0030310D01*
X0151195Y0030908D02*
X0145595Y0030908D01*
X0145595Y0031507D02*
X0151195Y0031507D01*
X0151195Y0032105D02*
X0145595Y0032105D01*
X0145595Y0032704D02*
X0151195Y0032704D01*
X0151195Y0033302D02*
X0145595Y0033302D01*
X0145595Y0033901D02*
X0151195Y0033901D01*
X0151195Y0034499D02*
X0145595Y0034499D01*
X0145595Y0035098D02*
X0151195Y0035098D01*
X0151195Y0035696D02*
X0145595Y0035696D01*
X0145595Y0036295D02*
X0151195Y0036295D01*
X0151195Y0036893D02*
X0145595Y0036893D01*
X0145595Y0037492D02*
X0151195Y0037492D01*
X0151195Y0038090D02*
X0145595Y0038090D01*
X0145595Y0038689D02*
X0151195Y0038689D01*
X0151195Y0039287D02*
X0145595Y0039287D01*
X0145595Y0039886D02*
X0151195Y0039886D01*
X0151195Y0040484D02*
X0145595Y0040484D01*
X0145595Y0041083D02*
X0151195Y0041083D01*
X0151195Y0041681D02*
X0145595Y0041681D01*
X0145595Y0042280D02*
X0151195Y0042280D01*
X0151195Y0042878D02*
X0145595Y0042878D01*
X0145595Y0043477D02*
X0162913Y0043477D01*
X0162913Y0042878D02*
X0163513Y0042878D01*
X0163513Y0042280D02*
X0162913Y0042280D01*
X0162913Y0041681D02*
X0163513Y0041681D01*
X0163513Y0041083D02*
X0162913Y0041083D01*
X0162913Y0040484D02*
X0163513Y0040484D01*
X0163513Y0039886D02*
X0162913Y0039886D01*
X0162913Y0039287D02*
X0163513Y0039287D01*
X0163513Y0038689D02*
X0162913Y0038689D01*
X0162913Y0038090D02*
X0163513Y0038090D01*
X0163513Y0037492D02*
X0162913Y0037492D01*
X0162913Y0036893D02*
X0163513Y0036893D01*
X0163513Y0036295D02*
X0162913Y0036295D01*
X0162913Y0035696D02*
X0163513Y0035696D01*
X0163513Y0035098D02*
X0162913Y0035098D01*
X0162913Y0034499D02*
X0163513Y0034499D01*
X0163513Y0033901D02*
X0162913Y0033901D01*
X0162913Y0033302D02*
X0163513Y0033302D01*
X0163513Y0032704D02*
X0162913Y0032704D01*
X0162913Y0032105D02*
X0163513Y0032105D01*
X0163513Y0031507D02*
X0162913Y0031507D01*
X0162913Y0030908D02*
X0163513Y0030908D01*
X0163513Y0030310D02*
X0162913Y0030310D01*
X0162913Y0029711D02*
X0163513Y0029711D01*
X0163513Y0029113D02*
X0162913Y0029113D01*
X0162913Y0028514D02*
X0163513Y0028514D01*
X0163513Y0027916D02*
X0162913Y0027916D01*
X0162913Y0027317D02*
X0163513Y0027317D01*
X0163513Y0026719D02*
X0162913Y0026719D01*
X0162913Y0026120D02*
X0163513Y0026120D01*
X0163513Y0025522D02*
X0162913Y0025522D01*
X0162913Y0024923D02*
X0163513Y0024923D01*
X0163513Y0024325D02*
X0162913Y0024325D01*
X0162913Y0023726D02*
X0163513Y0023726D01*
X0163513Y0023128D02*
X0162913Y0023128D01*
X0162913Y0022529D02*
X0163513Y0022529D01*
X0163513Y0021931D02*
X0162913Y0021931D01*
X0151195Y0044076D02*
X0145595Y0044076D01*
X0145595Y0044674D02*
X0151195Y0044674D01*
X0151195Y0045273D02*
X0145595Y0045273D01*
X0145595Y0045871D02*
X0151195Y0045871D01*
X0151195Y0046470D02*
X0145595Y0046470D01*
X0145595Y0047068D02*
X0151195Y0047068D01*
X0151195Y0047667D02*
X0145595Y0047667D01*
X0145595Y0048265D02*
X0151195Y0048265D01*
X0151195Y0048864D02*
X0145595Y0048864D01*
X0145595Y0049462D02*
X0151195Y0049462D01*
X0151195Y0050061D02*
X0145595Y0050061D01*
X0145595Y0050659D02*
X0151195Y0050659D01*
X0151195Y0051258D02*
X0145595Y0051258D01*
X0145595Y0051856D02*
X0151195Y0051856D01*
X0151195Y0052455D02*
X0145595Y0052455D01*
X0145595Y0053053D02*
X0151195Y0053053D01*
X0151195Y0053652D02*
X0145595Y0053652D01*
X0145595Y0054250D02*
X0151195Y0054250D01*
X0151195Y0054849D02*
X0145595Y0054849D01*
X0145595Y0055447D02*
X0151195Y0055447D01*
X0151195Y0056046D02*
X0145595Y0056046D01*
X0145595Y0056644D02*
X0151195Y0056644D01*
X0151195Y0057243D02*
X0145595Y0057243D01*
X0145595Y0057841D02*
X0151195Y0057841D01*
X0151195Y0058440D02*
X0145595Y0058440D01*
X0145595Y0059038D02*
X0151195Y0059038D01*
X0151195Y0059637D02*
X0145595Y0059637D01*
X0145595Y0060235D02*
X0151195Y0060235D01*
X0151195Y0060834D02*
X0145595Y0060834D01*
X0145595Y0061432D02*
X0151195Y0061432D01*
X0151195Y0062031D02*
X0145595Y0062031D01*
X0145595Y0062629D02*
X0151195Y0062629D01*
X0151195Y0063228D02*
X0145595Y0063228D01*
X0145595Y0063826D02*
X0151281Y0063826D01*
X0151577Y0064425D02*
X0145595Y0064425D01*
X0145481Y0065023D02*
X0152357Y0065023D01*
X0145233Y0065622D02*
X0187175Y0065622D01*
X0187175Y0066220D02*
X0144985Y0066220D01*
X0144737Y0066819D02*
X0187175Y0066819D01*
X0187175Y0067417D02*
X0144489Y0067417D01*
X0143942Y0068016D02*
X0187175Y0068016D01*
X0187175Y0068614D02*
X0143343Y0068614D01*
X0142745Y0069213D02*
X0187175Y0069213D01*
X0187175Y0069812D02*
X0141867Y0069812D01*
X0140422Y0070410D02*
X0187175Y0070410D01*
X0187175Y0071009D02*
X0136195Y0071009D01*
X0136195Y0071607D02*
X0187175Y0071607D01*
X0187175Y0072206D02*
X0136195Y0072206D01*
X0136195Y0072804D02*
X0187175Y0072804D01*
X0187175Y0073403D02*
X0136697Y0073403D01*
X0137295Y0074001D02*
X0187175Y0074001D01*
X0187175Y0074600D02*
X0137894Y0074600D01*
X0138492Y0075198D02*
X0187175Y0075198D01*
X0187175Y0075797D02*
X0139091Y0075797D01*
X0139689Y0076395D02*
X0187175Y0076395D01*
X0187175Y0076994D02*
X0140288Y0076994D01*
X0140887Y0077592D02*
X0187175Y0077592D01*
X0187175Y0078191D02*
X0141485Y0078191D01*
X0142084Y0078789D02*
X0187175Y0078789D01*
X0187175Y0079388D02*
X0142682Y0079388D01*
X0143281Y0079986D02*
X0187175Y0079986D01*
X0187175Y0080585D02*
X0143879Y0080585D01*
X0144478Y0081183D02*
X0162956Y0081183D01*
X0160951Y0081782D02*
X0145076Y0081782D01*
X0145675Y0082380D02*
X0159915Y0082380D01*
X0158878Y0082979D02*
X0146273Y0082979D01*
X0146872Y0083577D02*
X0158209Y0083577D01*
X0157610Y0084176D02*
X0147470Y0084176D01*
X0148069Y0084774D02*
X0157012Y0084774D01*
X0156542Y0085373D02*
X0148667Y0085373D01*
X0149266Y0085971D02*
X0156196Y0085971D01*
X0155851Y0086570D02*
X0149864Y0086570D01*
X0150463Y0087168D02*
X0155505Y0087168D01*
X0155240Y0087767D02*
X0151061Y0087767D01*
X0151660Y0088365D02*
X0155080Y0088365D01*
X0154919Y0088964D02*
X0152258Y0088964D01*
X0152857Y0089562D02*
X0154759Y0089562D01*
X0154598Y0090161D02*
X0153455Y0090161D01*
X0154054Y0090759D02*
X0154580Y0090759D01*
X0143712Y0103328D02*
X0096024Y0103328D01*
X0095860Y0103396D02*
X0089146Y0103396D01*
X0088047Y0104495D01*
X0085511Y0105546D01*
X0085438Y0105546D01*
X0085438Y0106220D01*
X0080895Y0106220D01*
X0080895Y0106820D01*
X0080295Y0106820D01*
X0080295Y0110969D01*
X0076881Y0110969D01*
X0076550Y0110881D01*
X0076254Y0110710D01*
X0076012Y0110468D01*
X0075840Y0110171D01*
X0075752Y0109840D01*
X0075752Y0106820D01*
X0080295Y0106820D01*
X0080295Y0106220D01*
X0075752Y0106220D01*
X0075752Y0105546D01*
X0075679Y0105546D01*
X0073143Y0104495D01*
X0071202Y0102554D01*
X0070152Y0100018D01*
X0070152Y0090974D01*
X0071202Y0088438D01*
X0073143Y0086497D01*
X0075679Y0085446D01*
X0085511Y0085446D01*
X0087055Y0086086D01*
X0087308Y0085476D01*
X0090093Y0082691D01*
X0093731Y0081184D01*
X0103670Y0081184D01*
X0107309Y0082691D01*
X0107801Y0083184D01*
X0115200Y0083184D01*
X0115693Y0082691D01*
X0119331Y0081184D01*
X0121568Y0081184D01*
X0121228Y0080844D01*
X0119995Y0077867D01*
X0119995Y0070090D01*
X0118847Y0069614D01*
X0116737Y0067504D01*
X0113847Y0064614D01*
X0111737Y0062504D01*
X0110595Y0059748D01*
X0110595Y0021764D01*
X0111737Y0019007D01*
X0112089Y0018656D01*
X0069102Y0018656D01*
X0070953Y0020507D01*
X0072095Y0023264D01*
X0072095Y0066248D01*
X0070953Y0069004D01*
X0068844Y0071114D01*
X0066087Y0072256D01*
X0055050Y0072256D01*
X0047472Y0079834D01*
X0047993Y0079974D01*
X0050359Y0081340D01*
X0052725Y0079974D01*
X0055446Y0079245D01*
X0058264Y0079245D01*
X0060985Y0079974D01*
X0063425Y0081383D01*
X0065417Y0083375D01*
X0066826Y0085815D01*
X0067555Y0088536D01*
X0067555Y0091354D01*
X0066826Y0094075D01*
X0066369Y0094866D01*
X0066826Y0095657D01*
X0067555Y0098379D01*
X0067555Y0101196D01*
X0066826Y0103917D01*
X0066369Y0104709D01*
X0066826Y0105500D01*
X0067555Y0108221D01*
X0067555Y0109158D01*
X0080127Y0121730D01*
X0097718Y0121730D01*
X0100621Y0122933D01*
X0101426Y0123738D01*
X0104882Y0123738D01*
X0117061Y0111559D01*
X0117728Y0111282D01*
X0117623Y0111138D01*
X0117316Y0110535D01*
X0117107Y0109891D01*
X0117001Y0109223D01*
X0117001Y0109184D01*
X0124001Y0109184D01*
X0124001Y0108584D01*
X0124601Y0108584D01*
X0124601Y0109184D01*
X0131601Y0109184D01*
X0131601Y0109223D01*
X0131506Y0109822D01*
X0132348Y0109473D01*
X0135842Y0109473D01*
X0139070Y0110810D01*
X0141541Y0113281D01*
X0142878Y0116509D01*
X0142878Y0120003D01*
X0141541Y0123231D01*
X0139070Y0125701D01*
X0135842Y0127039D01*
X0132348Y0127039D01*
X0130217Y0126156D01*
X0124808Y0126156D01*
X0122426Y0128538D01*
X0137206Y0128538D01*
X0139231Y0126513D01*
X0142870Y0125006D01*
X0152808Y0125006D01*
X0156447Y0126513D01*
X0156740Y0126806D01*
X0157180Y0126806D01*
X0157180Y0118355D01*
X0156718Y0117893D01*
X0155309Y0115453D01*
X0154580Y0112732D01*
X0154580Y0109914D01*
X0154998Y0108356D01*
X0150484Y0108356D01*
X0147507Y0107123D01*
X0145228Y0104844D01*
X0136098Y0095714D01*
X0135693Y0096692D01*
X0132909Y0099477D01*
X0129270Y0100984D01*
X0119331Y0100984D01*
X0115693Y0099477D01*
X0115200Y0098984D01*
X0107801Y0098984D01*
X0107309Y0099477D01*
X0103670Y0100984D01*
X0099973Y0100984D01*
X0098764Y0102193D01*
X0095860Y0103396D01*
X0095362Y0104584D02*
X0098401Y0104584D01*
X0098401Y0108584D01*
X0099001Y0108584D01*
X0099001Y0109184D01*
X0106001Y0109184D01*
X0106001Y0109223D01*
X0105895Y0109891D01*
X0105686Y0110535D01*
X0105378Y0111138D01*
X0104980Y0111686D01*
X0104502Y0112164D01*
X0103954Y0112562D01*
X0103351Y0112869D01*
X0102708Y0113078D01*
X0102039Y0113184D01*
X0099001Y0113184D01*
X0099001Y0109184D01*
X0098401Y0109184D01*
X0098401Y0113184D01*
X0095362Y0113184D01*
X0094694Y0113078D01*
X0094050Y0112869D01*
X0093447Y0112562D01*
X0092899Y0112164D01*
X0092421Y0111686D01*
X0092023Y0111138D01*
X0091716Y0110535D01*
X0091507Y0109891D01*
X0091401Y0109223D01*
X0091401Y0109184D01*
X0098401Y0109184D01*
X0098401Y0108584D01*
X0091401Y0108584D01*
X0091401Y0108546D01*
X0091507Y0107877D01*
X0091716Y0107234D01*
X0092023Y0106631D01*
X0092421Y0106083D01*
X0092899Y0105604D01*
X0093447Y0105207D01*
X0094050Y0104899D01*
X0094694Y0104690D01*
X0095362Y0104584D01*
X0093610Y0105124D02*
X0086530Y0105124D01*
X0085438Y0105722D02*
X0092782Y0105722D01*
X0092248Y0106321D02*
X0080895Y0106321D01*
X0080895Y0106820D02*
X0085438Y0106820D01*
X0085438Y0109840D01*
X0085350Y0110171D01*
X0085179Y0110468D01*
X0084937Y0110710D01*
X0084640Y0110881D01*
X0084310Y0110969D01*
X0080895Y0110969D01*
X0080895Y0106820D01*
X0080895Y0106919D02*
X0080295Y0106919D01*
X0080295Y0106321D02*
X0067046Y0106321D01*
X0067206Y0106919D02*
X0075752Y0106919D01*
X0075752Y0107518D02*
X0067366Y0107518D01*
X0067527Y0108116D02*
X0075752Y0108116D01*
X0075752Y0108715D02*
X0067555Y0108715D01*
X0067711Y0109313D02*
X0075752Y0109313D01*
X0075771Y0109912D02*
X0068309Y0109912D01*
X0068908Y0110510D02*
X0076054Y0110510D01*
X0075752Y0105722D02*
X0066885Y0105722D01*
X0066609Y0105124D02*
X0074661Y0105124D01*
X0073216Y0104525D02*
X0066475Y0104525D01*
X0066820Y0103927D02*
X0072575Y0103927D01*
X0071976Y0103328D02*
X0066984Y0103328D01*
X0067144Y0102730D02*
X0071378Y0102730D01*
X0071027Y0102131D02*
X0067304Y0102131D01*
X0067465Y0101533D02*
X0070779Y0101533D01*
X0070531Y0100934D02*
X0067555Y0100934D01*
X0067555Y0100336D02*
X0070283Y0100336D01*
X0070152Y0099737D02*
X0067555Y0099737D01*
X0067555Y0099139D02*
X0070152Y0099139D01*
X0070152Y0098540D02*
X0067555Y0098540D01*
X0067438Y0097942D02*
X0070152Y0097942D01*
X0070152Y0097343D02*
X0067277Y0097343D01*
X0067117Y0096745D02*
X0070152Y0096745D01*
X0070152Y0096146D02*
X0066957Y0096146D01*
X0066762Y0095547D02*
X0070152Y0095547D01*
X0070152Y0094949D02*
X0066417Y0094949D01*
X0066667Y0094350D02*
X0070152Y0094350D01*
X0070152Y0093752D02*
X0066912Y0093752D01*
X0067073Y0093153D02*
X0070152Y0093153D01*
X0070152Y0092555D02*
X0067233Y0092555D01*
X0067393Y0091956D02*
X0070152Y0091956D01*
X0070152Y0091358D02*
X0067554Y0091358D01*
X0067555Y0090759D02*
X0070241Y0090759D01*
X0070489Y0090161D02*
X0067555Y0090161D01*
X0067555Y0089562D02*
X0070737Y0089562D01*
X0070984Y0088964D02*
X0067555Y0088964D01*
X0067509Y0088365D02*
X0071275Y0088365D01*
X0071873Y0087767D02*
X0067349Y0087767D01*
X0067188Y0087168D02*
X0072472Y0087168D01*
X0073070Y0086570D02*
X0067028Y0086570D01*
X0066868Y0085971D02*
X0074412Y0085971D01*
X0066571Y0085373D02*
X0087411Y0085373D01*
X0087103Y0085971D02*
X0086778Y0085971D01*
X0088010Y0084774D02*
X0066225Y0084774D01*
X0065879Y0084176D02*
X0088608Y0084176D01*
X0089207Y0083577D02*
X0065534Y0083577D01*
X0065021Y0082979D02*
X0089805Y0082979D01*
X0090844Y0082380D02*
X0064422Y0082380D01*
X0063824Y0081782D02*
X0092289Y0081782D01*
X0090013Y0066656D02*
X0090013Y0045056D01*
X0089413Y0045056D01*
X0089413Y0044456D01*
X0077695Y0044456D01*
X0077695Y0024506D01*
X0077825Y0024023D01*
X0078075Y0023589D01*
X0078428Y0023236D01*
X0078862Y0022985D01*
X0079345Y0022856D01*
X0079845Y0022856D01*
X0089413Y0022856D01*
X0089413Y0044456D01*
X0090013Y0044456D01*
X0090013Y0022856D01*
X0099845Y0022856D01*
X0100329Y0022985D01*
X0100762Y0023236D01*
X0101116Y0023589D01*
X0101366Y0024023D01*
X0101495Y0024506D01*
X0101495Y0044456D01*
X0090013Y0044456D01*
X0090013Y0045056D01*
X0101495Y0045056D01*
X0101495Y0065006D01*
X0101366Y0065489D01*
X0101116Y0065923D01*
X0100762Y0066276D01*
X0100329Y0066526D01*
X0099845Y0066656D01*
X0090013Y0066656D01*
X0090013Y0066220D02*
X0089413Y0066220D01*
X0089413Y0066656D02*
X0079345Y0066656D01*
X0078862Y0066526D01*
X0078428Y0066276D01*
X0078075Y0065923D01*
X0077825Y0065489D01*
X0077695Y0065006D01*
X0077695Y0045056D01*
X0089413Y0045056D01*
X0089413Y0066656D01*
X0089413Y0065622D02*
X0090013Y0065622D01*
X0090013Y0065023D02*
X0089413Y0065023D01*
X0089413Y0064425D02*
X0090013Y0064425D01*
X0090013Y0063826D02*
X0089413Y0063826D01*
X0089413Y0063228D02*
X0090013Y0063228D01*
X0090013Y0062629D02*
X0089413Y0062629D01*
X0089413Y0062031D02*
X0090013Y0062031D01*
X0090013Y0061432D02*
X0089413Y0061432D01*
X0089413Y0060834D02*
X0090013Y0060834D01*
X0090013Y0060235D02*
X0089413Y0060235D01*
X0089413Y0059637D02*
X0090013Y0059637D01*
X0090013Y0059038D02*
X0089413Y0059038D01*
X0089413Y0058440D02*
X0090013Y0058440D01*
X0090013Y0057841D02*
X0089413Y0057841D01*
X0089413Y0057243D02*
X0090013Y0057243D01*
X0090013Y0056644D02*
X0089413Y0056644D01*
X0089413Y0056046D02*
X0090013Y0056046D01*
X0090013Y0055447D02*
X0089413Y0055447D01*
X0089413Y0054849D02*
X0090013Y0054849D01*
X0090013Y0054250D02*
X0089413Y0054250D01*
X0089413Y0053652D02*
X0090013Y0053652D01*
X0090013Y0053053D02*
X0089413Y0053053D01*
X0089413Y0052455D02*
X0090013Y0052455D01*
X0090013Y0051856D02*
X0089413Y0051856D01*
X0089413Y0051258D02*
X0090013Y0051258D01*
X0090013Y0050659D02*
X0089413Y0050659D01*
X0089413Y0050061D02*
X0090013Y0050061D01*
X0090013Y0049462D02*
X0089413Y0049462D01*
X0089413Y0048864D02*
X0090013Y0048864D01*
X0090013Y0048265D02*
X0089413Y0048265D01*
X0089413Y0047667D02*
X0090013Y0047667D01*
X0090013Y0047068D02*
X0089413Y0047068D01*
X0089413Y0046470D02*
X0090013Y0046470D01*
X0090013Y0045871D02*
X0089413Y0045871D01*
X0089413Y0045273D02*
X0090013Y0045273D01*
X0090013Y0044674D02*
X0110595Y0044674D01*
X0110595Y0044076D02*
X0101495Y0044076D01*
X0101495Y0043477D02*
X0110595Y0043477D01*
X0110595Y0042878D02*
X0101495Y0042878D01*
X0101495Y0042280D02*
X0110595Y0042280D01*
X0110595Y0041681D02*
X0101495Y0041681D01*
X0101495Y0041083D02*
X0110595Y0041083D01*
X0110595Y0040484D02*
X0101495Y0040484D01*
X0101495Y0039886D02*
X0110595Y0039886D01*
X0110595Y0039287D02*
X0101495Y0039287D01*
X0101495Y0038689D02*
X0110595Y0038689D01*
X0110595Y0038090D02*
X0101495Y0038090D01*
X0101495Y0037492D02*
X0110595Y0037492D01*
X0110595Y0036893D02*
X0101495Y0036893D01*
X0101495Y0036295D02*
X0110595Y0036295D01*
X0110595Y0035696D02*
X0101495Y0035696D01*
X0101495Y0035098D02*
X0110595Y0035098D01*
X0110595Y0034499D02*
X0101495Y0034499D01*
X0101495Y0033901D02*
X0110595Y0033901D01*
X0110595Y0033302D02*
X0101495Y0033302D01*
X0101495Y0032704D02*
X0110595Y0032704D01*
X0110595Y0032105D02*
X0101495Y0032105D01*
X0101495Y0031507D02*
X0110595Y0031507D01*
X0110595Y0030908D02*
X0101495Y0030908D01*
X0101495Y0030310D02*
X0110595Y0030310D01*
X0110595Y0029711D02*
X0101495Y0029711D01*
X0101495Y0029113D02*
X0110595Y0029113D01*
X0110595Y0028514D02*
X0101495Y0028514D01*
X0101495Y0027916D02*
X0110595Y0027916D01*
X0110595Y0027317D02*
X0101495Y0027317D01*
X0101495Y0026719D02*
X0110595Y0026719D01*
X0110595Y0026120D02*
X0101495Y0026120D01*
X0101495Y0025522D02*
X0110595Y0025522D01*
X0110595Y0024923D02*
X0101495Y0024923D01*
X0101447Y0024325D02*
X0110595Y0024325D01*
X0110595Y0023726D02*
X0101195Y0023726D01*
X0100575Y0023128D02*
X0110595Y0023128D01*
X0110595Y0022529D02*
X0071791Y0022529D01*
X0072039Y0023128D02*
X0078615Y0023128D01*
X0077996Y0023726D02*
X0072095Y0023726D01*
X0072095Y0024325D02*
X0077744Y0024325D01*
X0077695Y0024923D02*
X0072095Y0024923D01*
X0072095Y0025522D02*
X0077695Y0025522D01*
X0077695Y0026120D02*
X0072095Y0026120D01*
X0072095Y0026719D02*
X0077695Y0026719D01*
X0077695Y0027317D02*
X0072095Y0027317D01*
X0072095Y0027916D02*
X0077695Y0027916D01*
X0077695Y0028514D02*
X0072095Y0028514D01*
X0072095Y0029113D02*
X0077695Y0029113D01*
X0077695Y0029711D02*
X0072095Y0029711D01*
X0072095Y0030310D02*
X0077695Y0030310D01*
X0077695Y0030908D02*
X0072095Y0030908D01*
X0072095Y0031507D02*
X0077695Y0031507D01*
X0077695Y0032105D02*
X0072095Y0032105D01*
X0072095Y0032704D02*
X0077695Y0032704D01*
X0077695Y0033302D02*
X0072095Y0033302D01*
X0072095Y0033901D02*
X0077695Y0033901D01*
X0077695Y0034499D02*
X0072095Y0034499D01*
X0072095Y0035098D02*
X0077695Y0035098D01*
X0077695Y0035696D02*
X0072095Y0035696D01*
X0072095Y0036295D02*
X0077695Y0036295D01*
X0077695Y0036893D02*
X0072095Y0036893D01*
X0072095Y0037492D02*
X0077695Y0037492D01*
X0077695Y0038090D02*
X0072095Y0038090D01*
X0072095Y0038689D02*
X0077695Y0038689D01*
X0077695Y0039287D02*
X0072095Y0039287D01*
X0072095Y0039886D02*
X0077695Y0039886D01*
X0077695Y0040484D02*
X0072095Y0040484D01*
X0072095Y0041083D02*
X0077695Y0041083D01*
X0077695Y0041681D02*
X0072095Y0041681D01*
X0072095Y0042280D02*
X0077695Y0042280D01*
X0077695Y0042878D02*
X0072095Y0042878D01*
X0072095Y0043477D02*
X0077695Y0043477D01*
X0077695Y0044076D02*
X0072095Y0044076D01*
X0072095Y0044674D02*
X0089413Y0044674D01*
X0089413Y0044076D02*
X0090013Y0044076D01*
X0090013Y0043477D02*
X0089413Y0043477D01*
X0089413Y0042878D02*
X0090013Y0042878D01*
X0090013Y0042280D02*
X0089413Y0042280D01*
X0089413Y0041681D02*
X0090013Y0041681D01*
X0090013Y0041083D02*
X0089413Y0041083D01*
X0089413Y0040484D02*
X0090013Y0040484D01*
X0090013Y0039886D02*
X0089413Y0039886D01*
X0089413Y0039287D02*
X0090013Y0039287D01*
X0090013Y0038689D02*
X0089413Y0038689D01*
X0089413Y0038090D02*
X0090013Y0038090D01*
X0090013Y0037492D02*
X0089413Y0037492D01*
X0089413Y0036893D02*
X0090013Y0036893D01*
X0090013Y0036295D02*
X0089413Y0036295D01*
X0089413Y0035696D02*
X0090013Y0035696D01*
X0090013Y0035098D02*
X0089413Y0035098D01*
X0089413Y0034499D02*
X0090013Y0034499D01*
X0090013Y0033901D02*
X0089413Y0033901D01*
X0089413Y0033302D02*
X0090013Y0033302D01*
X0090013Y0032704D02*
X0089413Y0032704D01*
X0089413Y0032105D02*
X0090013Y0032105D01*
X0090013Y0031507D02*
X0089413Y0031507D01*
X0089413Y0030908D02*
X0090013Y0030908D01*
X0090013Y0030310D02*
X0089413Y0030310D01*
X0089413Y0029711D02*
X0090013Y0029711D01*
X0090013Y0029113D02*
X0089413Y0029113D01*
X0089413Y0028514D02*
X0090013Y0028514D01*
X0090013Y0027916D02*
X0089413Y0027916D01*
X0089413Y0027317D02*
X0090013Y0027317D01*
X0090013Y0026719D02*
X0089413Y0026719D01*
X0089413Y0026120D02*
X0090013Y0026120D01*
X0090013Y0025522D02*
X0089413Y0025522D01*
X0089413Y0024923D02*
X0090013Y0024923D01*
X0090013Y0024325D02*
X0089413Y0024325D01*
X0089413Y0023726D02*
X0090013Y0023726D01*
X0090013Y0023128D02*
X0089413Y0023128D01*
X0077695Y0045273D02*
X0072095Y0045273D01*
X0072095Y0045871D02*
X0077695Y0045871D01*
X0077695Y0046470D02*
X0072095Y0046470D01*
X0072095Y0047068D02*
X0077695Y0047068D01*
X0077695Y0047667D02*
X0072095Y0047667D01*
X0072095Y0048265D02*
X0077695Y0048265D01*
X0077695Y0048864D02*
X0072095Y0048864D01*
X0072095Y0049462D02*
X0077695Y0049462D01*
X0077695Y0050061D02*
X0072095Y0050061D01*
X0072095Y0050659D02*
X0077695Y0050659D01*
X0077695Y0051258D02*
X0072095Y0051258D01*
X0072095Y0051856D02*
X0077695Y0051856D01*
X0077695Y0052455D02*
X0072095Y0052455D01*
X0072095Y0053053D02*
X0077695Y0053053D01*
X0077695Y0053652D02*
X0072095Y0053652D01*
X0072095Y0054250D02*
X0077695Y0054250D01*
X0077695Y0054849D02*
X0072095Y0054849D01*
X0072095Y0055447D02*
X0077695Y0055447D01*
X0077695Y0056046D02*
X0072095Y0056046D01*
X0072095Y0056644D02*
X0077695Y0056644D01*
X0077695Y0057243D02*
X0072095Y0057243D01*
X0072095Y0057841D02*
X0077695Y0057841D01*
X0077695Y0058440D02*
X0072095Y0058440D01*
X0072095Y0059038D02*
X0077695Y0059038D01*
X0077695Y0059637D02*
X0072095Y0059637D01*
X0072095Y0060235D02*
X0077695Y0060235D01*
X0077695Y0060834D02*
X0072095Y0060834D01*
X0072095Y0061432D02*
X0077695Y0061432D01*
X0077695Y0062031D02*
X0072095Y0062031D01*
X0072095Y0062629D02*
X0077695Y0062629D01*
X0077695Y0063228D02*
X0072095Y0063228D01*
X0072095Y0063826D02*
X0077695Y0063826D01*
X0077695Y0064425D02*
X0072095Y0064425D01*
X0072095Y0065023D02*
X0077700Y0065023D01*
X0077901Y0065622D02*
X0072095Y0065622D01*
X0072095Y0066220D02*
X0078373Y0066220D01*
X0071859Y0066819D02*
X0116052Y0066819D01*
X0116650Y0067417D02*
X0071611Y0067417D01*
X0071363Y0068016D02*
X0117249Y0068016D01*
X0117847Y0068614D02*
X0071115Y0068614D01*
X0070745Y0069213D02*
X0118446Y0069213D01*
X0119323Y0069812D02*
X0070146Y0069812D01*
X0069548Y0070410D02*
X0119995Y0070410D01*
X0119995Y0071009D02*
X0068949Y0071009D01*
X0067653Y0071607D02*
X0119995Y0071607D01*
X0119995Y0072206D02*
X0066209Y0072206D01*
X0062043Y0080585D02*
X0121121Y0080585D01*
X0120873Y0079986D02*
X0061006Y0079986D01*
X0058797Y0079388D02*
X0120625Y0079388D01*
X0120377Y0078789D02*
X0048517Y0078789D01*
X0049116Y0078191D02*
X0120129Y0078191D01*
X0119995Y0077592D02*
X0049714Y0077592D01*
X0050313Y0076994D02*
X0119995Y0076994D01*
X0119995Y0076395D02*
X0050911Y0076395D01*
X0051510Y0075797D02*
X0119995Y0075797D01*
X0119995Y0075198D02*
X0052108Y0075198D01*
X0052707Y0074600D02*
X0119995Y0074600D01*
X0119995Y0074001D02*
X0053305Y0074001D01*
X0053904Y0073403D02*
X0119995Y0073403D01*
X0119995Y0072804D02*
X0054502Y0072804D01*
X0054913Y0079388D02*
X0047918Y0079388D01*
X0048014Y0079986D02*
X0052704Y0079986D01*
X0051667Y0080585D02*
X0049051Y0080585D01*
X0050087Y0081183D02*
X0050631Y0081183D01*
X0063079Y0081183D02*
X0121567Y0081183D01*
X0117889Y0081782D02*
X0105112Y0081782D01*
X0106557Y0082380D02*
X0116444Y0082380D01*
X0115405Y0082979D02*
X0107596Y0082979D01*
X0100818Y0066220D02*
X0115453Y0066220D01*
X0114855Y0065622D02*
X0101289Y0065622D01*
X0101490Y0065023D02*
X0114256Y0065023D01*
X0113658Y0064425D02*
X0101495Y0064425D01*
X0101495Y0063826D02*
X0113059Y0063826D01*
X0112461Y0063228D02*
X0101495Y0063228D01*
X0101495Y0062629D02*
X0111862Y0062629D01*
X0111541Y0062031D02*
X0101495Y0062031D01*
X0101495Y0061432D02*
X0111293Y0061432D01*
X0111045Y0060834D02*
X0101495Y0060834D01*
X0101495Y0060235D02*
X0110797Y0060235D01*
X0110595Y0059637D02*
X0101495Y0059637D01*
X0101495Y0059038D02*
X0110595Y0059038D01*
X0110595Y0058440D02*
X0101495Y0058440D01*
X0101495Y0057841D02*
X0110595Y0057841D01*
X0110595Y0057243D02*
X0101495Y0057243D01*
X0101495Y0056644D02*
X0110595Y0056644D01*
X0110595Y0056046D02*
X0101495Y0056046D01*
X0101495Y0055447D02*
X0110595Y0055447D01*
X0110595Y0054849D02*
X0101495Y0054849D01*
X0101495Y0054250D02*
X0110595Y0054250D01*
X0110595Y0053652D02*
X0101495Y0053652D01*
X0101495Y0053053D02*
X0110595Y0053053D01*
X0110595Y0052455D02*
X0101495Y0052455D01*
X0101495Y0051856D02*
X0110595Y0051856D01*
X0110595Y0051258D02*
X0101495Y0051258D01*
X0101495Y0050659D02*
X0110595Y0050659D01*
X0110595Y0050061D02*
X0101495Y0050061D01*
X0101495Y0049462D02*
X0110595Y0049462D01*
X0110595Y0048864D02*
X0101495Y0048864D01*
X0101495Y0048265D02*
X0110595Y0048265D01*
X0110595Y0047667D02*
X0101495Y0047667D01*
X0101495Y0047068D02*
X0110595Y0047068D01*
X0110595Y0046470D02*
X0101495Y0046470D01*
X0101495Y0045871D02*
X0110595Y0045871D01*
X0110595Y0045273D02*
X0101495Y0045273D01*
X0110595Y0021931D02*
X0071543Y0021931D01*
X0071295Y0021332D02*
X0110774Y0021332D01*
X0111022Y0020734D02*
X0071047Y0020734D01*
X0070581Y0020135D02*
X0111270Y0020135D01*
X0111518Y0019537D02*
X0069982Y0019537D01*
X0069384Y0018938D02*
X0111806Y0018938D01*
X0144384Y0018938D02*
X0187175Y0018938D01*
X0187175Y0019537D02*
X0144672Y0019537D01*
X0144920Y0020135D02*
X0187175Y0020135D01*
X0187175Y0020734D02*
X0145168Y0020734D01*
X0167605Y0081183D02*
X0175948Y0081183D01*
X0173943Y0081782D02*
X0169609Y0081782D01*
X0170646Y0082380D02*
X0172907Y0082380D01*
X0171870Y0082979D02*
X0171682Y0082979D01*
X0180597Y0081183D02*
X0187175Y0081183D01*
X0187175Y0081782D02*
X0182601Y0081782D01*
X0183638Y0082380D02*
X0187175Y0082380D01*
X0187175Y0082979D02*
X0184674Y0082979D01*
X0185344Y0083577D02*
X0187175Y0083577D01*
X0187175Y0084176D02*
X0185942Y0084176D01*
X0186541Y0084774D02*
X0187175Y0084774D01*
X0187175Y0085373D02*
X0187010Y0085373D01*
X0187175Y0117302D02*
X0186834Y0117893D01*
X0184842Y0119885D01*
X0182402Y0121294D01*
X0179681Y0122023D01*
X0176864Y0122023D01*
X0174142Y0121294D01*
X0173380Y0120854D01*
X0173380Y0129389D01*
X0173492Y0129501D01*
X0174542Y0132037D01*
X0174542Y0132109D01*
X0175216Y0132109D01*
X0175216Y0136653D01*
X0175816Y0136653D01*
X0175816Y0132109D01*
X0178837Y0132109D01*
X0179168Y0132198D01*
X0179464Y0132369D01*
X0179706Y0132611D01*
X0179877Y0132908D01*
X0179966Y0133238D01*
X0179966Y0136653D01*
X0175816Y0136653D01*
X0175816Y0137253D01*
X0175216Y0137253D01*
X0175216Y0141796D01*
X0174542Y0141796D01*
X0174542Y0141869D01*
X0173492Y0144405D01*
X0171551Y0146346D01*
X0170707Y0146695D01*
X0177922Y0153911D01*
X0179125Y0156814D01*
X0179125Y0167125D01*
X0179833Y0167418D01*
X0182618Y0170203D01*
X0184125Y0173842D01*
X0184125Y0177539D01*
X0187175Y0180589D01*
X0187175Y0117302D01*
X0187175Y0117692D02*
X0186950Y0117692D01*
X0187175Y0118291D02*
X0186436Y0118291D01*
X0185838Y0118889D02*
X0187175Y0118889D01*
X0187175Y0119488D02*
X0185239Y0119488D01*
X0184493Y0120086D02*
X0187175Y0120086D01*
X0187175Y0120685D02*
X0183457Y0120685D01*
X0182420Y0121283D02*
X0187175Y0121283D01*
X0187175Y0121882D02*
X0180207Y0121882D01*
X0176338Y0121882D02*
X0173380Y0121882D01*
X0173380Y0122480D02*
X0187175Y0122480D01*
X0187175Y0123079D02*
X0173380Y0123079D01*
X0173380Y0123678D02*
X0187175Y0123678D01*
X0187175Y0124276D02*
X0173380Y0124276D01*
X0173380Y0124875D02*
X0187175Y0124875D01*
X0187175Y0125473D02*
X0173380Y0125473D01*
X0173380Y0126072D02*
X0187175Y0126072D01*
X0187175Y0126670D02*
X0173380Y0126670D01*
X0173380Y0127269D02*
X0187175Y0127269D01*
X0187175Y0127867D02*
X0173380Y0127867D01*
X0173380Y0128466D02*
X0187175Y0128466D01*
X0187175Y0129064D02*
X0173380Y0129064D01*
X0173559Y0129663D02*
X0187175Y0129663D01*
X0187175Y0130261D02*
X0173807Y0130261D01*
X0174055Y0130860D02*
X0187175Y0130860D01*
X0187175Y0131458D02*
X0174303Y0131458D01*
X0174542Y0132057D02*
X0187175Y0132057D01*
X0187175Y0132655D02*
X0179732Y0132655D01*
X0179966Y0133254D02*
X0187175Y0133254D01*
X0187175Y0133852D02*
X0179966Y0133852D01*
X0179966Y0134451D02*
X0187175Y0134451D01*
X0187175Y0135049D02*
X0179966Y0135049D01*
X0179966Y0135648D02*
X0187175Y0135648D01*
X0187175Y0136246D02*
X0179966Y0136246D01*
X0179966Y0137253D02*
X0179966Y0140667D01*
X0179877Y0140998D01*
X0179706Y0141294D01*
X0179464Y0141536D01*
X0179168Y0141707D01*
X0178837Y0141796D01*
X0175816Y0141796D01*
X0175816Y0137253D01*
X0179966Y0137253D01*
X0179966Y0137443D02*
X0187175Y0137443D01*
X0187175Y0136845D02*
X0175816Y0136845D01*
X0175816Y0137443D02*
X0175216Y0137443D01*
X0175216Y0138042D02*
X0175816Y0138042D01*
X0175816Y0138640D02*
X0175216Y0138640D01*
X0175216Y0139239D02*
X0175816Y0139239D01*
X0175816Y0139837D02*
X0175216Y0139837D01*
X0175216Y0140436D02*
X0175816Y0140436D01*
X0175816Y0141034D02*
X0175216Y0141034D01*
X0175216Y0141633D02*
X0175816Y0141633D01*
X0174392Y0142231D02*
X0187175Y0142231D01*
X0187175Y0141633D02*
X0179297Y0141633D01*
X0179856Y0141034D02*
X0187175Y0141034D01*
X0187175Y0140436D02*
X0179966Y0140436D01*
X0179966Y0139837D02*
X0187175Y0139837D01*
X0187175Y0139239D02*
X0179966Y0139239D01*
X0179966Y0138640D02*
X0187175Y0138640D01*
X0187175Y0138042D02*
X0179966Y0138042D01*
X0175816Y0136246D02*
X0175216Y0136246D01*
X0175216Y0135648D02*
X0175816Y0135648D01*
X0175816Y0135049D02*
X0175216Y0135049D01*
X0175216Y0134451D02*
X0175816Y0134451D01*
X0175816Y0133852D02*
X0175216Y0133852D01*
X0175216Y0133254D02*
X0175816Y0133254D01*
X0175816Y0132655D02*
X0175216Y0132655D01*
X0174144Y0142830D02*
X0187175Y0142830D01*
X0187175Y0143428D02*
X0173896Y0143428D01*
X0173648Y0144027D02*
X0187175Y0144027D01*
X0187175Y0144625D02*
X0173271Y0144625D01*
X0172673Y0145224D02*
X0187175Y0145224D01*
X0187175Y0145822D02*
X0172074Y0145822D01*
X0171369Y0146421D02*
X0187175Y0146421D01*
X0187175Y0147019D02*
X0171031Y0147019D01*
X0171629Y0147618D02*
X0187175Y0147618D01*
X0187175Y0148216D02*
X0172228Y0148216D01*
X0172827Y0148815D02*
X0187175Y0148815D01*
X0187175Y0149414D02*
X0173425Y0149414D01*
X0174024Y0150012D02*
X0187175Y0150012D01*
X0187175Y0150611D02*
X0174622Y0150611D01*
X0175221Y0151209D02*
X0187175Y0151209D01*
X0187175Y0151808D02*
X0175819Y0151808D01*
X0176418Y0152406D02*
X0187175Y0152406D01*
X0187175Y0153005D02*
X0177016Y0153005D01*
X0177615Y0153603D02*
X0187175Y0153603D01*
X0187175Y0154202D02*
X0178043Y0154202D01*
X0178291Y0154800D02*
X0187175Y0154800D01*
X0187175Y0155399D02*
X0178539Y0155399D01*
X0178787Y0155997D02*
X0187175Y0155997D01*
X0187175Y0156596D02*
X0179034Y0156596D01*
X0179125Y0157194D02*
X0187175Y0157194D01*
X0187175Y0157793D02*
X0179125Y0157793D01*
X0179125Y0158391D02*
X0187175Y0158391D01*
X0187175Y0158990D02*
X0179125Y0158990D01*
X0179125Y0159588D02*
X0187175Y0159588D01*
X0187175Y0160187D02*
X0179125Y0160187D01*
X0179125Y0160785D02*
X0187175Y0160785D01*
X0187175Y0161384D02*
X0179125Y0161384D01*
X0179125Y0161982D02*
X0187175Y0161982D01*
X0187175Y0162581D02*
X0179125Y0162581D01*
X0179125Y0163179D02*
X0187175Y0163179D01*
X0187175Y0163778D02*
X0179125Y0163778D01*
X0179125Y0164376D02*
X0187175Y0164376D01*
X0187175Y0164975D02*
X0179125Y0164975D01*
X0179125Y0165573D02*
X0187175Y0165573D01*
X0187175Y0166172D02*
X0179125Y0166172D01*
X0179125Y0166770D02*
X0187175Y0166770D01*
X0187175Y0167369D02*
X0179714Y0167369D01*
X0180382Y0167967D02*
X0187175Y0167967D01*
X0187175Y0168566D02*
X0180981Y0168566D01*
X0181579Y0169164D02*
X0187175Y0169164D01*
X0187175Y0169763D02*
X0182178Y0169763D01*
X0182683Y0170361D02*
X0187175Y0170361D01*
X0187175Y0170960D02*
X0182931Y0170960D01*
X0183179Y0171558D02*
X0187175Y0171558D01*
X0187175Y0172157D02*
X0183427Y0172157D01*
X0183675Y0172755D02*
X0187175Y0172755D01*
X0187175Y0173354D02*
X0183923Y0173354D01*
X0184125Y0173952D02*
X0187175Y0173952D01*
X0187175Y0174551D02*
X0184125Y0174551D01*
X0184125Y0175149D02*
X0187175Y0175149D01*
X0187175Y0175748D02*
X0184125Y0175748D01*
X0184125Y0176347D02*
X0187175Y0176347D01*
X0187175Y0176945D02*
X0184125Y0176945D01*
X0184130Y0177544D02*
X0187175Y0177544D01*
X0187175Y0178142D02*
X0184728Y0178142D01*
X0185327Y0178741D02*
X0187175Y0178741D01*
X0187175Y0179339D02*
X0185925Y0179339D01*
X0186524Y0179938D02*
X0187175Y0179938D01*
X0187175Y0180536D02*
X0187122Y0180536D01*
X0163325Y0167125D02*
X0163325Y0161658D01*
X0160096Y0158429D01*
X0159232Y0160513D01*
X0156447Y0163298D01*
X0155029Y0163886D01*
X0155033Y0163899D01*
X0155139Y0164567D01*
X0155139Y0164606D01*
X0153291Y0164606D01*
X0152808Y0164805D01*
X0148546Y0164805D01*
X0148146Y0165205D01*
X0155139Y0165205D01*
X0155139Y0165244D01*
X0155033Y0165912D01*
X0154824Y0166556D01*
X0154517Y0167159D01*
X0154119Y0167707D01*
X0153640Y0168185D01*
X0153093Y0168583D01*
X0152490Y0168890D01*
X0151846Y0169100D01*
X0151178Y0169205D01*
X0148139Y0169205D01*
X0148139Y0165212D01*
X0147539Y0165812D01*
X0147539Y0169205D01*
X0146095Y0169205D01*
X0146095Y0188748D01*
X0144953Y0191504D01*
X0142844Y0193614D01*
X0142101Y0194357D01*
X0142101Y0204486D01*
X0141251Y0206537D01*
X0149724Y0206537D01*
X0149404Y0206404D01*
X0147463Y0204463D01*
X0146412Y0201927D01*
X0146412Y0177529D01*
X0147463Y0174993D01*
X0149404Y0173052D01*
X0151940Y0172002D01*
X0159087Y0172002D01*
X0159832Y0170203D01*
X0162617Y0167418D01*
X0163325Y0167125D01*
X0163325Y0166770D02*
X0154715Y0166770D01*
X0154949Y0166172D02*
X0163325Y0166172D01*
X0163325Y0165573D02*
X0155087Y0165573D01*
X0155109Y0164376D02*
X0163325Y0164376D01*
X0163325Y0163778D02*
X0155290Y0163778D01*
X0156566Y0163179D02*
X0163325Y0163179D01*
X0163325Y0162581D02*
X0157165Y0162581D01*
X0157763Y0161982D02*
X0163325Y0161982D01*
X0163051Y0161384D02*
X0158362Y0161384D01*
X0158960Y0160785D02*
X0162452Y0160785D01*
X0161854Y0160187D02*
X0159367Y0160187D01*
X0159615Y0159588D02*
X0161255Y0159588D01*
X0160657Y0158990D02*
X0159863Y0158990D01*
X0163325Y0164975D02*
X0148377Y0164975D01*
X0148139Y0165573D02*
X0147778Y0165573D01*
X0147539Y0166172D02*
X0148139Y0166172D01*
X0148139Y0166770D02*
X0147539Y0166770D01*
X0147539Y0167369D02*
X0148139Y0167369D01*
X0148139Y0167967D02*
X0147539Y0167967D01*
X0147539Y0168566D02*
X0148139Y0168566D01*
X0148139Y0169164D02*
X0147539Y0169164D01*
X0146095Y0169763D02*
X0160272Y0169763D01*
X0159767Y0170361D02*
X0146095Y0170361D01*
X0146095Y0170960D02*
X0159519Y0170960D01*
X0159271Y0171558D02*
X0146095Y0171558D01*
X0146095Y0172157D02*
X0151565Y0172157D01*
X0150120Y0172755D02*
X0146095Y0172755D01*
X0146095Y0173354D02*
X0149102Y0173354D01*
X0148503Y0173952D02*
X0146095Y0173952D01*
X0146095Y0174551D02*
X0147905Y0174551D01*
X0147398Y0175149D02*
X0146095Y0175149D01*
X0146095Y0175748D02*
X0147150Y0175748D01*
X0146902Y0176347D02*
X0146095Y0176347D01*
X0146095Y0176945D02*
X0146654Y0176945D01*
X0146412Y0177544D02*
X0146095Y0177544D01*
X0146095Y0178142D02*
X0146412Y0178142D01*
X0146412Y0178741D02*
X0146095Y0178741D01*
X0146095Y0179339D02*
X0146412Y0179339D01*
X0146412Y0179938D02*
X0146095Y0179938D01*
X0146095Y0180536D02*
X0146412Y0180536D01*
X0146412Y0181135D02*
X0146095Y0181135D01*
X0146095Y0181733D02*
X0146412Y0181733D01*
X0146412Y0182332D02*
X0146095Y0182332D01*
X0146095Y0182930D02*
X0146412Y0182930D01*
X0146412Y0183529D02*
X0146095Y0183529D01*
X0146095Y0184127D02*
X0146412Y0184127D01*
X0146412Y0184726D02*
X0146095Y0184726D01*
X0146095Y0185324D02*
X0146412Y0185324D01*
X0146412Y0185923D02*
X0146095Y0185923D01*
X0146095Y0186521D02*
X0146412Y0186521D01*
X0146412Y0187120D02*
X0146095Y0187120D01*
X0146095Y0187718D02*
X0146412Y0187718D01*
X0146412Y0188317D02*
X0146095Y0188317D01*
X0146026Y0188915D02*
X0146412Y0188915D01*
X0146412Y0189514D02*
X0145778Y0189514D01*
X0145530Y0190112D02*
X0146412Y0190112D01*
X0146412Y0190711D02*
X0145282Y0190711D01*
X0145034Y0191309D02*
X0146412Y0191309D01*
X0146412Y0191908D02*
X0144550Y0191908D01*
X0143951Y0192506D02*
X0146412Y0192506D01*
X0146412Y0193105D02*
X0143353Y0193105D01*
X0142754Y0193703D02*
X0146412Y0193703D01*
X0146412Y0194302D02*
X0142156Y0194302D01*
X0142101Y0194900D02*
X0146412Y0194900D01*
X0146412Y0195499D02*
X0142101Y0195499D01*
X0142101Y0196097D02*
X0146412Y0196097D01*
X0146412Y0196696D02*
X0142101Y0196696D01*
X0142101Y0197294D02*
X0146412Y0197294D01*
X0146412Y0197893D02*
X0142101Y0197893D01*
X0142101Y0198491D02*
X0146412Y0198491D01*
X0146412Y0199090D02*
X0142101Y0199090D01*
X0142101Y0199688D02*
X0146412Y0199688D01*
X0146412Y0200287D02*
X0142101Y0200287D01*
X0142101Y0200885D02*
X0146412Y0200885D01*
X0146412Y0201484D02*
X0142101Y0201484D01*
X0142101Y0202083D02*
X0146476Y0202083D01*
X0146724Y0202681D02*
X0142101Y0202681D01*
X0142101Y0203280D02*
X0146972Y0203280D01*
X0147220Y0203878D02*
X0142101Y0203878D01*
X0142101Y0204477D02*
X0147476Y0204477D01*
X0148074Y0205075D02*
X0141857Y0205075D01*
X0141609Y0205674D02*
X0148673Y0205674D01*
X0149271Y0206272D02*
X0141361Y0206272D01*
X0140197Y0222337D02*
X0139098Y0223436D01*
X0136562Y0224487D01*
X0136490Y0224487D01*
X0136490Y0225161D01*
X0131946Y0225161D01*
X0131946Y0225761D01*
X0136490Y0225761D01*
X0136490Y0227973D01*
X0137342Y0227973D01*
X0140570Y0229310D01*
X0143041Y0231781D01*
X0144378Y0235009D01*
X0144378Y0238503D01*
X0143095Y0241600D01*
X0143095Y0245649D01*
X0155202Y0257756D01*
X0156992Y0257756D01*
X0159749Y0258898D01*
X0161566Y0260715D01*
X0161795Y0260620D01*
X0165734Y0260620D01*
X0168764Y0261875D01*
X0171795Y0260620D01*
X0175175Y0260620D01*
X0175175Y0222337D01*
X0140197Y0222337D01*
X0140102Y0222432D02*
X0175175Y0222432D01*
X0175175Y0223030D02*
X0139504Y0223030D01*
X0138633Y0223629D02*
X0175175Y0223629D01*
X0175175Y0224227D02*
X0137188Y0224227D01*
X0136490Y0224826D02*
X0175175Y0224826D01*
X0175175Y0225424D02*
X0131946Y0225424D01*
X0136490Y0226023D02*
X0175175Y0226023D01*
X0175175Y0226621D02*
X0136490Y0226621D01*
X0136490Y0227220D02*
X0175175Y0227220D01*
X0175175Y0227818D02*
X0136490Y0227818D01*
X0138413Y0228417D02*
X0175175Y0228417D01*
X0175175Y0229016D02*
X0139858Y0229016D01*
X0140874Y0229614D02*
X0175175Y0229614D01*
X0175175Y0230213D02*
X0141472Y0230213D01*
X0142071Y0230811D02*
X0175175Y0230811D01*
X0175175Y0231410D02*
X0142669Y0231410D01*
X0143135Y0232008D02*
X0175175Y0232008D01*
X0175175Y0232607D02*
X0143383Y0232607D01*
X0143631Y0233205D02*
X0175175Y0233205D01*
X0175175Y0233804D02*
X0143879Y0233804D01*
X0144126Y0234402D02*
X0175175Y0234402D01*
X0175175Y0235001D02*
X0144374Y0235001D01*
X0144378Y0235599D02*
X0175175Y0235599D01*
X0175175Y0236198D02*
X0144378Y0236198D01*
X0144378Y0236796D02*
X0175175Y0236796D01*
X0175175Y0237395D02*
X0144378Y0237395D01*
X0144378Y0237993D02*
X0175175Y0237993D01*
X0175175Y0238592D02*
X0144341Y0238592D01*
X0144093Y0239190D02*
X0175175Y0239190D01*
X0175175Y0239789D02*
X0143845Y0239789D01*
X0143597Y0240387D02*
X0175175Y0240387D01*
X0175175Y0240986D02*
X0143349Y0240986D01*
X0143101Y0241584D02*
X0175175Y0241584D01*
X0175175Y0242183D02*
X0143095Y0242183D01*
X0143095Y0242781D02*
X0175175Y0242781D01*
X0175175Y0243380D02*
X0143095Y0243380D01*
X0143095Y0243978D02*
X0175175Y0243978D01*
X0175175Y0244577D02*
X0143095Y0244577D01*
X0143095Y0245175D02*
X0175175Y0245175D01*
X0175175Y0245774D02*
X0143220Y0245774D01*
X0143818Y0246372D02*
X0175175Y0246372D01*
X0175175Y0246971D02*
X0144417Y0246971D01*
X0145015Y0247569D02*
X0175175Y0247569D01*
X0175175Y0248168D02*
X0145614Y0248168D01*
X0146212Y0248766D02*
X0175175Y0248766D01*
X0175175Y0249365D02*
X0146811Y0249365D01*
X0147409Y0249963D02*
X0175175Y0249963D01*
X0175175Y0250562D02*
X0148008Y0250562D01*
X0148606Y0251160D02*
X0175175Y0251160D01*
X0175175Y0251759D02*
X0149205Y0251759D01*
X0149803Y0252357D02*
X0175175Y0252357D01*
X0175175Y0252956D02*
X0150402Y0252956D01*
X0151000Y0253554D02*
X0175175Y0253554D01*
X0175175Y0254153D02*
X0151599Y0254153D01*
X0152197Y0254752D02*
X0175175Y0254752D01*
X0175175Y0255350D02*
X0152796Y0255350D01*
X0153394Y0255949D02*
X0175175Y0255949D01*
X0175175Y0256547D02*
X0153993Y0256547D01*
X0154591Y0257146D02*
X0175175Y0257146D01*
X0175175Y0257744D02*
X0155190Y0257744D01*
X0158409Y0258343D02*
X0175175Y0258343D01*
X0175175Y0258941D02*
X0159792Y0258941D01*
X0160391Y0259540D02*
X0175175Y0259540D01*
X0175175Y0260138D02*
X0160989Y0260138D01*
X0166016Y0260737D02*
X0171513Y0260737D01*
X0170068Y0261335D02*
X0167461Y0261335D01*
X0183664Y0278489D02*
X0182157Y0282128D01*
X0179372Y0284912D01*
X0175734Y0286420D01*
X0171795Y0286420D01*
X0168764Y0285164D01*
X0165734Y0286420D01*
X0161795Y0286420D01*
X0158764Y0285164D01*
X0155734Y0286420D01*
X0151795Y0286420D01*
X0148157Y0284912D01*
X0145372Y0282128D01*
X0144784Y0280710D01*
X0144771Y0280714D01*
X0144103Y0280820D01*
X0144064Y0280820D01*
X0144064Y0278972D01*
X0143864Y0278489D01*
X0143864Y0274226D01*
X0143464Y0273826D01*
X0143464Y0280820D01*
X0143426Y0280820D01*
X0142758Y0280714D01*
X0142114Y0280505D01*
X0141511Y0280197D01*
X0140963Y0279800D01*
X0140485Y0279321D01*
X0140087Y0278773D01*
X0139779Y0278170D01*
X0139570Y0277527D01*
X0139464Y0276858D01*
X0139464Y0273820D01*
X0143458Y0273820D01*
X0142858Y0273220D01*
X0139464Y0273220D01*
X0139464Y0270181D01*
X0139513Y0269875D01*
X0120237Y0250599D01*
X0119095Y0247842D01*
X0119095Y0240100D01*
X0117812Y0237003D01*
X0117812Y0235162D01*
X0117587Y0235256D01*
X0117378Y0235256D01*
X0117378Y0238503D01*
X0116041Y0241731D01*
X0113570Y0244201D01*
X0110342Y0245539D01*
X0106848Y0245539D01*
X0103752Y0244256D01*
X0101439Y0244256D01*
X0098342Y0245539D01*
X0096595Y0245539D01*
X0096595Y0255716D01*
X0095453Y0258473D01*
X0085255Y0268671D01*
X0085255Y0272065D01*
X0079456Y0277865D01*
X0075655Y0277865D01*
X0075655Y0278265D01*
X0075255Y0278265D01*
X0075255Y0282065D01*
X0069456Y0287865D01*
X0061254Y0287865D01*
X0058854Y0285465D01*
X0054013Y0285465D01*
X0052011Y0286294D01*
X0051938Y0286294D01*
X0051938Y0286968D01*
X0047395Y0286968D01*
X0047395Y0287568D01*
X0051938Y0287568D01*
X0051938Y0290104D01*
X0187175Y0290104D01*
X0187175Y0272848D01*
X0183664Y0276359D01*
X0183664Y0278489D01*
X0183580Y0278692D02*
X0187175Y0278692D01*
X0187175Y0279290D02*
X0183332Y0279290D01*
X0183084Y0279889D02*
X0187175Y0279889D01*
X0187175Y0280487D02*
X0182837Y0280487D01*
X0182589Y0281086D02*
X0187175Y0281086D01*
X0187175Y0281685D02*
X0182341Y0281685D01*
X0182002Y0282283D02*
X0187175Y0282283D01*
X0187175Y0282882D02*
X0181403Y0282882D01*
X0180805Y0283480D02*
X0187175Y0283480D01*
X0187175Y0284079D02*
X0180206Y0284079D01*
X0179608Y0284677D02*
X0187175Y0284677D01*
X0187175Y0285276D02*
X0178496Y0285276D01*
X0177051Y0285874D02*
X0187175Y0285874D01*
X0187175Y0286473D02*
X0070848Y0286473D01*
X0070249Y0287071D02*
X0187175Y0287071D01*
X0187175Y0287670D02*
X0069651Y0287670D01*
X0071446Y0285874D02*
X0150478Y0285874D01*
X0149033Y0285276D02*
X0072045Y0285276D01*
X0072643Y0284677D02*
X0147921Y0284677D01*
X0147323Y0284079D02*
X0073242Y0284079D01*
X0073840Y0283480D02*
X0146724Y0283480D01*
X0146126Y0282882D02*
X0074439Y0282882D01*
X0075037Y0282283D02*
X0145527Y0282283D01*
X0145188Y0281685D02*
X0077716Y0281685D01*
X0077136Y0282265D02*
X0075655Y0282265D01*
X0075655Y0278265D01*
X0079655Y0278265D01*
X0079655Y0279746D01*
X0077136Y0282265D01*
X0075655Y0281685D02*
X0075255Y0281685D01*
X0075255Y0281086D02*
X0075655Y0281086D01*
X0075655Y0280487D02*
X0075255Y0280487D01*
X0075255Y0279889D02*
X0075655Y0279889D01*
X0075655Y0279290D02*
X0075255Y0279290D01*
X0075255Y0278692D02*
X0075655Y0278692D01*
X0075655Y0278093D02*
X0139754Y0278093D01*
X0139565Y0277495D02*
X0079825Y0277495D01*
X0080424Y0276896D02*
X0139471Y0276896D01*
X0139464Y0276298D02*
X0081022Y0276298D01*
X0081621Y0275699D02*
X0139464Y0275699D01*
X0139464Y0275101D02*
X0082219Y0275101D01*
X0082818Y0274502D02*
X0139464Y0274502D01*
X0139464Y0273904D02*
X0083416Y0273904D01*
X0084015Y0273305D02*
X0142944Y0273305D01*
X0143464Y0273904D02*
X0143542Y0273904D01*
X0143464Y0274502D02*
X0143864Y0274502D01*
X0143864Y0275101D02*
X0143464Y0275101D01*
X0143464Y0275699D02*
X0143864Y0275699D01*
X0143864Y0276298D02*
X0143464Y0276298D01*
X0143464Y0276896D02*
X0143864Y0276896D01*
X0143864Y0277495D02*
X0143464Y0277495D01*
X0143464Y0278093D02*
X0143864Y0278093D01*
X0143949Y0278692D02*
X0143464Y0278692D01*
X0143464Y0279290D02*
X0144064Y0279290D01*
X0144064Y0279889D02*
X0143464Y0279889D01*
X0143464Y0280487D02*
X0144064Y0280487D01*
X0144940Y0281086D02*
X0078315Y0281086D01*
X0078913Y0280487D02*
X0142080Y0280487D01*
X0141086Y0279889D02*
X0079512Y0279889D01*
X0079655Y0279290D02*
X0140462Y0279290D01*
X0140045Y0278692D02*
X0079655Y0278692D01*
X0084613Y0272707D02*
X0139464Y0272707D01*
X0139464Y0272108D02*
X0085212Y0272108D01*
X0085255Y0271510D02*
X0139464Y0271510D01*
X0139464Y0270911D02*
X0085255Y0270911D01*
X0085255Y0270313D02*
X0139464Y0270313D01*
X0139352Y0269714D02*
X0085255Y0269714D01*
X0085255Y0269116D02*
X0138754Y0269116D01*
X0138155Y0268517D02*
X0085409Y0268517D01*
X0086007Y0267919D02*
X0137557Y0267919D01*
X0136958Y0267320D02*
X0086606Y0267320D01*
X0087204Y0266722D02*
X0136360Y0266722D01*
X0135761Y0266123D02*
X0087803Y0266123D01*
X0088401Y0265525D02*
X0135163Y0265525D01*
X0134564Y0264926D02*
X0089000Y0264926D01*
X0089598Y0264328D02*
X0133966Y0264328D01*
X0133367Y0263729D02*
X0090197Y0263729D01*
X0090795Y0263131D02*
X0132769Y0263131D01*
X0132170Y0262532D02*
X0091394Y0262532D01*
X0091992Y0261934D02*
X0131572Y0261934D01*
X0130973Y0261335D02*
X0092591Y0261335D01*
X0093190Y0260737D02*
X0130375Y0260737D01*
X0129776Y0260138D02*
X0093788Y0260138D01*
X0094387Y0259540D02*
X0129178Y0259540D01*
X0128579Y0258941D02*
X0094985Y0258941D01*
X0095507Y0258343D02*
X0127981Y0258343D01*
X0127382Y0257744D02*
X0095755Y0257744D01*
X0096003Y0257146D02*
X0126784Y0257146D01*
X0126185Y0256547D02*
X0096251Y0256547D01*
X0096499Y0255949D02*
X0125587Y0255949D01*
X0124988Y0255350D02*
X0096595Y0255350D01*
X0096595Y0254752D02*
X0124390Y0254752D01*
X0123791Y0254153D02*
X0096595Y0254153D01*
X0096595Y0253554D02*
X0123193Y0253554D01*
X0122594Y0252956D02*
X0096595Y0252956D01*
X0096595Y0252357D02*
X0121996Y0252357D01*
X0121397Y0251759D02*
X0096595Y0251759D01*
X0096595Y0251160D02*
X0120799Y0251160D01*
X0120222Y0250562D02*
X0096595Y0250562D01*
X0096595Y0249963D02*
X0119974Y0249963D01*
X0119726Y0249365D02*
X0096595Y0249365D01*
X0096595Y0248766D02*
X0119478Y0248766D01*
X0119230Y0248168D02*
X0096595Y0248168D01*
X0096595Y0247569D02*
X0119095Y0247569D01*
X0119095Y0246971D02*
X0096595Y0246971D01*
X0096595Y0246372D02*
X0119095Y0246372D01*
X0119095Y0245774D02*
X0096595Y0245774D01*
X0099219Y0245175D02*
X0105971Y0245175D01*
X0104526Y0244577D02*
X0100664Y0244577D01*
X0111219Y0245175D02*
X0119095Y0245175D01*
X0119095Y0244577D02*
X0112664Y0244577D01*
X0113793Y0243978D02*
X0119095Y0243978D01*
X0119095Y0243380D02*
X0114392Y0243380D01*
X0114990Y0242781D02*
X0119095Y0242781D01*
X0119095Y0242183D02*
X0115589Y0242183D01*
X0116101Y0241584D02*
X0119095Y0241584D01*
X0119095Y0240986D02*
X0116349Y0240986D01*
X0116597Y0240387D02*
X0119095Y0240387D01*
X0118966Y0239789D02*
X0116845Y0239789D01*
X0117093Y0239190D02*
X0118718Y0239190D01*
X0118471Y0238592D02*
X0117341Y0238592D01*
X0117378Y0237993D02*
X0118223Y0237993D01*
X0117975Y0237395D02*
X0117378Y0237395D01*
X0117378Y0236796D02*
X0117812Y0236796D01*
X0117812Y0236198D02*
X0117378Y0236198D01*
X0117378Y0235599D02*
X0117812Y0235599D01*
X0077095Y0218065D02*
X0077095Y0217600D01*
X0076239Y0215533D01*
X0076070Y0215701D01*
X0072842Y0217039D01*
X0069348Y0217039D01*
X0066120Y0215701D01*
X0063650Y0213231D01*
X0063574Y0213048D01*
X0063574Y0216943D01*
X0063109Y0218065D01*
X0069456Y0218065D01*
X0070355Y0218964D01*
X0071254Y0218065D01*
X0077095Y0218065D01*
X0077095Y0217644D02*
X0063284Y0217644D01*
X0063532Y0217045D02*
X0076866Y0217045D01*
X0076618Y0216447D02*
X0074271Y0216447D01*
X0075716Y0215848D02*
X0076370Y0215848D01*
X0071077Y0218242D02*
X0069633Y0218242D01*
X0070232Y0218841D02*
X0070478Y0218841D01*
X0067919Y0216447D02*
X0063574Y0216447D01*
X0063574Y0215848D02*
X0066475Y0215848D01*
X0065668Y0215250D02*
X0063574Y0215250D01*
X0063574Y0214651D02*
X0065070Y0214651D01*
X0064471Y0214053D02*
X0063574Y0214053D01*
X0063574Y0213454D02*
X0063873Y0213454D01*
X0053431Y0223745D02*
X0053431Y0227894D01*
X0055455Y0227894D01*
X0055455Y0232065D01*
X0056354Y0232965D01*
X0055455Y0233864D01*
X0055455Y0242065D01*
X0056354Y0242965D01*
X0055455Y0243864D01*
X0055455Y0246195D01*
X0055070Y0245810D01*
X0053095Y0244992D01*
X0053095Y0223745D01*
X0053431Y0223745D01*
X0053431Y0224227D02*
X0053095Y0224227D01*
X0053095Y0224826D02*
X0053431Y0224826D01*
X0053431Y0225424D02*
X0053095Y0225424D01*
X0053095Y0226023D02*
X0053431Y0226023D01*
X0053431Y0226621D02*
X0053095Y0226621D01*
X0053095Y0227220D02*
X0053431Y0227220D01*
X0053431Y0227818D02*
X0053095Y0227818D01*
X0053095Y0228417D02*
X0055455Y0228417D01*
X0055455Y0229016D02*
X0053095Y0229016D01*
X0053095Y0229614D02*
X0055455Y0229614D01*
X0055455Y0230213D02*
X0053095Y0230213D01*
X0053095Y0230811D02*
X0055455Y0230811D01*
X0055455Y0231410D02*
X0053095Y0231410D01*
X0053095Y0232008D02*
X0055455Y0232008D01*
X0055996Y0232607D02*
X0053095Y0232607D01*
X0053095Y0233205D02*
X0056114Y0233205D01*
X0055515Y0233804D02*
X0053095Y0233804D01*
X0053095Y0234402D02*
X0055455Y0234402D01*
X0055455Y0235001D02*
X0053095Y0235001D01*
X0053095Y0235599D02*
X0055455Y0235599D01*
X0055455Y0236198D02*
X0053095Y0236198D01*
X0053095Y0236796D02*
X0055455Y0236796D01*
X0055455Y0237395D02*
X0053095Y0237395D01*
X0053095Y0237993D02*
X0055455Y0237993D01*
X0055455Y0238592D02*
X0053095Y0238592D01*
X0053095Y0239190D02*
X0055455Y0239190D01*
X0055455Y0239789D02*
X0053095Y0239789D01*
X0053095Y0240387D02*
X0055455Y0240387D01*
X0055455Y0240986D02*
X0053095Y0240986D01*
X0053095Y0241584D02*
X0055455Y0241584D01*
X0055572Y0242183D02*
X0053095Y0242183D01*
X0053095Y0242781D02*
X0056171Y0242781D01*
X0055939Y0243380D02*
X0053095Y0243380D01*
X0053095Y0243978D02*
X0055455Y0243978D01*
X0055455Y0244577D02*
X0053095Y0244577D01*
X0053537Y0245175D02*
X0055455Y0245175D01*
X0055455Y0245774D02*
X0054982Y0245774D01*
X0037420Y0282620D02*
X0037459Y0290104D01*
X0042252Y0290104D01*
X0042252Y0287568D01*
X0046795Y0287568D01*
X0046795Y0286968D01*
X0042252Y0286968D01*
X0042252Y0286294D01*
X0042179Y0286294D01*
X0039643Y0285243D01*
X0037702Y0283302D01*
X0037420Y0282620D01*
X0037421Y0282882D02*
X0037528Y0282882D01*
X0037424Y0283480D02*
X0037880Y0283480D01*
X0037427Y0284079D02*
X0038479Y0284079D01*
X0039077Y0284677D02*
X0037430Y0284677D01*
X0037434Y0285276D02*
X0039721Y0285276D01*
X0041166Y0285874D02*
X0037437Y0285874D01*
X0037440Y0286473D02*
X0042252Y0286473D01*
X0042252Y0287670D02*
X0037446Y0287670D01*
X0037449Y0288268D02*
X0042252Y0288268D01*
X0042252Y0288867D02*
X0037452Y0288867D01*
X0037456Y0289465D02*
X0042252Y0289465D01*
X0042252Y0290064D02*
X0037459Y0290064D01*
X0037443Y0287071D02*
X0046795Y0287071D01*
X0047395Y0287071D02*
X0060461Y0287071D01*
X0061059Y0287670D02*
X0051938Y0287670D01*
X0051938Y0288268D02*
X0187175Y0288268D01*
X0187175Y0288867D02*
X0051938Y0288867D01*
X0051938Y0289465D02*
X0187175Y0289465D01*
X0187175Y0290064D02*
X0051938Y0290064D01*
X0051938Y0286473D02*
X0059862Y0286473D01*
X0059264Y0285874D02*
X0053024Y0285874D01*
X0117595Y0170649D02*
X0117595Y0169600D01*
X0116312Y0166503D01*
X0116312Y0163009D01*
X0117650Y0159781D01*
X0120120Y0157310D01*
X0123348Y0155973D01*
X0126842Y0155973D01*
X0130070Y0157310D01*
X0132449Y0159689D01*
X0135034Y0157104D01*
X0134939Y0156875D01*
X0134939Y0152936D01*
X0136195Y0149905D01*
X0134939Y0146875D01*
X0134939Y0144738D01*
X0121757Y0144738D01*
X0121547Y0145246D01*
X0118762Y0148031D01*
X0115123Y0149538D01*
X0111185Y0149538D01*
X0108154Y0148282D01*
X0105123Y0149538D01*
X0101185Y0149538D01*
X0097546Y0148031D01*
X0094761Y0145246D01*
X0093254Y0141607D01*
X0093254Y0137910D01*
X0092874Y0137530D01*
X0084755Y0137530D01*
X0084755Y0138569D01*
X0086755Y0140569D01*
X0086755Y0148770D01*
X0085856Y0149669D01*
X0086755Y0150569D01*
X0086755Y0158770D01*
X0080956Y0164569D01*
X0077155Y0164569D01*
X0077155Y0164969D01*
X0081155Y0164969D01*
X0081155Y0166256D01*
X0111587Y0166256D01*
X0114344Y0167398D01*
X0117595Y0170649D01*
X0117595Y0170361D02*
X0117307Y0170361D01*
X0117595Y0169763D02*
X0116709Y0169763D01*
X0116110Y0169164D02*
X0117415Y0169164D01*
X0117167Y0168566D02*
X0115512Y0168566D01*
X0114913Y0167967D02*
X0116919Y0167967D01*
X0116671Y0167369D02*
X0114274Y0167369D01*
X0112829Y0166770D02*
X0116423Y0166770D01*
X0116312Y0166172D02*
X0081155Y0166172D01*
X0081155Y0165573D02*
X0116312Y0165573D01*
X0116312Y0164975D02*
X0081155Y0164975D01*
X0081149Y0164376D02*
X0116312Y0164376D01*
X0116312Y0163778D02*
X0081747Y0163778D01*
X0082346Y0163179D02*
X0116312Y0163179D01*
X0116490Y0162581D02*
X0082944Y0162581D01*
X0083543Y0161982D02*
X0116738Y0161982D01*
X0116986Y0161384D02*
X0084141Y0161384D01*
X0084740Y0160785D02*
X0117234Y0160785D01*
X0117481Y0160187D02*
X0085338Y0160187D01*
X0085937Y0159588D02*
X0117842Y0159588D01*
X0118441Y0158990D02*
X0086535Y0158990D01*
X0086755Y0158391D02*
X0119039Y0158391D01*
X0119638Y0157793D02*
X0086755Y0157793D01*
X0086755Y0157194D02*
X0120401Y0157194D01*
X0121845Y0156596D02*
X0086755Y0156596D01*
X0086755Y0155997D02*
X0123290Y0155997D01*
X0126900Y0155997D02*
X0134939Y0155997D01*
X0134939Y0155399D02*
X0086755Y0155399D01*
X0086755Y0154800D02*
X0134939Y0154800D01*
X0134939Y0154202D02*
X0086755Y0154202D01*
X0086755Y0153603D02*
X0134939Y0153603D01*
X0134939Y0153005D02*
X0086755Y0153005D01*
X0086755Y0152406D02*
X0135159Y0152406D01*
X0135407Y0151808D02*
X0086755Y0151808D01*
X0086755Y0151209D02*
X0135655Y0151209D01*
X0135903Y0150611D02*
X0086755Y0150611D01*
X0086198Y0150012D02*
X0136150Y0150012D01*
X0135991Y0149414D02*
X0115423Y0149414D01*
X0116868Y0148815D02*
X0135743Y0148815D01*
X0135495Y0148216D02*
X0118313Y0148216D01*
X0119175Y0147618D02*
X0135247Y0147618D01*
X0134999Y0147019D02*
X0119773Y0147019D01*
X0120372Y0146421D02*
X0134939Y0146421D01*
X0134939Y0145822D02*
X0120970Y0145822D01*
X0121556Y0145224D02*
X0134939Y0145224D01*
X0134939Y0156596D02*
X0128345Y0156596D01*
X0129790Y0157194D02*
X0134944Y0157194D01*
X0134345Y0157793D02*
X0130552Y0157793D01*
X0131151Y0158391D02*
X0133747Y0158391D01*
X0133148Y0158990D02*
X0131749Y0158990D01*
X0132348Y0159588D02*
X0132550Y0159588D01*
X0151437Y0169164D02*
X0160871Y0169164D01*
X0161469Y0168566D02*
X0153117Y0168566D01*
X0153858Y0167967D02*
X0162068Y0167967D01*
X0162736Y0167369D02*
X0154365Y0167369D01*
X0156605Y0126670D02*
X0157180Y0126670D01*
X0157180Y0126072D02*
X0155382Y0126072D01*
X0153937Y0125473D02*
X0157180Y0125473D01*
X0157180Y0124875D02*
X0139897Y0124875D01*
X0139299Y0125473D02*
X0141741Y0125473D01*
X0140296Y0126072D02*
X0138177Y0126072D01*
X0139074Y0126670D02*
X0136732Y0126670D01*
X0137877Y0127867D02*
X0123097Y0127867D01*
X0122499Y0128466D02*
X0137278Y0128466D01*
X0138475Y0127269D02*
X0123696Y0127269D01*
X0124294Y0126670D02*
X0131459Y0126670D01*
X0140496Y0124276D02*
X0157180Y0124276D01*
X0157180Y0123678D02*
X0141094Y0123678D01*
X0141604Y0123079D02*
X0157180Y0123079D01*
X0157180Y0122480D02*
X0141852Y0122480D01*
X0142099Y0121882D02*
X0157180Y0121882D01*
X0157180Y0121283D02*
X0142347Y0121283D01*
X0142595Y0120685D02*
X0157180Y0120685D01*
X0157180Y0120086D02*
X0142843Y0120086D01*
X0142878Y0119488D02*
X0157180Y0119488D01*
X0157180Y0118889D02*
X0142878Y0118889D01*
X0142878Y0118291D02*
X0157116Y0118291D01*
X0156602Y0117692D02*
X0142878Y0117692D01*
X0142878Y0117094D02*
X0156257Y0117094D01*
X0155911Y0116495D02*
X0142872Y0116495D01*
X0142624Y0115897D02*
X0155566Y0115897D01*
X0155268Y0115298D02*
X0142376Y0115298D01*
X0142128Y0114700D02*
X0155108Y0114700D01*
X0154947Y0114101D02*
X0141881Y0114101D01*
X0141633Y0113503D02*
X0154787Y0113503D01*
X0154626Y0112904D02*
X0141164Y0112904D01*
X0140566Y0112306D02*
X0154580Y0112306D01*
X0154580Y0111707D02*
X0139967Y0111707D01*
X0139369Y0111109D02*
X0154580Y0111109D01*
X0154580Y0110510D02*
X0138346Y0110510D01*
X0136901Y0109912D02*
X0154581Y0109912D01*
X0154741Y0109313D02*
X0131586Y0109313D01*
X0131601Y0108584D02*
X0124601Y0108584D01*
X0124601Y0104584D01*
X0127639Y0104584D01*
X0128308Y0104690D01*
X0128951Y0104899D01*
X0129554Y0105207D01*
X0130102Y0105604D01*
X0130580Y0106083D01*
X0130978Y0106631D01*
X0131286Y0107234D01*
X0131495Y0107877D01*
X0131601Y0108546D01*
X0131601Y0108584D01*
X0131533Y0108116D02*
X0149905Y0108116D01*
X0148460Y0107518D02*
X0131378Y0107518D01*
X0131125Y0106919D02*
X0147303Y0106919D01*
X0146705Y0106321D02*
X0130753Y0106321D01*
X0130220Y0105722D02*
X0146106Y0105722D01*
X0145508Y0105124D02*
X0129392Y0105124D01*
X0129391Y0100934D02*
X0141318Y0100934D01*
X0140720Y0100336D02*
X0130836Y0100336D01*
X0132281Y0099737D02*
X0140121Y0099737D01*
X0139523Y0099139D02*
X0133247Y0099139D01*
X0133846Y0098540D02*
X0138924Y0098540D01*
X0138326Y0097942D02*
X0134444Y0097942D01*
X0135043Y0097343D02*
X0137727Y0097343D01*
X0137129Y0096745D02*
X0135641Y0096745D01*
X0135920Y0096146D02*
X0136530Y0096146D01*
X0141917Y0101533D02*
X0099425Y0101533D01*
X0098826Y0102131D02*
X0142515Y0102131D01*
X0143114Y0102730D02*
X0097469Y0102730D01*
X0099001Y0104584D02*
X0102039Y0104584D01*
X0102708Y0104690D01*
X0103351Y0104899D01*
X0103954Y0105207D01*
X0104502Y0105604D01*
X0104980Y0106083D01*
X0105378Y0106631D01*
X0105686Y0107234D01*
X0105895Y0107877D01*
X0106001Y0108546D01*
X0106001Y0108584D01*
X0099001Y0108584D01*
X0099001Y0104584D01*
X0099001Y0105124D02*
X0098401Y0105124D01*
X0098401Y0105722D02*
X0099001Y0105722D01*
X0099001Y0106321D02*
X0098401Y0106321D01*
X0098401Y0106919D02*
X0099001Y0106919D01*
X0099001Y0107518D02*
X0098401Y0107518D01*
X0098401Y0108116D02*
X0099001Y0108116D01*
X0099001Y0108715D02*
X0124001Y0108715D01*
X0124001Y0108584D02*
X0117001Y0108584D01*
X0117001Y0108546D01*
X0117107Y0107877D01*
X0117316Y0107234D01*
X0117623Y0106631D01*
X0118021Y0106083D01*
X0118499Y0105604D01*
X0119047Y0105207D01*
X0119650Y0104899D01*
X0120294Y0104690D01*
X0120962Y0104584D01*
X0124001Y0104584D01*
X0124001Y0108584D01*
X0124001Y0108116D02*
X0124601Y0108116D01*
X0124601Y0107518D02*
X0124001Y0107518D01*
X0124001Y0106919D02*
X0124601Y0106919D01*
X0124601Y0106321D02*
X0124001Y0106321D01*
X0124001Y0105722D02*
X0124601Y0105722D01*
X0124601Y0105124D02*
X0124001Y0105124D01*
X0124601Y0108715D02*
X0154902Y0108715D01*
X0144909Y0104525D02*
X0087975Y0104525D01*
X0088616Y0103927D02*
X0144311Y0103927D01*
X0119210Y0105124D02*
X0103792Y0105124D01*
X0104620Y0105722D02*
X0118382Y0105722D01*
X0117848Y0106321D02*
X0105153Y0106321D01*
X0105525Y0106919D02*
X0117476Y0106919D01*
X0117223Y0107518D02*
X0105778Y0107518D01*
X0105933Y0108116D02*
X0117069Y0108116D01*
X0117015Y0109313D02*
X0105986Y0109313D01*
X0105888Y0109912D02*
X0117113Y0109912D01*
X0117308Y0110510D02*
X0105694Y0110510D01*
X0105393Y0111109D02*
X0117608Y0111109D01*
X0116912Y0111707D02*
X0104959Y0111707D01*
X0104307Y0112306D02*
X0116314Y0112306D01*
X0115715Y0112904D02*
X0103243Y0112904D01*
X0099001Y0112904D02*
X0098401Y0112904D01*
X0098401Y0112306D02*
X0099001Y0112306D01*
X0099001Y0111707D02*
X0098401Y0111707D01*
X0098401Y0111109D02*
X0099001Y0111109D01*
X0099001Y0110510D02*
X0098401Y0110510D01*
X0098401Y0109912D02*
X0099001Y0109912D01*
X0099001Y0109313D02*
X0098401Y0109313D01*
X0098401Y0108715D02*
X0085438Y0108715D01*
X0085438Y0109313D02*
X0091415Y0109313D01*
X0091513Y0109912D02*
X0085419Y0109912D01*
X0085136Y0110510D02*
X0091708Y0110510D01*
X0092008Y0111109D02*
X0069506Y0111109D01*
X0070105Y0111707D02*
X0092443Y0111707D01*
X0093094Y0112306D02*
X0070703Y0112306D01*
X0071302Y0112904D02*
X0094158Y0112904D01*
X0091469Y0108116D02*
X0085438Y0108116D01*
X0085438Y0107518D02*
X0091623Y0107518D01*
X0091876Y0106919D02*
X0085438Y0106919D01*
X0080895Y0107518D02*
X0080295Y0107518D01*
X0080295Y0108116D02*
X0080895Y0108116D01*
X0080895Y0108715D02*
X0080295Y0108715D01*
X0080295Y0109313D02*
X0080895Y0109313D01*
X0080895Y0109912D02*
X0080295Y0109912D01*
X0080295Y0110510D02*
X0080895Y0110510D01*
X0074893Y0116495D02*
X0112124Y0116495D01*
X0112723Y0115897D02*
X0074294Y0115897D01*
X0073696Y0115298D02*
X0113321Y0115298D01*
X0113920Y0114700D02*
X0073097Y0114700D01*
X0072499Y0114101D02*
X0114518Y0114101D01*
X0115117Y0113503D02*
X0071900Y0113503D01*
X0075491Y0117094D02*
X0111526Y0117094D01*
X0110927Y0117692D02*
X0076090Y0117692D01*
X0076688Y0118291D02*
X0110329Y0118291D01*
X0109730Y0118889D02*
X0077287Y0118889D01*
X0077885Y0119488D02*
X0109132Y0119488D01*
X0108533Y0120086D02*
X0078484Y0120086D01*
X0079082Y0120685D02*
X0107935Y0120685D01*
X0107336Y0121283D02*
X0079681Y0121283D01*
X0084755Y0138042D02*
X0093254Y0138042D01*
X0093254Y0138640D02*
X0084827Y0138640D01*
X0085425Y0139239D02*
X0093254Y0139239D01*
X0093254Y0139837D02*
X0086024Y0139837D01*
X0086622Y0140436D02*
X0093254Y0140436D01*
X0093254Y0141034D02*
X0086755Y0141034D01*
X0086755Y0141633D02*
X0093265Y0141633D01*
X0093513Y0142231D02*
X0086755Y0142231D01*
X0086755Y0142830D02*
X0093761Y0142830D01*
X0094009Y0143428D02*
X0086755Y0143428D01*
X0086755Y0144027D02*
X0094257Y0144027D01*
X0094504Y0144625D02*
X0086755Y0144625D01*
X0086755Y0145224D02*
X0094752Y0145224D01*
X0095338Y0145822D02*
X0086755Y0145822D01*
X0086755Y0146421D02*
X0095937Y0146421D01*
X0096535Y0147019D02*
X0086755Y0147019D01*
X0086755Y0147618D02*
X0097134Y0147618D01*
X0097995Y0148216D02*
X0086755Y0148216D01*
X0086710Y0148815D02*
X0099440Y0148815D01*
X0100885Y0149414D02*
X0086111Y0149414D01*
X0101366Y0123678D02*
X0104942Y0123678D01*
X0105541Y0123079D02*
X0100768Y0123079D01*
X0099530Y0122480D02*
X0106139Y0122480D01*
X0106738Y0121882D02*
X0098085Y0121882D01*
X0103791Y0100934D02*
X0119210Y0100934D01*
X0117765Y0100336D02*
X0105236Y0100336D01*
X0106681Y0099737D02*
X0116320Y0099737D01*
X0115354Y0099139D02*
X0107647Y0099139D01*
X0106868Y0148815D02*
X0109440Y0148815D01*
X0110885Y0149414D02*
X0105423Y0149414D01*
X0173380Y0121283D02*
X0174125Y0121283D01*
X0186718Y0273305D02*
X0187175Y0273305D01*
X0187175Y0273904D02*
X0186119Y0273904D01*
X0185521Y0274502D02*
X0187175Y0274502D01*
X0187175Y0275101D02*
X0184922Y0275101D01*
X0184324Y0275699D02*
X0187175Y0275699D01*
X0187175Y0276298D02*
X0183725Y0276298D01*
X0183664Y0276896D02*
X0187175Y0276896D01*
X0187175Y0277495D02*
X0183664Y0277495D01*
X0183664Y0278093D02*
X0187175Y0278093D01*
X0170478Y0285874D02*
X0167051Y0285874D01*
X0168496Y0285276D02*
X0169033Y0285276D01*
X0160478Y0285874D02*
X0157051Y0285874D01*
X0158496Y0285276D02*
X0159033Y0285276D01*
D20*
X0173764Y0273520D02*
X0175331Y0273520D01*
X0183075Y0265776D01*
X0183075Y0203821D01*
X0183075Y0187661D01*
X0171225Y0175811D01*
X0171225Y0158386D01*
X0158095Y0145256D01*
X0164493Y0136953D02*
X0165280Y0136165D01*
X0134095Y0118256D02*
X0121536Y0118256D01*
X0103154Y0136638D01*
X0096146Y0129630D01*
X0076855Y0129630D01*
X0076855Y0144669D01*
X0076855Y0129630D02*
X0056855Y0109630D01*
X0080595Y0095496D02*
X0094289Y0095496D01*
X0098701Y0091084D01*
X0124301Y0091084D01*
X0132839Y0202523D02*
X0132839Y0213244D01*
X0132196Y0213888D01*
X0131646Y0214437D02*
X0174414Y0214437D01*
X0183075Y0205776D01*
X0183075Y0203821D01*
X0155674Y0202523D02*
X0155674Y0207677D01*
X0155095Y0208256D01*
X0082839Y0207012D02*
X0082839Y0203232D01*
X0082839Y0207012D02*
X0080095Y0209756D01*
X0053131Y0212421D02*
X0053095Y0212386D01*
X0053095Y0205256D01*
X0075595Y0283256D02*
X0071583Y0287268D01*
X0047095Y0287268D01*
D21*
X0050095Y0253256D03*
X0071095Y0208256D03*
X0075871Y0198764D03*
X0080095Y0209756D03*
X0084595Y0212756D03*
X0096595Y0227756D03*
X0096595Y0236756D03*
X0108595Y0236756D03*
X0110095Y0217256D03*
X0111595Y0208256D03*
X0104095Y0188756D03*
X0098095Y0188756D03*
X0090595Y0188756D03*
X0063595Y0172256D03*
X0054595Y0181256D03*
X0047178Y0185756D03*
X0041178Y0173756D03*
X0047095Y0169256D03*
X0050095Y0160256D03*
X0041178Y0161673D03*
X0053095Y0205256D03*
X0089095Y0139256D03*
X0123595Y0190256D03*
X0125095Y0164756D03*
X0155095Y0208256D03*
X0156595Y0235256D03*
X0135595Y0236756D03*
X0126595Y0235256D03*
X0117595Y0265256D03*
X0158095Y0167756D03*
X0158095Y0145256D03*
X0176095Y0149756D03*
X0134095Y0118256D03*
X0158095Y0076256D03*
X0080095Y0077756D03*
D22*
X0080095Y0209756D02*
X0080095Y0211256D01*
X0075595Y0215756D01*
X0065095Y0215756D01*
X0059095Y0221756D01*
X0054820Y0221756D01*
X0053131Y0223445D01*
D23*
X0113154Y0136638D02*
X0146107Y0136638D01*
X0147839Y0134906D01*
X0162446Y0134906D01*
X0164493Y0136953D01*
X0165280Y0136165D02*
X0165280Y0111323D01*
X0178272Y0111323D01*
X0178272Y0101480D02*
X0165280Y0101480D01*
X0164056Y0100256D01*
X0152095Y0100256D01*
X0128095Y0076256D01*
X0128095Y0043256D01*
X0056855Y0099787D02*
X0043863Y0099787D01*
X0035095Y0091020D01*
X0035095Y0080756D01*
X0054595Y0061256D01*
X0054595Y0044756D01*
X0056855Y0109630D02*
X0043863Y0109630D01*
X0056855Y0109630D02*
X0057020Y0109795D01*
M02*
