%
M48
M72
T01C0.0217
T02C0.0394
T03C0.0400
%
T01
X8010Y7776
X8910Y13926
X6360Y17226
X5460Y18126
X4718Y18576
X4118Y17376
X4710Y16926
X5010Y16026
X4118Y16167
X5310Y20526
X7110Y20826
X7587Y19876
X8010Y20976
X8460Y21276
X9660Y22776
X9660Y23676
X10860Y23676
X11010Y21726
X11160Y20826
X10410Y18876
X9810Y18876
X9060Y18876
X12360Y19026
X12510Y16476
X15510Y20826
X15660Y23526
X13560Y23676
X12660Y23526
X11760Y26526
X15810Y16776
X15810Y14526
X17610Y14976
X13410Y11826
X15810Y7626
X5010Y25326
T02
X4386Y8994
X4386Y9979
X4386Y10963
X5685Y10963
X5685Y9979
X5685Y8994
X16528Y9164
X16528Y10148
X16528Y11132
X17827Y11132
X17827Y10148
X17827Y9164
T03
X14784Y13491
X14784Y14491
X14784Y15491
X14784Y16491
X17123Y17581
X17123Y18581
X17123Y19581
X17123Y20581
X17376Y27352
X16376Y27352
X15376Y27352
X14376Y27352
X7535Y27796
X7535Y26796
X7535Y25796
X7535Y24796
X7535Y23796
X7535Y22796
X6535Y22796
X6535Y23796
X6535Y24796
X6535Y25796
X6535Y26796
X6535Y27796
X6685Y16467
X6685Y15467
X6685Y14467
X7685Y14467
X7685Y15467
X7685Y16467
X10315Y13664
X11315Y13664
X12430Y10888
X12430Y9108
X9870Y9108
X9870Y10888
M30
