G75*
%MOIN*%
%OFA0B0*%
%FSLAX25Y25*%
%IPPOS*%
%LPD*%
%AMOC8*
5,1,8,0,0,1.08239X$1,22.5*
%
%ADD10C,0.00000*%
%ADD11C,0.00600*%
%ADD12OC8,0.10000*%
%ADD13R,0.10000X0.10000*%
%ADD14R,0.06299X0.07087*%
%ADD15R,0.07400X0.07400*%
%ADD16C,0.07400*%
%ADD17R,0.10551X0.04331*%
%ADD18R,0.06299X0.07098*%
%ADD19C,0.06400*%
%ADD20R,0.04724X0.01181*%
%ADD21C,0.07600*%
%ADD22R,0.05550X0.05550*%
%ADD23C,0.01200*%
%ADD24C,0.04165*%
%ADD25C,0.02000*%
%ADD26C,0.01600*%
D10*
X0001600Y0001600D02*
X0001600Y0235301D01*
X0246521Y0235301D01*
X0246521Y0001600D01*
X0001600Y0001600D01*
D11*
X0116900Y0220767D02*
X0117278Y0220767D01*
X0118411Y0224167D01*
X0119780Y0224167D02*
X0121291Y0224167D01*
X0119780Y0221900D01*
X0121291Y0221900D01*
X0122832Y0222844D02*
X0122834Y0222784D01*
X0122840Y0222723D01*
X0122849Y0222664D01*
X0122863Y0222605D01*
X0122880Y0222547D01*
X0122901Y0222490D01*
X0122925Y0222434D01*
X0122953Y0222381D01*
X0122985Y0222329D01*
X0123019Y0222279D01*
X0123057Y0222232D01*
X0123098Y0222187D01*
X0123141Y0222145D01*
X0123187Y0222106D01*
X0123236Y0222070D01*
X0123287Y0222037D01*
X0123339Y0222007D01*
X0123394Y0221981D01*
X0123450Y0221958D01*
X0123507Y0221939D01*
X0123566Y0221924D01*
X0123625Y0221912D01*
X0123685Y0221904D01*
X0123746Y0221900D01*
X0123806Y0221900D01*
X0123867Y0221904D01*
X0123927Y0221912D01*
X0123986Y0221924D01*
X0124045Y0221939D01*
X0124102Y0221958D01*
X0124158Y0221981D01*
X0124213Y0222007D01*
X0124265Y0222037D01*
X0124316Y0222070D01*
X0124365Y0222106D01*
X0124411Y0222145D01*
X0124454Y0222187D01*
X0124495Y0222232D01*
X0124533Y0222279D01*
X0124567Y0222329D01*
X0124599Y0222381D01*
X0124627Y0222434D01*
X0124651Y0222490D01*
X0124672Y0222547D01*
X0124689Y0222605D01*
X0124703Y0222664D01*
X0124712Y0222723D01*
X0124718Y0222784D01*
X0124720Y0222844D01*
X0124718Y0222904D01*
X0124712Y0222965D01*
X0124703Y0223024D01*
X0124689Y0223083D01*
X0124672Y0223141D01*
X0124651Y0223198D01*
X0124627Y0223254D01*
X0124599Y0223307D01*
X0124567Y0223359D01*
X0124533Y0223409D01*
X0124495Y0223456D01*
X0124454Y0223501D01*
X0124411Y0223543D01*
X0124365Y0223582D01*
X0124316Y0223618D01*
X0124265Y0223651D01*
X0124213Y0223681D01*
X0124158Y0223707D01*
X0124102Y0223730D01*
X0124045Y0223749D01*
X0123986Y0223764D01*
X0123927Y0223776D01*
X0123867Y0223784D01*
X0123806Y0223788D01*
X0123746Y0223788D01*
X0123685Y0223784D01*
X0123625Y0223776D01*
X0123566Y0223764D01*
X0123507Y0223749D01*
X0123450Y0223730D01*
X0123394Y0223707D01*
X0123339Y0223681D01*
X0123287Y0223651D01*
X0123236Y0223618D01*
X0123187Y0223582D01*
X0123141Y0223543D01*
X0123098Y0223501D01*
X0123057Y0223456D01*
X0123019Y0223409D01*
X0122985Y0223359D01*
X0122953Y0223307D01*
X0122925Y0223254D01*
X0122901Y0223198D01*
X0122880Y0223141D01*
X0122863Y0223083D01*
X0122849Y0223024D01*
X0122840Y0222965D01*
X0122834Y0222904D01*
X0122832Y0222844D01*
X0123020Y0224544D02*
X0123022Y0224490D01*
X0123028Y0224436D01*
X0123037Y0224383D01*
X0123051Y0224331D01*
X0123068Y0224280D01*
X0123088Y0224230D01*
X0123112Y0224182D01*
X0123140Y0224135D01*
X0123171Y0224091D01*
X0123205Y0224049D01*
X0123241Y0224009D01*
X0123281Y0223973D01*
X0123323Y0223939D01*
X0123367Y0223908D01*
X0123414Y0223880D01*
X0123462Y0223856D01*
X0123512Y0223836D01*
X0123563Y0223819D01*
X0123615Y0223805D01*
X0123668Y0223796D01*
X0123722Y0223790D01*
X0123776Y0223788D01*
X0123830Y0223790D01*
X0123884Y0223796D01*
X0123937Y0223805D01*
X0123989Y0223819D01*
X0124040Y0223836D01*
X0124090Y0223856D01*
X0124138Y0223880D01*
X0124185Y0223908D01*
X0124229Y0223939D01*
X0124271Y0223973D01*
X0124311Y0224009D01*
X0124347Y0224049D01*
X0124381Y0224091D01*
X0124412Y0224135D01*
X0124440Y0224182D01*
X0124464Y0224230D01*
X0124484Y0224280D01*
X0124501Y0224331D01*
X0124515Y0224383D01*
X0124524Y0224436D01*
X0124530Y0224490D01*
X0124532Y0224544D01*
X0124530Y0224598D01*
X0124524Y0224652D01*
X0124515Y0224705D01*
X0124501Y0224757D01*
X0124484Y0224808D01*
X0124464Y0224858D01*
X0124440Y0224906D01*
X0124412Y0224953D01*
X0124381Y0224997D01*
X0124347Y0225039D01*
X0124311Y0225079D01*
X0124271Y0225115D01*
X0124229Y0225149D01*
X0124185Y0225180D01*
X0124138Y0225208D01*
X0124090Y0225232D01*
X0124040Y0225252D01*
X0123989Y0225269D01*
X0123937Y0225283D01*
X0123884Y0225292D01*
X0123830Y0225298D01*
X0123776Y0225300D01*
X0123722Y0225298D01*
X0123668Y0225292D01*
X0123615Y0225283D01*
X0123563Y0225269D01*
X0123512Y0225252D01*
X0123462Y0225232D01*
X0123414Y0225208D01*
X0123367Y0225180D01*
X0123323Y0225149D01*
X0123281Y0225115D01*
X0123241Y0225079D01*
X0123205Y0225039D01*
X0123171Y0224997D01*
X0123140Y0224953D01*
X0123112Y0224906D01*
X0123088Y0224858D01*
X0123068Y0224808D01*
X0123051Y0224757D01*
X0123037Y0224705D01*
X0123028Y0224652D01*
X0123022Y0224598D01*
X0123020Y0224544D01*
X0126431Y0224922D02*
X0126431Y0225300D01*
X0128320Y0225300D01*
X0127376Y0221900D01*
X0117656Y0221900D02*
X0116900Y0224167D01*
D12*
X0220025Y0146128D03*
D13*
X0220025Y0087072D03*
D14*
X0052112Y0091600D03*
X0041088Y0091600D03*
D15*
X0012100Y0126600D03*
D16*
X0011100Y0116600D03*
X0012100Y0106600D03*
X0011100Y0096600D03*
D17*
G36*
X0075622Y0073148D02*
X0083081Y0080607D01*
X0086142Y0077546D01*
X0078683Y0070087D01*
X0075622Y0073148D01*
G37*
G36*
X0080355Y0068416D02*
X0087814Y0075875D01*
X0090875Y0072814D01*
X0083416Y0065355D01*
X0080355Y0068416D01*
G37*
G36*
X0085087Y0063683D02*
X0092546Y0071142D01*
X0095607Y0068081D01*
X0088148Y0060622D01*
X0085087Y0063683D01*
G37*
G36*
X0097058Y0075654D02*
X0104517Y0083113D01*
X0107578Y0080052D01*
X0100119Y0072593D01*
X0097058Y0075654D01*
G37*
G36*
X0092325Y0080386D02*
X0099784Y0087845D01*
X0102845Y0084784D01*
X0095386Y0077325D01*
X0092325Y0080386D01*
G37*
G36*
X0087593Y0085119D02*
X0095052Y0092578D01*
X0098113Y0089517D01*
X0090654Y0082058D01*
X0087593Y0085119D01*
G37*
G36*
X0085087Y0138683D02*
X0092546Y0146142D01*
X0095607Y0143081D01*
X0088148Y0135622D01*
X0085087Y0138683D01*
G37*
G36*
X0080355Y0143416D02*
X0087814Y0150875D01*
X0090875Y0147814D01*
X0083416Y0140355D01*
X0080355Y0143416D01*
G37*
G36*
X0075622Y0148148D02*
X0083081Y0155607D01*
X0086142Y0152546D01*
X0078683Y0145087D01*
X0075622Y0148148D01*
G37*
G36*
X0087593Y0160119D02*
X0095052Y0167578D01*
X0098113Y0164517D01*
X0090654Y0157058D01*
X0087593Y0160119D01*
G37*
G36*
X0092325Y0155386D02*
X0099784Y0162845D01*
X0102845Y0159784D01*
X0095386Y0152325D01*
X0092325Y0155386D01*
G37*
G36*
X0097058Y0150654D02*
X0104517Y0158113D01*
X0107578Y0155052D01*
X0100119Y0147593D01*
X0097058Y0150654D01*
G37*
G36*
X0165622Y0148148D02*
X0173081Y0155607D01*
X0176142Y0152546D01*
X0168683Y0145087D01*
X0165622Y0148148D01*
G37*
G36*
X0170355Y0143416D02*
X0177814Y0150875D01*
X0180875Y0147814D01*
X0173416Y0140355D01*
X0170355Y0143416D01*
G37*
G36*
X0175087Y0138683D02*
X0182546Y0146142D01*
X0185607Y0143081D01*
X0178148Y0135622D01*
X0175087Y0138683D01*
G37*
G36*
X0187058Y0150654D02*
X0194517Y0158113D01*
X0197578Y0155052D01*
X0190119Y0147593D01*
X0187058Y0150654D01*
G37*
G36*
X0182325Y0155386D02*
X0189784Y0162845D01*
X0192845Y0159784D01*
X0185386Y0152325D01*
X0182325Y0155386D01*
G37*
G36*
X0177593Y0160119D02*
X0185052Y0167578D01*
X0188113Y0164517D01*
X0180654Y0157058D01*
X0177593Y0160119D01*
G37*
G36*
X0177593Y0085119D02*
X0185052Y0092578D01*
X0188113Y0089517D01*
X0180654Y0082058D01*
X0177593Y0085119D01*
G37*
G36*
X0182325Y0080386D02*
X0189784Y0087845D01*
X0192845Y0084784D01*
X0185386Y0077325D01*
X0182325Y0080386D01*
G37*
G36*
X0187058Y0075654D02*
X0194517Y0083113D01*
X0197578Y0080052D01*
X0190119Y0072593D01*
X0187058Y0075654D01*
G37*
G36*
X0175087Y0063683D02*
X0182546Y0071142D01*
X0185607Y0068081D01*
X0178148Y0060622D01*
X0175087Y0063683D01*
G37*
G36*
X0170355Y0068416D02*
X0177814Y0075875D01*
X0180875Y0072814D01*
X0173416Y0065355D01*
X0170355Y0068416D01*
G37*
G36*
X0165622Y0073148D02*
X0173081Y0080607D01*
X0176142Y0077546D01*
X0168683Y0070087D01*
X0165622Y0073148D01*
G37*
D18*
X0052198Y0136600D03*
X0041002Y0136600D03*
D19*
X0045600Y0192700D02*
X0052000Y0192700D01*
X0052000Y0210500D02*
X0045600Y0210500D01*
X0071200Y0210500D02*
X0077600Y0210500D01*
X0077600Y0192700D02*
X0071200Y0192700D01*
X0170600Y0192700D02*
X0177000Y0192700D01*
X0177000Y0210500D02*
X0170600Y0210500D01*
X0196200Y0210500D02*
X0202600Y0210500D01*
X0202600Y0192700D02*
X0196200Y0192700D01*
X0201200Y0040500D02*
X0207600Y0040500D01*
X0207600Y0022700D02*
X0201200Y0022700D01*
X0182000Y0022700D02*
X0175600Y0022700D01*
X0175600Y0040500D02*
X0182000Y0040500D01*
X0077600Y0040500D02*
X0071200Y0040500D01*
X0071200Y0022700D02*
X0077600Y0022700D01*
X0052000Y0022700D02*
X0045600Y0022700D01*
X0045600Y0040500D02*
X0052000Y0040500D01*
D20*
X0058018Y0100085D03*
X0058018Y0102644D03*
X0058018Y0105202D03*
X0058018Y0107761D03*
X0058018Y0110320D03*
X0058018Y0112880D03*
X0058018Y0115439D03*
X0058018Y0117998D03*
X0058018Y0120557D03*
X0058018Y0123115D03*
X0035183Y0123115D03*
X0035183Y0120557D03*
X0035183Y0117998D03*
X0035183Y0115439D03*
X0035183Y0112880D03*
X0035183Y0110320D03*
X0035183Y0107761D03*
X0035183Y0105202D03*
X0035183Y0102644D03*
X0035183Y0100085D03*
D21*
X0215104Y0106757D03*
X0215104Y0116600D03*
X0215104Y0126443D03*
X0228096Y0126443D03*
X0228096Y0116600D03*
X0228096Y0106757D03*
D22*
X0141600Y0106757D03*
X0141600Y0126443D03*
D23*
X0045718Y0126443D01*
X0037273Y0117998D01*
X0035183Y0117998D01*
X0035183Y0120557D02*
X0030557Y0120557D01*
X0026600Y0116600D01*
X0035183Y0110320D02*
X0017880Y0110320D01*
X0011600Y0116600D01*
X0011100Y0116600D01*
X0013261Y0107761D02*
X0035183Y0107761D01*
X0026600Y0096600D02*
X0026600Y0026600D01*
X0041600Y0011600D01*
X0193300Y0011600D01*
X0204400Y0022700D01*
X0209101Y0034100D02*
X0212000Y0033323D01*
X0214600Y0031822D01*
X0216722Y0029700D01*
X0218223Y0027100D01*
X0219000Y0024201D01*
X0219000Y0021199D01*
X0218223Y0018300D01*
X0216722Y0015700D01*
X0214600Y0013578D01*
X0212000Y0012077D01*
X0209101Y0011300D01*
X0205445Y0011300D01*
X0203945Y0009800D01*
X0238321Y0009800D01*
X0238321Y0100468D01*
X0237698Y0099389D01*
X0235464Y0097155D01*
X0232728Y0095575D01*
X0229676Y0094757D01*
X0226516Y0094757D01*
X0223464Y0095575D01*
X0221600Y0096652D01*
X0219736Y0095575D01*
X0216684Y0094757D01*
X0216115Y0094757D01*
X0215030Y0093672D01*
X0219641Y0093672D01*
X0219641Y0087457D01*
X0220409Y0087457D01*
X0220409Y0093672D01*
X0225236Y0093672D01*
X0225643Y0093563D01*
X0226008Y0093353D01*
X0226305Y0093055D01*
X0226516Y0092690D01*
X0226625Y0092283D01*
X0226625Y0087457D01*
X0220410Y0087457D01*
X0220410Y0086688D01*
X0226625Y0086688D01*
X0226625Y0081862D01*
X0226516Y0081455D01*
X0226305Y0081090D01*
X0226008Y0080792D01*
X0225643Y0080581D01*
X0225236Y0080472D01*
X0220409Y0080472D01*
X0220409Y0086688D01*
X0219641Y0086688D01*
X0219641Y0080472D01*
X0214815Y0080472D01*
X0214408Y0080581D01*
X0214043Y0080792D01*
X0213745Y0081090D01*
X0213534Y0081455D01*
X0213425Y0081862D01*
X0213425Y0086688D01*
X0219641Y0086688D01*
X0219641Y0087457D01*
X0213425Y0087457D01*
X0213425Y0092068D01*
X0204977Y0083620D01*
X0205779Y0081683D01*
X0205779Y0078421D01*
X0204531Y0075407D01*
X0194764Y0065640D01*
X0191750Y0064391D01*
X0188488Y0064391D01*
X0185474Y0065640D01*
X0185452Y0065662D01*
X0183351Y0063561D01*
X0183285Y0063627D01*
X0182603Y0062944D01*
X0182668Y0062878D01*
X0179130Y0059340D01*
X0178819Y0059161D01*
X0178060Y0058401D01*
X0175046Y0057153D01*
X0171784Y0057153D01*
X0170223Y0057800D01*
X0159850Y0057800D01*
X0156615Y0059140D01*
X0154140Y0061615D01*
X0149140Y0066615D01*
X0147800Y0069850D01*
X0147800Y0083350D01*
X0149140Y0086585D01*
X0151615Y0089060D01*
X0189163Y0126608D01*
X0189076Y0126631D01*
X0181585Y0119140D01*
X0178350Y0117800D01*
X0169850Y0117800D01*
X0166615Y0119140D01*
X0164140Y0121615D01*
X0164140Y0121615D01*
X0141702Y0144053D01*
X0125400Y0144053D01*
X0125400Y0141923D01*
X0126182Y0140569D01*
X0126883Y0137954D01*
X0126883Y0135246D01*
X0126882Y0135243D01*
X0133254Y0135243D01*
X0134180Y0136169D01*
X0137194Y0137417D01*
X0146006Y0137417D01*
X0149020Y0136169D01*
X0151326Y0133862D01*
X0152575Y0130848D01*
X0152575Y0122037D01*
X0151326Y0119023D01*
X0149020Y0116716D01*
X0146006Y0115468D01*
X0137194Y0115468D01*
X0134180Y0116716D01*
X0133254Y0117643D01*
X0081185Y0117643D01*
X0081182Y0117631D01*
X0080587Y0116600D01*
X0081182Y0115569D01*
X0081587Y0114058D01*
X0088342Y0107303D01*
X0088689Y0106465D01*
X0090246Y0106883D01*
X0092954Y0106883D01*
X0095569Y0106182D01*
X0097914Y0104828D01*
X0099828Y0102914D01*
X0100423Y0101883D01*
X0102954Y0101883D01*
X0105569Y0101182D01*
X0107914Y0099828D01*
X0109100Y0098642D01*
X0110286Y0099828D01*
X0112631Y0101182D01*
X0115246Y0101883D01*
X0117954Y0101883D01*
X0120569Y0101182D01*
X0122914Y0099828D01*
X0124828Y0097914D01*
X0126182Y0095569D01*
X0126883Y0092954D01*
X0126883Y0090246D01*
X0126182Y0087631D01*
X0124828Y0085286D01*
X0122914Y0083372D01*
X0120569Y0082018D01*
X0118328Y0081418D01*
X0115779Y0078869D01*
X0115779Y0078421D01*
X0114531Y0075407D01*
X0104764Y0065640D01*
X0101750Y0064391D01*
X0098488Y0064391D01*
X0095474Y0065640D01*
X0095452Y0065662D01*
X0093351Y0063561D01*
X0093285Y0063627D01*
X0092603Y0062944D01*
X0092668Y0062878D01*
X0089130Y0059340D01*
X0088819Y0059161D01*
X0088060Y0058401D01*
X0085046Y0057153D01*
X0081784Y0057153D01*
X0080223Y0057800D01*
X0074850Y0057800D01*
X0071615Y0059140D01*
X0066615Y0064140D01*
X0064140Y0066615D01*
X0062800Y0069850D01*
X0062800Y0084829D01*
X0062213Y0083412D01*
X0059906Y0081105D01*
X0056892Y0079857D01*
X0052814Y0079857D01*
X0046399Y0073442D01*
X0046182Y0072631D01*
X0044828Y0070286D01*
X0042914Y0068372D01*
X0040569Y0067018D01*
X0037954Y0066317D01*
X0035400Y0066317D01*
X0035400Y0045633D01*
X0036478Y0047500D01*
X0038600Y0049622D01*
X0041200Y0051123D01*
X0044099Y0051900D01*
X0053501Y0051900D01*
X0056400Y0051123D01*
X0059000Y0049622D01*
X0061122Y0047500D01*
X0061600Y0046672D01*
X0062078Y0047500D01*
X0064200Y0049622D01*
X0066800Y0051123D01*
X0069699Y0051900D01*
X0079101Y0051900D01*
X0082000Y0051123D01*
X0084600Y0049622D01*
X0086722Y0047500D01*
X0088223Y0044900D01*
X0089000Y0042001D01*
X0089000Y0038999D01*
X0088223Y0036100D01*
X0086722Y0033500D01*
X0084600Y0031378D01*
X0082000Y0029877D01*
X0079101Y0029100D01*
X0069699Y0029100D01*
X0066800Y0029877D01*
X0064200Y0031378D01*
X0062078Y0033500D01*
X0061600Y0034328D01*
X0061122Y0033500D01*
X0059000Y0031378D01*
X0056400Y0029877D01*
X0053501Y0029100D01*
X0044099Y0029100D01*
X0041200Y0029877D01*
X0038600Y0031378D01*
X0036478Y0033500D01*
X0035400Y0035367D01*
X0035400Y0030245D01*
X0041140Y0024505D01*
X0041152Y0024543D01*
X0041495Y0025216D01*
X0041939Y0025827D01*
X0042473Y0026361D01*
X0043084Y0026805D01*
X0043757Y0027148D01*
X0044476Y0027382D01*
X0045222Y0027500D01*
X0048400Y0027500D01*
X0048400Y0023100D01*
X0049200Y0023100D01*
X0049200Y0027500D01*
X0052378Y0027500D01*
X0053124Y0027382D01*
X0053843Y0027148D01*
X0054516Y0026805D01*
X0055127Y0026361D01*
X0055661Y0025827D01*
X0056105Y0025216D01*
X0056448Y0024543D01*
X0056682Y0023824D01*
X0056796Y0023100D01*
X0049200Y0023100D01*
X0049200Y0022300D01*
X0056796Y0022300D01*
X0056682Y0021576D01*
X0056448Y0020857D01*
X0056215Y0020400D01*
X0066985Y0020400D01*
X0066752Y0020857D01*
X0066518Y0021576D01*
X0066404Y0022300D01*
X0074000Y0022300D01*
X0074000Y0023100D01*
X0074000Y0027500D01*
X0070822Y0027500D01*
X0070076Y0027382D01*
X0069357Y0027148D01*
X0068684Y0026805D01*
X0068073Y0026361D01*
X0067539Y0025827D01*
X0067095Y0025216D01*
X0066752Y0024543D01*
X0066518Y0023824D01*
X0066404Y0023100D01*
X0074000Y0023100D01*
X0074800Y0023100D01*
X0074800Y0027500D01*
X0077978Y0027500D01*
X0078724Y0027382D01*
X0079443Y0027148D01*
X0080116Y0026805D01*
X0080727Y0026361D01*
X0081261Y0025827D01*
X0081705Y0025216D01*
X0082048Y0024543D01*
X0082282Y0023824D01*
X0082396Y0023100D01*
X0074800Y0023100D01*
X0074800Y0022300D01*
X0082396Y0022300D01*
X0082282Y0021576D01*
X0082048Y0020857D01*
X0081815Y0020400D01*
X0164414Y0020400D01*
X0164200Y0021199D01*
X0164200Y0024201D01*
X0164977Y0027100D01*
X0166478Y0029700D01*
X0168600Y0031822D01*
X0171200Y0033323D01*
X0174099Y0034100D01*
X0183501Y0034100D01*
X0186400Y0033323D01*
X0189000Y0031822D01*
X0191122Y0029700D01*
X0191600Y0028872D01*
X0192078Y0029700D01*
X0194200Y0031822D01*
X0196800Y0033323D01*
X0199699Y0034100D01*
X0209101Y0034100D01*
X0209624Y0033960D02*
X0238321Y0033960D01*
X0238321Y0035158D02*
X0087680Y0035158D01*
X0088292Y0036357D02*
X0173159Y0036357D01*
X0173084Y0036395D02*
X0173757Y0036052D01*
X0174476Y0035818D01*
X0175222Y0035700D01*
X0178400Y0035700D01*
X0178400Y0040100D01*
X0179200Y0040100D01*
X0179200Y0040900D01*
X0178400Y0040900D01*
X0178400Y0045300D01*
X0175222Y0045300D01*
X0174476Y0045182D01*
X0173757Y0044948D01*
X0173084Y0044605D01*
X0172473Y0044161D01*
X0171939Y0043627D01*
X0171495Y0043016D01*
X0171152Y0042343D01*
X0170918Y0041624D01*
X0170804Y0040900D01*
X0178400Y0040900D01*
X0178400Y0040100D01*
X0170804Y0040100D01*
X0170918Y0039376D01*
X0171152Y0038657D01*
X0171495Y0037984D01*
X0171939Y0037373D01*
X0172473Y0036839D01*
X0173084Y0036395D01*
X0171806Y0037555D02*
X0088613Y0037555D01*
X0088934Y0038754D02*
X0171120Y0038754D01*
X0170827Y0039952D02*
X0089000Y0039952D01*
X0089000Y0041151D02*
X0170843Y0041151D01*
X0171155Y0042349D02*
X0088907Y0042349D01*
X0088585Y0043548D02*
X0171881Y0043548D01*
X0173361Y0044746D02*
X0088264Y0044746D01*
X0087620Y0045945D02*
X0238321Y0045945D01*
X0238321Y0047143D02*
X0086928Y0047143D01*
X0085880Y0048342D02*
X0238321Y0048342D01*
X0238321Y0049540D02*
X0084682Y0049540D01*
X0082666Y0050739D02*
X0238321Y0050739D01*
X0238321Y0051937D02*
X0035400Y0051937D01*
X0035400Y0050739D02*
X0040534Y0050739D01*
X0038518Y0049540D02*
X0035400Y0049540D01*
X0035400Y0048342D02*
X0037320Y0048342D01*
X0036272Y0047143D02*
X0035400Y0047143D01*
X0035400Y0045945D02*
X0035580Y0045945D01*
X0035400Y0053136D02*
X0238321Y0053136D01*
X0238321Y0054334D02*
X0035400Y0054334D01*
X0035400Y0055533D02*
X0238321Y0055533D01*
X0238321Y0056732D02*
X0035400Y0056732D01*
X0035400Y0057930D02*
X0074536Y0057930D01*
X0071642Y0059129D02*
X0035400Y0059129D01*
X0035400Y0060327D02*
X0070428Y0060327D01*
X0069229Y0061526D02*
X0035400Y0061526D01*
X0035400Y0062724D02*
X0068031Y0062724D01*
X0066832Y0063923D02*
X0035400Y0063923D01*
X0035400Y0065121D02*
X0065634Y0065121D01*
X0064435Y0066320D02*
X0037962Y0066320D01*
X0041435Y0067518D02*
X0063766Y0067518D01*
X0063269Y0068717D02*
X0043259Y0068717D01*
X0044457Y0069915D02*
X0062800Y0069915D01*
X0062800Y0071114D02*
X0045306Y0071114D01*
X0045998Y0072312D02*
X0062800Y0072312D01*
X0062800Y0073511D02*
X0046468Y0073511D01*
X0047666Y0074709D02*
X0062800Y0074709D01*
X0062800Y0075908D02*
X0048865Y0075908D01*
X0050063Y0077106D02*
X0062800Y0077106D01*
X0062800Y0078305D02*
X0051262Y0078305D01*
X0052460Y0079503D02*
X0062800Y0079503D01*
X0062800Y0080702D02*
X0058933Y0080702D01*
X0060702Y0081900D02*
X0062800Y0081900D01*
X0062800Y0083099D02*
X0061900Y0083099D01*
X0062580Y0084297D02*
X0062800Y0084297D01*
X0071600Y0091600D02*
X0071600Y0071600D01*
X0076600Y0066600D01*
X0081600Y0066600D01*
X0085615Y0070615D01*
X0080882Y0075347D02*
X0080882Y0102318D01*
X0075439Y0107761D01*
X0058018Y0107761D01*
X0058018Y0112880D02*
X0070320Y0112880D01*
X0071600Y0111600D01*
X0066600Y0116600D02*
X0065202Y0117998D01*
X0058018Y0117998D01*
X0061624Y0121600D02*
X0060108Y0123115D01*
X0058018Y0123115D01*
X0061624Y0121600D02*
X0071600Y0121600D01*
X0080620Y0116657D02*
X0134323Y0116657D01*
X0137843Y0110813D02*
X0137545Y0110515D01*
X0137334Y0110150D01*
X0137225Y0109743D01*
X0137225Y0106945D01*
X0141413Y0106945D01*
X0141413Y0111132D01*
X0138615Y0111132D01*
X0138208Y0111023D01*
X0137843Y0110813D01*
X0137695Y0110665D02*
X0084981Y0110665D01*
X0086179Y0109466D02*
X0137225Y0109466D01*
X0137225Y0108268D02*
X0087378Y0108268D01*
X0088439Y0107069D02*
X0137225Y0107069D01*
X0137225Y0106570D02*
X0137225Y0103772D01*
X0137334Y0103365D01*
X0137545Y0103000D01*
X0137843Y0102702D01*
X0138208Y0102492D01*
X0138615Y0102383D01*
X0141413Y0102383D01*
X0141413Y0106570D01*
X0141787Y0106570D01*
X0141787Y0102383D01*
X0144585Y0102383D01*
X0144992Y0102492D01*
X0145357Y0102702D01*
X0145655Y0103000D01*
X0145866Y0103365D01*
X0145975Y0103772D01*
X0145975Y0106570D01*
X0141787Y0106570D01*
X0141787Y0106945D01*
X0141413Y0106945D01*
X0141413Y0106570D01*
X0137225Y0106570D01*
X0137225Y0105870D02*
X0096108Y0105870D01*
X0098070Y0104672D02*
X0137225Y0104672D01*
X0137305Y0103473D02*
X0099268Y0103473D01*
X0100197Y0102275D02*
X0164830Y0102275D01*
X0166028Y0103473D02*
X0145895Y0103473D01*
X0145975Y0104672D02*
X0167227Y0104672D01*
X0168425Y0105870D02*
X0145975Y0105870D01*
X0145975Y0106945D02*
X0145975Y0109743D01*
X0145866Y0110150D01*
X0145655Y0110515D01*
X0145357Y0110813D01*
X0144992Y0111023D01*
X0144585Y0111132D01*
X0141787Y0111132D01*
X0141787Y0106945D01*
X0145975Y0106945D01*
X0145975Y0107069D02*
X0169624Y0107069D01*
X0170822Y0108268D02*
X0145975Y0108268D01*
X0145975Y0109466D02*
X0172021Y0109466D01*
X0173219Y0110665D02*
X0145505Y0110665D01*
X0141787Y0110665D02*
X0141413Y0110665D01*
X0141413Y0109466D02*
X0141787Y0109466D01*
X0141787Y0108268D02*
X0141413Y0108268D01*
X0141413Y0107069D02*
X0141787Y0107069D01*
X0141787Y0105870D02*
X0141413Y0105870D01*
X0141413Y0104672D02*
X0141787Y0104672D01*
X0141787Y0103473D02*
X0141413Y0103473D01*
X0148877Y0116657D02*
X0179212Y0116657D01*
X0178485Y0117856D02*
X0180411Y0117856D01*
X0181378Y0119054D02*
X0181609Y0119054D01*
X0182698Y0120253D02*
X0182808Y0120253D01*
X0183896Y0121451D02*
X0184006Y0121451D01*
X0185095Y0122650D02*
X0185205Y0122650D01*
X0186293Y0123848D02*
X0186403Y0123848D01*
X0187492Y0125047D02*
X0187602Y0125047D01*
X0188690Y0126245D02*
X0188800Y0126245D01*
X0180347Y0135347D02*
X0176600Y0131600D01*
X0180347Y0135347D02*
X0180347Y0140882D01*
X0175615Y0145615D02*
X0171600Y0141600D01*
X0166600Y0141600D01*
X0146600Y0161600D01*
X0101600Y0161600D01*
X0097585Y0157585D01*
X0092853Y0162318D02*
X0094582Y0164047D01*
X0157182Y0164047D01*
X0170882Y0150347D01*
X0170133Y0163541D02*
X0164643Y0169032D01*
X0162167Y0171507D01*
X0159046Y0172800D01*
X0164450Y0172800D01*
X0167685Y0174140D01*
X0170160Y0176615D01*
X0174845Y0181300D01*
X0178501Y0181300D01*
X0181400Y0182077D01*
X0184000Y0183578D01*
X0186122Y0185700D01*
X0186600Y0186528D01*
X0187078Y0185700D01*
X0189200Y0183578D01*
X0191800Y0182077D01*
X0194699Y0181300D01*
X0204101Y0181300D01*
X0207000Y0182077D01*
X0209600Y0183578D01*
X0211722Y0185700D01*
X0213223Y0188300D01*
X0214000Y0191199D01*
X0214000Y0194201D01*
X0213223Y0197100D01*
X0211722Y0199700D01*
X0209600Y0201822D01*
X0207000Y0203323D01*
X0204101Y0204100D01*
X0194699Y0204100D01*
X0191800Y0203323D01*
X0189200Y0201822D01*
X0187078Y0199700D01*
X0186600Y0198872D01*
X0186122Y0199700D01*
X0184000Y0201822D01*
X0181400Y0203323D01*
X0178501Y0204100D01*
X0169099Y0204100D01*
X0166200Y0203323D01*
X0163600Y0201822D01*
X0161478Y0199700D01*
X0159977Y0197100D01*
X0159200Y0194201D01*
X0159200Y0191199D01*
X0159338Y0190683D01*
X0159055Y0190400D01*
X0088786Y0190400D01*
X0089000Y0191199D01*
X0089000Y0194201D01*
X0088223Y0197100D01*
X0086722Y0199700D01*
X0084600Y0201822D01*
X0082000Y0203323D01*
X0079101Y0204100D01*
X0069699Y0204100D01*
X0066800Y0203323D01*
X0064200Y0201822D01*
X0062078Y0199700D01*
X0061600Y0198872D01*
X0061122Y0199700D01*
X0059000Y0201822D01*
X0056400Y0203323D01*
X0053501Y0204100D01*
X0044099Y0204100D01*
X0041200Y0203323D01*
X0038600Y0201822D01*
X0036478Y0199700D01*
X0034977Y0197100D01*
X0034200Y0194201D01*
X0034200Y0191199D01*
X0034977Y0188300D01*
X0035298Y0187743D01*
X0021615Y0174060D01*
X0019140Y0171585D01*
X0017800Y0168350D01*
X0017800Y0138347D01*
X0017431Y0138500D01*
X0009800Y0138500D01*
X0009800Y0227101D01*
X0108864Y0227101D01*
X0108541Y0226456D01*
X0108302Y0223083D01*
X0108461Y0222605D01*
X0108400Y0222457D01*
X0108400Y0219076D01*
X0109694Y0215952D01*
X0112085Y0213561D01*
X0115209Y0212267D01*
X0115898Y0212267D01*
X0116194Y0212168D01*
X0117579Y0212267D01*
X0118969Y0212267D01*
X0119256Y0212386D01*
X0119567Y0212408D01*
X0120809Y0213029D01*
X0121705Y0213400D01*
X0122949Y0213400D01*
X0123776Y0213254D01*
X0125590Y0213574D01*
X0126730Y0213258D01*
X0130086Y0213668D01*
X0133030Y0215332D01*
X0135113Y0217996D01*
X0136371Y0222526D01*
X0136820Y0223609D01*
X0136820Y0224141D01*
X0136962Y0224654D01*
X0136820Y0225818D01*
X0136820Y0226991D01*
X0136774Y0227101D01*
X0238321Y0227101D01*
X0238321Y0132732D01*
X0237698Y0133811D01*
X0235464Y0136045D01*
X0232728Y0137625D01*
X0230726Y0138161D01*
X0233225Y0140660D01*
X0233225Y0151595D01*
X0225493Y0159328D01*
X0215400Y0159328D01*
X0215400Y0163350D01*
X0214060Y0166585D01*
X0211585Y0169060D01*
X0209060Y0171585D01*
X0206585Y0174060D01*
X0203350Y0175400D01*
X0187599Y0175400D01*
X0186683Y0175779D01*
X0183421Y0175779D01*
X0180407Y0174531D01*
X0170640Y0164764D01*
X0170133Y0163541D01*
X0170571Y0164598D02*
X0169077Y0164598D01*
X0167878Y0165796D02*
X0171672Y0165796D01*
X0172871Y0166995D02*
X0166680Y0166995D01*
X0165481Y0168193D02*
X0174069Y0168193D01*
X0175268Y0169392D02*
X0164283Y0169392D01*
X0164643Y0169032D02*
X0164643Y0169032D01*
X0163084Y0170590D02*
X0176466Y0170590D01*
X0177665Y0171789D02*
X0161488Y0171789D01*
X0164902Y0172987D02*
X0178863Y0172987D01*
X0180062Y0174186D02*
X0167731Y0174186D01*
X0168929Y0175384D02*
X0182466Y0175384D01*
X0178787Y0181377D02*
X0194413Y0181377D01*
X0190937Y0182575D02*
X0182263Y0182575D01*
X0184196Y0183774D02*
X0189004Y0183774D01*
X0187806Y0184972D02*
X0185394Y0184972D01*
X0186394Y0186171D02*
X0186806Y0186171D01*
X0186878Y0199354D02*
X0186322Y0199354D01*
X0185269Y0200553D02*
X0187931Y0200553D01*
X0189129Y0201751D02*
X0184071Y0201751D01*
X0182047Y0202950D02*
X0191153Y0202950D01*
X0193684Y0206395D02*
X0193073Y0206839D01*
X0192539Y0207373D01*
X0192095Y0207984D01*
X0191752Y0208657D01*
X0191518Y0209376D01*
X0191404Y0210100D01*
X0199000Y0210100D01*
X0199800Y0210100D01*
X0199800Y0210900D01*
X0199000Y0210900D01*
X0199000Y0215300D01*
X0195822Y0215300D01*
X0195076Y0215182D01*
X0194357Y0214948D01*
X0193684Y0214605D01*
X0193073Y0214161D01*
X0192539Y0213627D01*
X0192095Y0213016D01*
X0191752Y0212343D01*
X0191518Y0211624D01*
X0191404Y0210900D01*
X0199000Y0210900D01*
X0199000Y0210100D01*
X0199000Y0205700D01*
X0195822Y0205700D01*
X0195076Y0205818D01*
X0194357Y0206052D01*
X0193684Y0206395D01*
X0193477Y0206545D02*
X0179723Y0206545D01*
X0179516Y0206395D02*
X0180127Y0206839D01*
X0180661Y0207373D01*
X0181105Y0207984D01*
X0181448Y0208657D01*
X0181682Y0209376D01*
X0181796Y0210100D01*
X0174200Y0210100D01*
X0174200Y0210900D01*
X0173400Y0210900D01*
X0173400Y0215300D01*
X0170222Y0215300D01*
X0169476Y0215182D01*
X0168757Y0214948D01*
X0168084Y0214605D01*
X0167473Y0214161D01*
X0166939Y0213627D01*
X0166495Y0213016D01*
X0166152Y0212343D01*
X0165918Y0211624D01*
X0165804Y0210900D01*
X0173400Y0210900D01*
X0173400Y0210100D01*
X0174200Y0210100D01*
X0174200Y0205700D01*
X0177378Y0205700D01*
X0178124Y0205818D01*
X0178843Y0206052D01*
X0179516Y0206395D01*
X0180931Y0207744D02*
X0192269Y0207744D01*
X0191659Y0208942D02*
X0181541Y0208942D01*
X0181796Y0210900D02*
X0181682Y0211624D01*
X0181448Y0212343D01*
X0181105Y0213016D01*
X0180661Y0213627D01*
X0180127Y0214161D01*
X0179516Y0214605D01*
X0178843Y0214948D01*
X0178124Y0215182D01*
X0177378Y0215300D01*
X0174200Y0215300D01*
X0174200Y0210900D01*
X0181796Y0210900D01*
X0181727Y0211339D02*
X0191473Y0211339D01*
X0191851Y0212538D02*
X0181349Y0212538D01*
X0180552Y0213737D02*
X0192648Y0213737D01*
X0194331Y0214935D02*
X0178869Y0214935D01*
X0174200Y0214935D02*
X0173400Y0214935D01*
X0173400Y0213737D02*
X0174200Y0213737D01*
X0174200Y0212538D02*
X0173400Y0212538D01*
X0173400Y0211339D02*
X0174200Y0211339D01*
X0174200Y0210141D02*
X0199000Y0210141D01*
X0199800Y0210141D02*
X0238321Y0210141D01*
X0238321Y0211339D02*
X0207327Y0211339D01*
X0207282Y0211624D02*
X0207048Y0212343D01*
X0206705Y0213016D01*
X0206261Y0213627D01*
X0205727Y0214161D01*
X0205116Y0214605D01*
X0204443Y0214948D01*
X0203724Y0215182D01*
X0202978Y0215300D01*
X0199800Y0215300D01*
X0199800Y0210900D01*
X0207396Y0210900D01*
X0207282Y0211624D01*
X0206949Y0212538D02*
X0238321Y0212538D01*
X0238321Y0213737D02*
X0206152Y0213737D01*
X0204469Y0214935D02*
X0238321Y0214935D01*
X0238321Y0216134D02*
X0133657Y0216134D01*
X0134594Y0217332D02*
X0238321Y0217332D01*
X0238321Y0218531D02*
X0135261Y0218531D01*
X0135594Y0219729D02*
X0238321Y0219729D01*
X0238321Y0220928D02*
X0135927Y0220928D01*
X0136260Y0222126D02*
X0238321Y0222126D01*
X0238321Y0223325D02*
X0136702Y0223325D01*
X0136926Y0224523D02*
X0238321Y0224523D01*
X0238321Y0225722D02*
X0136832Y0225722D01*
X0136820Y0226920D02*
X0238321Y0226920D01*
X0238321Y0208942D02*
X0207141Y0208942D01*
X0207048Y0208657D02*
X0207282Y0209376D01*
X0207396Y0210100D01*
X0199800Y0210100D01*
X0199800Y0205700D01*
X0202978Y0205700D01*
X0203724Y0205818D01*
X0204443Y0206052D01*
X0205116Y0206395D01*
X0205727Y0206839D01*
X0206261Y0207373D01*
X0206705Y0207984D01*
X0207048Y0208657D01*
X0206531Y0207744D02*
X0238321Y0207744D01*
X0238321Y0206545D02*
X0205323Y0206545D01*
X0207647Y0202950D02*
X0238321Y0202950D01*
X0238321Y0204148D02*
X0009800Y0204148D01*
X0009800Y0202950D02*
X0040553Y0202950D01*
X0038529Y0201751D02*
X0009800Y0201751D01*
X0009800Y0200553D02*
X0037331Y0200553D01*
X0036278Y0199354D02*
X0009800Y0199354D01*
X0009800Y0198156D02*
X0035586Y0198156D01*
X0034939Y0196957D02*
X0009800Y0196957D01*
X0009800Y0195759D02*
X0034617Y0195759D01*
X0034296Y0194560D02*
X0009800Y0194560D01*
X0009800Y0193362D02*
X0034200Y0193362D01*
X0034200Y0192163D02*
X0009800Y0192163D01*
X0009800Y0190965D02*
X0034263Y0190965D01*
X0034584Y0189766D02*
X0009800Y0189766D01*
X0009800Y0188568D02*
X0034905Y0188568D01*
X0034924Y0187369D02*
X0009800Y0187369D01*
X0009800Y0186171D02*
X0033726Y0186171D01*
X0032527Y0184972D02*
X0009800Y0184972D01*
X0009800Y0183774D02*
X0031329Y0183774D01*
X0030130Y0182575D02*
X0009800Y0182575D01*
X0009800Y0181377D02*
X0028932Y0181377D01*
X0027733Y0180178D02*
X0009800Y0180178D01*
X0009800Y0178980D02*
X0026535Y0178980D01*
X0025336Y0177781D02*
X0009800Y0177781D01*
X0009800Y0176583D02*
X0024138Y0176583D01*
X0022939Y0175384D02*
X0009800Y0175384D01*
X0009800Y0174186D02*
X0021741Y0174186D01*
X0020542Y0172987D02*
X0009800Y0172987D01*
X0009800Y0171789D02*
X0019344Y0171789D01*
X0018728Y0170590D02*
X0009800Y0170590D01*
X0009800Y0169392D02*
X0018231Y0169392D01*
X0017800Y0168193D02*
X0009800Y0168193D01*
X0009800Y0166995D02*
X0017800Y0166995D01*
X0017800Y0165796D02*
X0009800Y0165796D01*
X0009800Y0164598D02*
X0017800Y0164598D01*
X0017800Y0163399D02*
X0009800Y0163399D01*
X0009800Y0162201D02*
X0017800Y0162201D01*
X0017800Y0161002D02*
X0009800Y0161002D01*
X0009800Y0159803D02*
X0017800Y0159803D01*
X0017800Y0158605D02*
X0009800Y0158605D01*
X0009800Y0157406D02*
X0017800Y0157406D01*
X0017800Y0156208D02*
X0009800Y0156208D01*
X0009800Y0155009D02*
X0017800Y0155009D01*
X0017800Y0153811D02*
X0009800Y0153811D01*
X0009800Y0152612D02*
X0017800Y0152612D01*
X0017800Y0151414D02*
X0009800Y0151414D01*
X0009800Y0150215D02*
X0017800Y0150215D01*
X0017800Y0149017D02*
X0009800Y0149017D01*
X0009800Y0147818D02*
X0017800Y0147818D01*
X0017800Y0146620D02*
X0009800Y0146620D01*
X0009800Y0145421D02*
X0017800Y0145421D01*
X0017800Y0144223D02*
X0009800Y0144223D01*
X0009800Y0143024D02*
X0017800Y0143024D01*
X0017800Y0141826D02*
X0009800Y0141826D01*
X0009800Y0140627D02*
X0017800Y0140627D01*
X0017800Y0139429D02*
X0009800Y0139429D01*
X0026600Y0131600D02*
X0035085Y0123115D01*
X0035183Y0123115D01*
X0036002Y0131600D02*
X0031600Y0131600D01*
X0036002Y0131600D02*
X0041002Y0136600D01*
X0042198Y0146600D02*
X0036600Y0146600D01*
X0042198Y0146600D02*
X0052198Y0136600D01*
X0071600Y0136600D01*
X0076600Y0131600D01*
X0111600Y0131600D01*
X0116600Y0136600D01*
X0116600Y0147853D01*
X0111600Y0152853D01*
X0145347Y0152853D01*
X0171600Y0126600D01*
X0176600Y0126600D01*
X0192318Y0142318D01*
X0192318Y0152853D01*
X0192318Y0137318D01*
X0191600Y0136600D01*
X0201600Y0126600D02*
X0156600Y0081600D01*
X0156600Y0071600D01*
X0161600Y0066600D01*
X0171600Y0066600D01*
X0175615Y0070615D01*
X0170882Y0075347D02*
X0170882Y0085882D01*
X0206600Y0121600D01*
X0206600Y0161600D01*
X0201600Y0166600D01*
X0187135Y0166600D01*
X0182853Y0162318D01*
X0187585Y0157585D02*
X0191600Y0161600D01*
X0196600Y0161600D01*
X0201600Y0156600D01*
X0201600Y0126600D01*
X0178014Y0115459D02*
X0081212Y0115459D01*
X0081533Y0114260D02*
X0176815Y0114260D01*
X0175616Y0113062D02*
X0082584Y0113062D01*
X0083782Y0111863D02*
X0174418Y0111863D01*
X0169715Y0117856D02*
X0150159Y0117856D01*
X0151339Y0119054D02*
X0166822Y0119054D01*
X0165502Y0120253D02*
X0151836Y0120253D01*
X0152332Y0121451D02*
X0164304Y0121451D01*
X0163105Y0122650D02*
X0152575Y0122650D01*
X0152575Y0123848D02*
X0161907Y0123848D01*
X0160708Y0125047D02*
X0152575Y0125047D01*
X0152575Y0126245D02*
X0159510Y0126245D01*
X0158311Y0127444D02*
X0152575Y0127444D01*
X0152575Y0128642D02*
X0157113Y0128642D01*
X0155914Y0129841D02*
X0152575Y0129841D01*
X0152496Y0131039D02*
X0154716Y0131039D01*
X0153517Y0132238D02*
X0151999Y0132238D01*
X0152319Y0133436D02*
X0151503Y0133436D01*
X0151120Y0134635D02*
X0150554Y0134635D01*
X0149922Y0135833D02*
X0149355Y0135833D01*
X0148723Y0137032D02*
X0146937Y0137032D01*
X0147525Y0138230D02*
X0126809Y0138230D01*
X0126883Y0137032D02*
X0136263Y0137032D01*
X0133845Y0135833D02*
X0126883Y0135833D01*
X0126487Y0139429D02*
X0146326Y0139429D01*
X0145128Y0140627D02*
X0126148Y0140627D01*
X0125456Y0141826D02*
X0143929Y0141826D01*
X0142731Y0143024D02*
X0125400Y0143024D01*
X0111600Y0152853D02*
X0102318Y0152853D01*
X0085615Y0145615D02*
X0081600Y0141600D01*
X0081600Y0136600D01*
X0076600Y0141600D02*
X0076600Y0146065D01*
X0080882Y0150347D01*
X0041600Y0181600D02*
X0026600Y0166600D01*
X0026600Y0131600D01*
X0013261Y0107761D02*
X0012100Y0106600D01*
X0016276Y0095399D02*
X0016317Y0095410D01*
X0016317Y0095246D01*
X0017018Y0092631D01*
X0017800Y0091277D01*
X0017800Y0024850D01*
X0019140Y0021615D01*
X0021615Y0019140D01*
X0030955Y0009800D01*
X0009800Y0009800D01*
X0009800Y0091450D01*
X0009859Y0091430D01*
X0010683Y0091300D01*
X0010700Y0091300D01*
X0010700Y0094700D01*
X0011500Y0094700D01*
X0011500Y0091300D01*
X0011517Y0091300D01*
X0012341Y0091430D01*
X0013134Y0091688D01*
X0013878Y0092067D01*
X0014553Y0092557D01*
X0015143Y0093147D01*
X0015633Y0093822D01*
X0016012Y0094566D01*
X0016269Y0095359D01*
X0016276Y0095399D01*
X0016361Y0095084D02*
X0016180Y0095084D01*
X0016682Y0093885D02*
X0015665Y0093885D01*
X0014682Y0092687D02*
X0017003Y0092687D01*
X0017678Y0091488D02*
X0012519Y0091488D01*
X0011500Y0091488D02*
X0010700Y0091488D01*
X0010700Y0092687D02*
X0011500Y0092687D01*
X0011500Y0093885D02*
X0010700Y0093885D01*
X0009800Y0090290D02*
X0017800Y0090290D01*
X0017800Y0089091D02*
X0009800Y0089091D01*
X0009800Y0087893D02*
X0017800Y0087893D01*
X0017800Y0086694D02*
X0009800Y0086694D01*
X0009800Y0085496D02*
X0017800Y0085496D01*
X0017800Y0084297D02*
X0009800Y0084297D01*
X0009800Y0083099D02*
X0017800Y0083099D01*
X0017800Y0081900D02*
X0009800Y0081900D01*
X0009800Y0080702D02*
X0017800Y0080702D01*
X0017800Y0079503D02*
X0009800Y0079503D01*
X0009800Y0078305D02*
X0017800Y0078305D01*
X0017800Y0077106D02*
X0009800Y0077106D01*
X0009800Y0075908D02*
X0017800Y0075908D01*
X0017800Y0074709D02*
X0009800Y0074709D01*
X0009800Y0073511D02*
X0017800Y0073511D01*
X0017800Y0072312D02*
X0009800Y0072312D01*
X0009800Y0071114D02*
X0017800Y0071114D01*
X0017800Y0069915D02*
X0009800Y0069915D01*
X0009800Y0068717D02*
X0017800Y0068717D01*
X0017800Y0067518D02*
X0009800Y0067518D01*
X0009800Y0066320D02*
X0017800Y0066320D01*
X0017800Y0065121D02*
X0009800Y0065121D01*
X0009800Y0063923D02*
X0017800Y0063923D01*
X0017800Y0062724D02*
X0009800Y0062724D01*
X0009800Y0061526D02*
X0017800Y0061526D01*
X0017800Y0060327D02*
X0009800Y0060327D01*
X0009800Y0059129D02*
X0017800Y0059129D01*
X0017800Y0057930D02*
X0009800Y0057930D01*
X0009800Y0056732D02*
X0017800Y0056732D01*
X0017800Y0055533D02*
X0009800Y0055533D01*
X0009800Y0054334D02*
X0017800Y0054334D01*
X0017800Y0053136D02*
X0009800Y0053136D01*
X0009800Y0051937D02*
X0017800Y0051937D01*
X0017800Y0050739D02*
X0009800Y0050739D01*
X0009800Y0049540D02*
X0017800Y0049540D01*
X0017800Y0048342D02*
X0009800Y0048342D01*
X0009800Y0047143D02*
X0017800Y0047143D01*
X0017800Y0045945D02*
X0009800Y0045945D01*
X0009800Y0044746D02*
X0017800Y0044746D01*
X0017800Y0043548D02*
X0009800Y0043548D01*
X0009800Y0042349D02*
X0017800Y0042349D01*
X0017800Y0041151D02*
X0009800Y0041151D01*
X0009800Y0039952D02*
X0017800Y0039952D01*
X0017800Y0038754D02*
X0009800Y0038754D01*
X0009800Y0037555D02*
X0017800Y0037555D01*
X0017800Y0036357D02*
X0009800Y0036357D01*
X0009800Y0035158D02*
X0017800Y0035158D01*
X0017800Y0033960D02*
X0009800Y0033960D01*
X0009800Y0032761D02*
X0017800Y0032761D01*
X0017800Y0031563D02*
X0009800Y0031563D01*
X0009800Y0030364D02*
X0017800Y0030364D01*
X0017800Y0029166D02*
X0009800Y0029166D01*
X0009800Y0027967D02*
X0017800Y0027967D01*
X0017800Y0026769D02*
X0009800Y0026769D01*
X0009800Y0025570D02*
X0017800Y0025570D01*
X0017998Y0024372D02*
X0009800Y0024372D01*
X0009800Y0023173D02*
X0018494Y0023173D01*
X0018991Y0021975D02*
X0009800Y0021975D01*
X0009800Y0020776D02*
X0019979Y0020776D01*
X0021177Y0019578D02*
X0009800Y0019578D01*
X0009800Y0018379D02*
X0022376Y0018379D01*
X0021615Y0019140D02*
X0021615Y0019140D01*
X0023574Y0017181D02*
X0009800Y0017181D01*
X0009800Y0015982D02*
X0024773Y0015982D01*
X0025971Y0014784D02*
X0009800Y0014784D01*
X0009800Y0013585D02*
X0027170Y0013585D01*
X0028368Y0012387D02*
X0009800Y0012387D01*
X0009800Y0011188D02*
X0029567Y0011188D01*
X0030765Y0009990D02*
X0009800Y0009990D01*
X0035400Y0030364D02*
X0040356Y0030364D01*
X0038415Y0031563D02*
X0035400Y0031563D01*
X0035400Y0032761D02*
X0037217Y0032761D01*
X0036212Y0033960D02*
X0035400Y0033960D01*
X0035400Y0035158D02*
X0035520Y0035158D01*
X0036479Y0029166D02*
X0043854Y0029166D01*
X0043034Y0026769D02*
X0038876Y0026769D01*
X0037678Y0027967D02*
X0165477Y0027967D01*
X0164888Y0026769D02*
X0080166Y0026769D01*
X0081448Y0025570D02*
X0164567Y0025570D01*
X0164246Y0024372D02*
X0082104Y0024372D01*
X0082385Y0023173D02*
X0164200Y0023173D01*
X0164200Y0021975D02*
X0082345Y0021975D01*
X0082007Y0020776D02*
X0164313Y0020776D01*
X0166169Y0029166D02*
X0079346Y0029166D01*
X0074800Y0026769D02*
X0074000Y0026769D01*
X0074000Y0025570D02*
X0074800Y0025570D01*
X0074800Y0024372D02*
X0074000Y0024372D01*
X0074000Y0023173D02*
X0074800Y0023173D01*
X0068634Y0026769D02*
X0054566Y0026769D01*
X0055848Y0025570D02*
X0067352Y0025570D01*
X0066696Y0024372D02*
X0056504Y0024372D01*
X0056785Y0023173D02*
X0066415Y0023173D01*
X0066455Y0021975D02*
X0056745Y0021975D01*
X0056407Y0020776D02*
X0066793Y0020776D01*
X0069454Y0029166D02*
X0053746Y0029166D01*
X0057244Y0030364D02*
X0065956Y0030364D01*
X0064015Y0031563D02*
X0059185Y0031563D01*
X0060383Y0032761D02*
X0062817Y0032761D01*
X0061812Y0033960D02*
X0061388Y0033960D01*
X0061328Y0047143D02*
X0061872Y0047143D01*
X0062920Y0048342D02*
X0060280Y0048342D01*
X0059082Y0049540D02*
X0064118Y0049540D01*
X0066134Y0050739D02*
X0057066Y0050739D01*
X0049200Y0026769D02*
X0048400Y0026769D01*
X0048400Y0025570D02*
X0049200Y0025570D01*
X0049200Y0024372D02*
X0048400Y0024372D01*
X0048400Y0023173D02*
X0049200Y0023173D01*
X0041752Y0025570D02*
X0040075Y0025570D01*
X0082844Y0030364D02*
X0167142Y0030364D01*
X0168341Y0031563D02*
X0084785Y0031563D01*
X0085983Y0032761D02*
X0170227Y0032761D01*
X0173576Y0033960D02*
X0086988Y0033960D01*
X0086922Y0057930D02*
X0159536Y0057930D01*
X0156642Y0059129D02*
X0088787Y0059129D01*
X0090117Y0060327D02*
X0155428Y0060327D01*
X0154229Y0061526D02*
X0091316Y0061526D01*
X0092514Y0062724D02*
X0153031Y0062724D01*
X0151832Y0063923D02*
X0093713Y0063923D01*
X0094911Y0065121D02*
X0096725Y0065121D01*
X0103512Y0065121D02*
X0150634Y0065121D01*
X0149435Y0066320D02*
X0105444Y0066320D01*
X0106642Y0067518D02*
X0148766Y0067518D01*
X0148269Y0068717D02*
X0107841Y0068717D01*
X0109039Y0069915D02*
X0147800Y0069915D01*
X0147800Y0071114D02*
X0110238Y0071114D01*
X0111436Y0072312D02*
X0147800Y0072312D01*
X0147800Y0073511D02*
X0112635Y0073511D01*
X0113833Y0074709D02*
X0147800Y0074709D01*
X0147800Y0075908D02*
X0114738Y0075908D01*
X0115235Y0077106D02*
X0147800Y0077106D01*
X0147800Y0078305D02*
X0115731Y0078305D01*
X0116414Y0079503D02*
X0147800Y0079503D01*
X0147800Y0080702D02*
X0117612Y0080702D01*
X0120129Y0081900D02*
X0147800Y0081900D01*
X0147800Y0083099D02*
X0122441Y0083099D01*
X0123839Y0084297D02*
X0148192Y0084297D01*
X0148689Y0085496D02*
X0124949Y0085496D01*
X0125641Y0086694D02*
X0149249Y0086694D01*
X0150448Y0087893D02*
X0126252Y0087893D01*
X0126573Y0089091D02*
X0151646Y0089091D01*
X0152845Y0090290D02*
X0126883Y0090290D01*
X0126883Y0091488D02*
X0154043Y0091488D01*
X0155242Y0092687D02*
X0126883Y0092687D01*
X0126633Y0093885D02*
X0156440Y0093885D01*
X0157639Y0095084D02*
X0126312Y0095084D01*
X0125770Y0096282D02*
X0158837Y0096282D01*
X0160036Y0097481D02*
X0125078Y0097481D01*
X0124062Y0098679D02*
X0161234Y0098679D01*
X0162433Y0099878D02*
X0122828Y0099878D01*
X0120752Y0101076D02*
X0163631Y0101076D01*
X0196642Y0067518D02*
X0238321Y0067518D01*
X0238321Y0066320D02*
X0195444Y0066320D01*
X0193512Y0065121D02*
X0238321Y0065121D01*
X0238321Y0063923D02*
X0183713Y0063923D01*
X0184911Y0065121D02*
X0186725Y0065121D01*
X0182514Y0062724D02*
X0238321Y0062724D01*
X0238321Y0061526D02*
X0181316Y0061526D01*
X0180117Y0060327D02*
X0238321Y0060327D01*
X0238321Y0059129D02*
X0178787Y0059129D01*
X0176922Y0057930D02*
X0238321Y0057930D01*
X0238321Y0068717D02*
X0197841Y0068717D01*
X0199039Y0069915D02*
X0238321Y0069915D01*
X0238321Y0071114D02*
X0200238Y0071114D01*
X0201436Y0072312D02*
X0238321Y0072312D01*
X0238321Y0073511D02*
X0202635Y0073511D01*
X0203833Y0074709D02*
X0238321Y0074709D01*
X0238321Y0075908D02*
X0204738Y0075908D01*
X0205235Y0077106D02*
X0238321Y0077106D01*
X0238321Y0078305D02*
X0205731Y0078305D01*
X0205779Y0079503D02*
X0238321Y0079503D01*
X0238321Y0080702D02*
X0225851Y0080702D01*
X0226625Y0081900D02*
X0238321Y0081900D01*
X0238321Y0083099D02*
X0226625Y0083099D01*
X0226625Y0084297D02*
X0238321Y0084297D01*
X0238321Y0085496D02*
X0226625Y0085496D01*
X0226625Y0087893D02*
X0238321Y0087893D01*
X0238321Y0089091D02*
X0226625Y0089091D01*
X0226625Y0090290D02*
X0238321Y0090290D01*
X0238321Y0091488D02*
X0226625Y0091488D01*
X0226517Y0092687D02*
X0238321Y0092687D01*
X0238321Y0093885D02*
X0215243Y0093885D01*
X0217902Y0095084D02*
X0225298Y0095084D01*
X0222239Y0096282D02*
X0220961Y0096282D01*
X0220409Y0092687D02*
X0219641Y0092687D01*
X0219641Y0091488D02*
X0220409Y0091488D01*
X0220409Y0090290D02*
X0219641Y0090290D01*
X0219641Y0089091D02*
X0220409Y0089091D01*
X0220409Y0087893D02*
X0219641Y0087893D01*
X0219641Y0086694D02*
X0208052Y0086694D01*
X0209250Y0087893D02*
X0213425Y0087893D01*
X0213425Y0089091D02*
X0210449Y0089091D01*
X0211647Y0090290D02*
X0213425Y0090290D01*
X0213425Y0091488D02*
X0212846Y0091488D01*
X0213425Y0085496D02*
X0206853Y0085496D01*
X0205654Y0084297D02*
X0213425Y0084297D01*
X0213425Y0083099D02*
X0205193Y0083099D01*
X0205690Y0081900D02*
X0213425Y0081900D01*
X0214199Y0080702D02*
X0205779Y0080702D01*
X0219641Y0080702D02*
X0220409Y0080702D01*
X0220409Y0081900D02*
X0219641Y0081900D01*
X0219641Y0083099D02*
X0220409Y0083099D01*
X0220409Y0084297D02*
X0219641Y0084297D01*
X0219641Y0085496D02*
X0220409Y0085496D01*
X0220410Y0086694D02*
X0238321Y0086694D01*
X0238321Y0095084D02*
X0230894Y0095084D01*
X0233953Y0096282D02*
X0238321Y0096282D01*
X0238321Y0097481D02*
X0235790Y0097481D01*
X0236989Y0098679D02*
X0238321Y0098679D01*
X0238321Y0099878D02*
X0237981Y0099878D01*
X0237915Y0133436D02*
X0238321Y0133436D01*
X0238321Y0134635D02*
X0236874Y0134635D01*
X0235676Y0135833D02*
X0238321Y0135833D01*
X0238321Y0137032D02*
X0233755Y0137032D01*
X0231994Y0139429D02*
X0238321Y0139429D01*
X0238321Y0140627D02*
X0233193Y0140627D01*
X0233225Y0141826D02*
X0238321Y0141826D01*
X0238321Y0143024D02*
X0233225Y0143024D01*
X0233225Y0144223D02*
X0238321Y0144223D01*
X0238321Y0145421D02*
X0233225Y0145421D01*
X0233225Y0146620D02*
X0238321Y0146620D01*
X0238321Y0147818D02*
X0233225Y0147818D01*
X0233225Y0149017D02*
X0238321Y0149017D01*
X0238321Y0150215D02*
X0233225Y0150215D01*
X0233225Y0151414D02*
X0238321Y0151414D01*
X0238321Y0152612D02*
X0232208Y0152612D01*
X0231009Y0153811D02*
X0238321Y0153811D01*
X0238321Y0155009D02*
X0229811Y0155009D01*
X0228612Y0156208D02*
X0238321Y0156208D01*
X0238321Y0157406D02*
X0227414Y0157406D01*
X0226215Y0158605D02*
X0238321Y0158605D01*
X0238321Y0159803D02*
X0215400Y0159803D01*
X0215400Y0161002D02*
X0238321Y0161002D01*
X0238321Y0162201D02*
X0215400Y0162201D01*
X0215380Y0163399D02*
X0238321Y0163399D01*
X0238321Y0164598D02*
X0214883Y0164598D01*
X0214387Y0165796D02*
X0238321Y0165796D01*
X0238321Y0166995D02*
X0213651Y0166995D01*
X0212452Y0168193D02*
X0238321Y0168193D01*
X0238321Y0169392D02*
X0211253Y0169392D01*
X0210055Y0170590D02*
X0238321Y0170590D01*
X0238321Y0171789D02*
X0208856Y0171789D01*
X0207658Y0172987D02*
X0238321Y0172987D01*
X0238321Y0174186D02*
X0206282Y0174186D01*
X0203389Y0175384D02*
X0238321Y0175384D01*
X0238321Y0176583D02*
X0170128Y0176583D01*
X0170160Y0176615D02*
X0170160Y0176615D01*
X0171326Y0177781D02*
X0238321Y0177781D01*
X0238321Y0178980D02*
X0172525Y0178980D01*
X0173723Y0180178D02*
X0238321Y0180178D01*
X0238321Y0181377D02*
X0204387Y0181377D01*
X0207863Y0182575D02*
X0238321Y0182575D01*
X0238321Y0183774D02*
X0209796Y0183774D01*
X0210994Y0184972D02*
X0238321Y0184972D01*
X0238321Y0186171D02*
X0211994Y0186171D01*
X0212686Y0187369D02*
X0238321Y0187369D01*
X0238321Y0188568D02*
X0213295Y0188568D01*
X0213616Y0189766D02*
X0238321Y0189766D01*
X0238321Y0190965D02*
X0213937Y0190965D01*
X0214000Y0192163D02*
X0238321Y0192163D01*
X0238321Y0193362D02*
X0214000Y0193362D01*
X0213904Y0194560D02*
X0238321Y0194560D01*
X0238321Y0195759D02*
X0213583Y0195759D01*
X0213261Y0196957D02*
X0238321Y0196957D01*
X0238321Y0198156D02*
X0212614Y0198156D01*
X0211922Y0199354D02*
X0238321Y0199354D01*
X0238321Y0200553D02*
X0210869Y0200553D01*
X0209671Y0201751D02*
X0238321Y0201751D01*
X0238321Y0205347D02*
X0009800Y0205347D01*
X0009800Y0206545D02*
X0042877Y0206545D01*
X0043084Y0206395D02*
X0043757Y0206052D01*
X0044476Y0205818D01*
X0045222Y0205700D01*
X0048400Y0205700D01*
X0048400Y0210100D01*
X0049200Y0210100D01*
X0049200Y0210900D01*
X0048400Y0210900D01*
X0048400Y0215300D01*
X0045222Y0215300D01*
X0044476Y0215182D01*
X0043757Y0214948D01*
X0043084Y0214605D01*
X0042473Y0214161D01*
X0041939Y0213627D01*
X0041495Y0213016D01*
X0041152Y0212343D01*
X0040918Y0211624D01*
X0040804Y0210900D01*
X0048400Y0210900D01*
X0048400Y0210100D01*
X0040804Y0210100D01*
X0040918Y0209376D01*
X0041152Y0208657D01*
X0041495Y0207984D01*
X0041939Y0207373D01*
X0042473Y0206839D01*
X0043084Y0206395D01*
X0041669Y0207744D02*
X0009800Y0207744D01*
X0009800Y0208942D02*
X0041059Y0208942D01*
X0040873Y0211339D02*
X0009800Y0211339D01*
X0009800Y0210141D02*
X0048400Y0210141D01*
X0049200Y0210141D02*
X0074000Y0210141D01*
X0074000Y0210100D02*
X0066404Y0210100D01*
X0066518Y0209376D01*
X0066752Y0208657D01*
X0067095Y0207984D01*
X0067539Y0207373D01*
X0068073Y0206839D01*
X0068684Y0206395D01*
X0069357Y0206052D01*
X0070076Y0205818D01*
X0070822Y0205700D01*
X0074000Y0205700D01*
X0074000Y0210100D01*
X0074800Y0210100D01*
X0074800Y0210900D01*
X0074000Y0210900D01*
X0074000Y0215300D01*
X0070822Y0215300D01*
X0070076Y0215182D01*
X0069357Y0214948D01*
X0068684Y0214605D01*
X0068073Y0214161D01*
X0067539Y0213627D01*
X0067095Y0213016D01*
X0066752Y0212343D01*
X0066518Y0211624D01*
X0066404Y0210900D01*
X0074000Y0210900D01*
X0074000Y0210100D01*
X0074800Y0210100D02*
X0074800Y0205700D01*
X0077978Y0205700D01*
X0078724Y0205818D01*
X0079443Y0206052D01*
X0080116Y0206395D01*
X0080727Y0206839D01*
X0081261Y0207373D01*
X0081705Y0207984D01*
X0082048Y0208657D01*
X0082282Y0209376D01*
X0082396Y0210100D01*
X0074800Y0210100D01*
X0074800Y0210141D02*
X0173400Y0210141D01*
X0173400Y0210100D02*
X0165804Y0210100D01*
X0165918Y0209376D01*
X0166152Y0208657D01*
X0166495Y0207984D01*
X0166939Y0207373D01*
X0167473Y0206839D01*
X0168084Y0206395D01*
X0168757Y0206052D01*
X0169476Y0205818D01*
X0170222Y0205700D01*
X0173400Y0205700D01*
X0173400Y0210100D01*
X0173400Y0208942D02*
X0174200Y0208942D01*
X0174200Y0207744D02*
X0173400Y0207744D01*
X0173400Y0206545D02*
X0174200Y0206545D01*
X0167877Y0206545D02*
X0080323Y0206545D01*
X0081531Y0207744D02*
X0166669Y0207744D01*
X0166059Y0208942D02*
X0082141Y0208942D01*
X0082396Y0210900D02*
X0082282Y0211624D01*
X0082048Y0212343D01*
X0081705Y0213016D01*
X0081261Y0213627D01*
X0080727Y0214161D01*
X0080116Y0214605D01*
X0079443Y0214948D01*
X0078724Y0215182D01*
X0077978Y0215300D01*
X0074800Y0215300D01*
X0074800Y0210900D01*
X0082396Y0210900D01*
X0082327Y0211339D02*
X0165873Y0211339D01*
X0166251Y0212538D02*
X0119827Y0212538D01*
X0123776Y0213254D02*
X0123776Y0213254D01*
X0130207Y0213737D02*
X0167048Y0213737D01*
X0168731Y0214935D02*
X0132327Y0214935D01*
X0114554Y0212538D02*
X0081949Y0212538D01*
X0081152Y0213737D02*
X0111909Y0213737D01*
X0110711Y0214935D02*
X0079469Y0214935D01*
X0074800Y0214935D02*
X0074000Y0214935D01*
X0074000Y0213737D02*
X0074800Y0213737D01*
X0074800Y0212538D02*
X0074000Y0212538D01*
X0074000Y0211339D02*
X0074800Y0211339D01*
X0074800Y0208942D02*
X0074000Y0208942D01*
X0074000Y0207744D02*
X0074800Y0207744D01*
X0074800Y0206545D02*
X0074000Y0206545D01*
X0068477Y0206545D02*
X0054723Y0206545D01*
X0054516Y0206395D02*
X0055127Y0206839D01*
X0055661Y0207373D01*
X0056105Y0207984D01*
X0056448Y0208657D01*
X0056682Y0209376D01*
X0056796Y0210100D01*
X0049200Y0210100D01*
X0049200Y0205700D01*
X0052378Y0205700D01*
X0053124Y0205818D01*
X0053843Y0206052D01*
X0054516Y0206395D01*
X0055931Y0207744D02*
X0067269Y0207744D01*
X0066659Y0208942D02*
X0056541Y0208942D01*
X0056796Y0210900D02*
X0056682Y0211624D01*
X0056448Y0212343D01*
X0056105Y0213016D01*
X0055661Y0213627D01*
X0055127Y0214161D01*
X0054516Y0214605D01*
X0053843Y0214948D01*
X0053124Y0215182D01*
X0052378Y0215300D01*
X0049200Y0215300D01*
X0049200Y0210900D01*
X0056796Y0210900D01*
X0056727Y0211339D02*
X0066473Y0211339D01*
X0066851Y0212538D02*
X0056349Y0212538D01*
X0055552Y0213737D02*
X0067648Y0213737D01*
X0069331Y0214935D02*
X0053869Y0214935D01*
X0049200Y0214935D02*
X0048400Y0214935D01*
X0048400Y0213737D02*
X0049200Y0213737D01*
X0049200Y0212538D02*
X0048400Y0212538D01*
X0048400Y0211339D02*
X0049200Y0211339D01*
X0049200Y0208942D02*
X0048400Y0208942D01*
X0048400Y0207744D02*
X0049200Y0207744D01*
X0049200Y0206545D02*
X0048400Y0206545D01*
X0041251Y0212538D02*
X0009800Y0212538D01*
X0009800Y0213737D02*
X0042048Y0213737D01*
X0043731Y0214935D02*
X0009800Y0214935D01*
X0009800Y0216134D02*
X0109619Y0216134D01*
X0109122Y0217332D02*
X0009800Y0217332D01*
X0009800Y0218531D02*
X0108626Y0218531D01*
X0108400Y0219729D02*
X0009800Y0219729D01*
X0009800Y0220928D02*
X0108400Y0220928D01*
X0108400Y0222126D02*
X0009800Y0222126D01*
X0009800Y0223325D02*
X0108319Y0223325D01*
X0108404Y0224523D02*
X0009800Y0224523D01*
X0009800Y0225722D02*
X0108489Y0225722D01*
X0108773Y0226920D02*
X0009800Y0226920D01*
X0057047Y0202950D02*
X0066153Y0202950D01*
X0064129Y0201751D02*
X0059071Y0201751D01*
X0060269Y0200553D02*
X0062931Y0200553D01*
X0061878Y0199354D02*
X0061322Y0199354D01*
X0041600Y0181600D02*
X0162700Y0181600D01*
X0173800Y0192700D01*
X0165553Y0202950D02*
X0082647Y0202950D01*
X0084671Y0201751D02*
X0163529Y0201751D01*
X0162331Y0200553D02*
X0085869Y0200553D01*
X0086922Y0199354D02*
X0161278Y0199354D01*
X0160586Y0198156D02*
X0087614Y0198156D01*
X0088261Y0196957D02*
X0159939Y0196957D01*
X0159617Y0195759D02*
X0088583Y0195759D01*
X0088904Y0194560D02*
X0159296Y0194560D01*
X0159200Y0193362D02*
X0089000Y0193362D01*
X0089000Y0192163D02*
X0159200Y0192163D01*
X0159263Y0190965D02*
X0088937Y0190965D01*
X0105752Y0101076D02*
X0112448Y0101076D01*
X0110372Y0099878D02*
X0107828Y0099878D01*
X0109062Y0098679D02*
X0109138Y0098679D01*
X0116065Y0091600D02*
X0116600Y0091600D01*
X0116065Y0091600D02*
X0102318Y0077853D01*
X0097585Y0082585D02*
X0101600Y0086600D01*
X0101600Y0091600D01*
X0092853Y0095347D02*
X0092853Y0087318D01*
X0092853Y0095347D02*
X0091600Y0096600D01*
X0058018Y0097506D02*
X0058018Y0100085D01*
X0058018Y0097506D02*
X0052112Y0091600D01*
X0037112Y0076600D01*
X0036600Y0076600D01*
X0178400Y0044746D02*
X0179200Y0044746D01*
X0179200Y0045300D02*
X0179200Y0040900D01*
X0186796Y0040900D01*
X0186682Y0041624D01*
X0186448Y0042343D01*
X0186105Y0043016D01*
X0185661Y0043627D01*
X0185127Y0044161D01*
X0184516Y0044605D01*
X0183843Y0044948D01*
X0183124Y0045182D01*
X0182378Y0045300D01*
X0179200Y0045300D01*
X0179200Y0043548D02*
X0178400Y0043548D01*
X0178400Y0042349D02*
X0179200Y0042349D01*
X0179200Y0041151D02*
X0178400Y0041151D01*
X0178400Y0039952D02*
X0179200Y0039952D01*
X0179200Y0040100D02*
X0179200Y0035700D01*
X0182378Y0035700D01*
X0183124Y0035818D01*
X0183843Y0036052D01*
X0184516Y0036395D01*
X0185127Y0036839D01*
X0185661Y0037373D01*
X0186105Y0037984D01*
X0186448Y0038657D01*
X0186682Y0039376D01*
X0186796Y0040100D01*
X0179200Y0040100D01*
X0179200Y0038754D02*
X0178400Y0038754D01*
X0178400Y0037555D02*
X0179200Y0037555D01*
X0179200Y0036357D02*
X0178400Y0036357D01*
X0184441Y0036357D02*
X0198759Y0036357D01*
X0198684Y0036395D02*
X0199357Y0036052D01*
X0200076Y0035818D01*
X0200822Y0035700D01*
X0204000Y0035700D01*
X0204000Y0040100D01*
X0204800Y0040100D01*
X0204800Y0040900D01*
X0204000Y0040900D01*
X0204000Y0045300D01*
X0200822Y0045300D01*
X0200076Y0045182D01*
X0199357Y0044948D01*
X0198684Y0044605D01*
X0198073Y0044161D01*
X0197539Y0043627D01*
X0197095Y0043016D01*
X0196752Y0042343D01*
X0196518Y0041624D01*
X0196404Y0040900D01*
X0204000Y0040900D01*
X0204000Y0040100D01*
X0196404Y0040100D01*
X0196518Y0039376D01*
X0196752Y0038657D01*
X0197095Y0037984D01*
X0197539Y0037373D01*
X0198073Y0036839D01*
X0198684Y0036395D01*
X0197406Y0037555D02*
X0185794Y0037555D01*
X0186480Y0038754D02*
X0196720Y0038754D01*
X0196427Y0039952D02*
X0186773Y0039952D01*
X0186757Y0041151D02*
X0196443Y0041151D01*
X0196755Y0042349D02*
X0186445Y0042349D01*
X0185719Y0043548D02*
X0197481Y0043548D01*
X0198961Y0044746D02*
X0184239Y0044746D01*
X0184024Y0033960D02*
X0199176Y0033960D01*
X0195827Y0032761D02*
X0187373Y0032761D01*
X0189259Y0031563D02*
X0193941Y0031563D01*
X0192742Y0030364D02*
X0190458Y0030364D01*
X0191431Y0029166D02*
X0191769Y0029166D01*
X0204000Y0036357D02*
X0204800Y0036357D01*
X0204800Y0035700D02*
X0207978Y0035700D01*
X0208724Y0035818D01*
X0209443Y0036052D01*
X0210116Y0036395D01*
X0210727Y0036839D01*
X0211261Y0037373D01*
X0211705Y0037984D01*
X0212048Y0038657D01*
X0212282Y0039376D01*
X0212396Y0040100D01*
X0204800Y0040100D01*
X0204800Y0035700D01*
X0204800Y0037555D02*
X0204000Y0037555D01*
X0204000Y0038754D02*
X0204800Y0038754D01*
X0204800Y0039952D02*
X0204000Y0039952D01*
X0204000Y0041151D02*
X0204800Y0041151D01*
X0204800Y0040900D02*
X0204800Y0045300D01*
X0207978Y0045300D01*
X0208724Y0045182D01*
X0209443Y0044948D01*
X0210116Y0044605D01*
X0210727Y0044161D01*
X0211261Y0043627D01*
X0211705Y0043016D01*
X0212048Y0042343D01*
X0212282Y0041624D01*
X0212396Y0040900D01*
X0204800Y0040900D01*
X0204800Y0042349D02*
X0204000Y0042349D01*
X0204000Y0043548D02*
X0204800Y0043548D01*
X0204800Y0044746D02*
X0204000Y0044746D01*
X0209839Y0044746D02*
X0238321Y0044746D01*
X0238321Y0043548D02*
X0211319Y0043548D01*
X0212045Y0042349D02*
X0238321Y0042349D01*
X0238321Y0041151D02*
X0212357Y0041151D01*
X0212373Y0039952D02*
X0238321Y0039952D01*
X0238321Y0038754D02*
X0212080Y0038754D01*
X0211394Y0037555D02*
X0238321Y0037555D01*
X0238321Y0036357D02*
X0210041Y0036357D01*
X0212973Y0032761D02*
X0238321Y0032761D01*
X0238321Y0031563D02*
X0214859Y0031563D01*
X0216058Y0030364D02*
X0238321Y0030364D01*
X0238321Y0029166D02*
X0217031Y0029166D01*
X0217723Y0027967D02*
X0238321Y0027967D01*
X0238321Y0026769D02*
X0218312Y0026769D01*
X0218633Y0025570D02*
X0238321Y0025570D01*
X0238321Y0024372D02*
X0218954Y0024372D01*
X0219000Y0023173D02*
X0238321Y0023173D01*
X0238321Y0021975D02*
X0219000Y0021975D01*
X0218887Y0020776D02*
X0238321Y0020776D01*
X0238321Y0019578D02*
X0218566Y0019578D01*
X0218244Y0018379D02*
X0238321Y0018379D01*
X0238321Y0017181D02*
X0217577Y0017181D01*
X0216885Y0015982D02*
X0238321Y0015982D01*
X0238321Y0014784D02*
X0215806Y0014784D01*
X0214607Y0013585D02*
X0238321Y0013585D01*
X0238321Y0012387D02*
X0212537Y0012387D01*
X0205333Y0011188D02*
X0238321Y0011188D01*
X0238321Y0009990D02*
X0204135Y0009990D01*
X0230796Y0138230D02*
X0238321Y0138230D01*
X0199800Y0206545D02*
X0199000Y0206545D01*
X0199000Y0207744D02*
X0199800Y0207744D01*
X0199800Y0208942D02*
X0199000Y0208942D01*
X0199000Y0211339D02*
X0199800Y0211339D01*
X0199800Y0212538D02*
X0199000Y0212538D01*
X0199000Y0213737D02*
X0199800Y0213737D01*
X0199800Y0214935D02*
X0199000Y0214935D01*
D24*
X0191600Y0136600D03*
X0176600Y0131600D03*
X0116600Y0136600D03*
X0096600Y0136600D03*
X0081600Y0136600D03*
X0076600Y0141600D03*
X0071600Y0121600D03*
X0066600Y0116600D03*
X0071600Y0111600D03*
X0071600Y0091600D03*
X0091600Y0096600D03*
X0101600Y0091600D03*
X0116600Y0091600D03*
X0036600Y0076600D03*
X0026600Y0096600D03*
X0026600Y0116600D03*
X0031600Y0131600D03*
X0036600Y0146600D03*
X0011600Y0066600D03*
X0016600Y0041600D03*
D25*
X0041088Y0091600D02*
X0035183Y0097506D01*
X0035183Y0100085D01*
X0028323Y0100085D01*
X0028125Y0100283D01*
X0014783Y0100283D01*
X0011100Y0096600D01*
X0090347Y0065882D02*
X0091600Y0065882D01*
X0091600Y0061600D01*
X0096600Y0136600D02*
X0092318Y0140882D01*
X0090347Y0140882D01*
X0180347Y0065882D02*
X0181600Y0065882D01*
X0181600Y0061600D01*
X0194447Y0086100D02*
X0215104Y0106757D01*
D26*
X0194447Y0086100D02*
X0194447Y0079982D01*
X0192318Y0077853D01*
M02*
