%
M48
M72
T01C0.0217
T02C0.0315
T03C0.0394
T04C0.0400
%
T01
X1660Y4160
X1160Y6660
X3660Y7660
X2660Y9660
X2660Y11660
X3160Y13160
X3660Y14660
X6660Y11660
X7160Y11160
X7160Y12160
X8160Y13660
X7660Y14160
X9660Y13660
X11660Y13660
X9160Y9660
X10160Y9160
X11660Y9160
X7160Y9160
X17660Y13160
X19160Y13660
T02
X14160Y12644
X14160Y10676
T03
X21510Y10676
X21510Y11660
X21510Y12644
X22810Y12644
X22810Y11660
X22810Y10676
X22003Y8707
X22003Y14613
T04
X19940Y19270
X19940Y21050
X17380Y21050
X17380Y19270
X7440Y19270
X7440Y21050
X4880Y21050
X4880Y19270
X1210Y12660
X1110Y11660
X1210Y10660
X1110Y9660
X4880Y4050
X4880Y2270
X7440Y2270
X7440Y4050
X17880Y4050
X17880Y2270
X20440Y2270
X20440Y4050
M30
