G75*
%MOIN*%
%OFA0B0*%
%FSLAX25Y25*%
%IPPOS*%
%LPD*%
%AMOC8*
5,1,8,0,0,1.08239X$1,22.5*
%
%ADD10C,0.00400*%
%ADD11C,0.01000*%
D10*
X0121200Y0121200D02*
X0123602Y0123602D01*
X0123602Y0124203D01*
X0123002Y0124803D01*
X0121801Y0124803D01*
X0121200Y0124203D01*
X0121200Y0121200D02*
X0123602Y0121200D01*
X0124883Y0121200D02*
X0127285Y0123602D01*
X0127285Y0124203D01*
X0126685Y0124803D01*
X0125484Y0124803D01*
X0124883Y0124203D01*
X0124883Y0121200D02*
X0127285Y0121200D01*
X0128566Y0123002D02*
X0130968Y0123002D01*
X0132249Y0124203D02*
X0132850Y0124803D01*
X0134051Y0124803D01*
X0134651Y0124203D01*
X0134651Y0123602D01*
X0132249Y0121200D01*
X0134651Y0121200D01*
X0135933Y0121801D02*
X0136533Y0121200D01*
X0137734Y0121200D01*
X0138335Y0121801D01*
X0138335Y0122401D01*
X0137734Y0123002D01*
X0137134Y0123002D01*
X0137734Y0123002D02*
X0138335Y0123602D01*
X0138335Y0124203D01*
X0137734Y0124803D01*
X0136533Y0124803D01*
X0135933Y0124203D01*
X0139616Y0123002D02*
X0142018Y0123002D01*
X0143299Y0124203D02*
X0143899Y0124803D01*
X0145100Y0124803D01*
X0145701Y0124203D01*
X0145701Y0123602D01*
X0143299Y0121200D01*
X0145701Y0121200D01*
X0146982Y0121801D02*
X0149384Y0124203D01*
X0149384Y0121801D01*
X0148784Y0121200D01*
X0147583Y0121200D01*
X0146982Y0121801D01*
X0146982Y0124203D01*
X0147583Y0124803D01*
X0148784Y0124803D01*
X0149384Y0124203D01*
X0150665Y0123002D02*
X0153067Y0123002D01*
X0154348Y0123602D02*
X0155549Y0124803D01*
X0155549Y0121200D01*
X0154348Y0121200D02*
X0156750Y0121200D01*
X0152467Y0121200D02*
X0152467Y0124803D01*
X0150665Y0123002D01*
X0127285Y0156200D02*
X0124883Y0156200D01*
X0126084Y0156200D02*
X0126084Y0159803D01*
X0124883Y0158602D01*
X0123602Y0159803D02*
X0121200Y0156200D01*
X0123602Y0156200D02*
X0121200Y0159803D01*
X0221200Y0135804D02*
X0221200Y0131967D01*
X0221967Y0131200D01*
X0223502Y0131200D01*
X0224269Y0131967D01*
X0224269Y0135804D01*
X0225804Y0135037D02*
X0226571Y0135804D01*
X0228106Y0135804D01*
X0228873Y0135037D01*
X0228106Y0133502D02*
X0226571Y0133502D01*
X0225804Y0134269D01*
X0225804Y0135037D01*
X0227339Y0136571D02*
X0227339Y0130433D01*
X0228106Y0131200D02*
X0226571Y0131200D01*
X0225804Y0131967D01*
X0228106Y0131200D02*
X0228873Y0131967D01*
X0228873Y0132735D01*
X0228106Y0133502D01*
X0230408Y0134269D02*
X0231942Y0135804D01*
X0231942Y0131200D01*
X0230408Y0131200D02*
X0233477Y0131200D01*
X0233477Y0105804D02*
X0233477Y0101200D01*
X0235012Y0101967D02*
X0235779Y0101200D01*
X0237314Y0101200D01*
X0238081Y0101967D01*
X0238081Y0102735D01*
X0237314Y0103502D01*
X0236546Y0103502D01*
X0237314Y0103502D02*
X0238081Y0104269D01*
X0238081Y0105037D01*
X0237314Y0105804D01*
X0235779Y0105804D01*
X0235012Y0105037D01*
X0233477Y0105804D02*
X0231942Y0104269D01*
X0230408Y0105804D01*
X0230408Y0101200D01*
X0227339Y0101200D02*
X0227339Y0105804D01*
X0228873Y0105804D02*
X0225804Y0105804D01*
X0224269Y0105037D02*
X0223502Y0105804D01*
X0221967Y0105804D01*
X0221200Y0105037D01*
X0221200Y0104269D01*
X0221967Y0103502D01*
X0223502Y0103502D01*
X0224269Y0102735D01*
X0224269Y0101967D01*
X0223502Y0101200D01*
X0221967Y0101200D01*
X0221200Y0101967D01*
X0239616Y0101200D02*
X0242685Y0104269D01*
X0242685Y0105037D01*
X0241918Y0105804D01*
X0240383Y0105804D01*
X0239616Y0105037D01*
X0239616Y0101200D02*
X0242685Y0101200D01*
X0244220Y0101200D02*
X0244220Y0105804D01*
X0247289Y0105804D01*
X0248824Y0103502D02*
X0251893Y0103502D01*
X0253427Y0102735D02*
X0254962Y0101200D01*
X0256497Y0102735D01*
X0256497Y0105804D01*
X0253427Y0105804D02*
X0253427Y0102735D01*
X0251126Y0101200D02*
X0251126Y0105804D01*
X0248824Y0103502D01*
X0245754Y0103502D02*
X0244220Y0103502D01*
X0258031Y0100433D02*
X0261101Y0100433D01*
X0262635Y0101200D02*
X0265705Y0101200D01*
X0264170Y0101200D02*
X0264170Y0105804D01*
X0262635Y0104269D01*
X0267239Y0105037D02*
X0267239Y0101967D01*
X0270309Y0105037D01*
X0270309Y0101967D01*
X0269541Y0101200D01*
X0268007Y0101200D01*
X0267239Y0101967D01*
X0267239Y0105037D02*
X0268007Y0105804D01*
X0269541Y0105804D01*
X0270309Y0105037D01*
X0271843Y0105037D02*
X0271843Y0101967D01*
X0274912Y0105037D01*
X0274912Y0101967D01*
X0274145Y0101200D01*
X0272610Y0101200D01*
X0271843Y0101967D01*
X0271843Y0105037D02*
X0272610Y0105804D01*
X0274145Y0105804D01*
X0274912Y0105037D01*
X0276447Y0105804D02*
X0278749Y0105804D01*
X0279516Y0105037D01*
X0279516Y0103502D01*
X0278749Y0102735D01*
X0276447Y0102735D01*
X0276447Y0101200D02*
X0276447Y0105804D01*
X0281051Y0105804D02*
X0282586Y0105804D01*
X0281818Y0105804D02*
X0281818Y0101200D01*
X0281051Y0101200D02*
X0282586Y0101200D01*
X0284120Y0101200D02*
X0284120Y0105804D01*
X0287190Y0101200D01*
X0287190Y0105804D01*
X0288724Y0100433D02*
X0291794Y0100433D01*
X0293328Y0101967D02*
X0294095Y0101200D01*
X0295630Y0101200D01*
X0296397Y0101967D01*
X0296397Y0103502D01*
X0294863Y0103502D01*
X0296397Y0105037D02*
X0295630Y0105804D01*
X0294095Y0105804D01*
X0293328Y0105037D01*
X0293328Y0101967D01*
X0297932Y0101200D02*
X0297932Y0105804D01*
X0301001Y0105804D01*
X0302536Y0105804D02*
X0305605Y0101200D01*
X0305605Y0105804D01*
X0307140Y0105804D02*
X0307140Y0101200D01*
X0310209Y0101200D01*
X0311744Y0101200D02*
X0311744Y0105804D01*
X0314046Y0105804D01*
X0314813Y0105037D01*
X0314813Y0103502D01*
X0314046Y0102735D01*
X0311744Y0102735D01*
X0313278Y0102735D02*
X0314813Y0101200D01*
X0316348Y0101200D02*
X0317882Y0101200D01*
X0317115Y0101200D02*
X0317115Y0105804D01*
X0316348Y0105804D02*
X0317882Y0105804D01*
X0319417Y0105037D02*
X0319417Y0101967D01*
X0320184Y0101200D01*
X0321719Y0101200D01*
X0322486Y0101967D01*
X0322486Y0105037D02*
X0321719Y0105804D01*
X0320184Y0105804D01*
X0319417Y0105037D01*
X0310209Y0105804D02*
X0307140Y0105804D01*
X0307140Y0103502D02*
X0308675Y0103502D01*
X0302536Y0101200D02*
X0302536Y0105804D01*
X0299467Y0103502D02*
X0297932Y0103502D01*
X0297932Y0101200D02*
X0301001Y0101200D01*
D11*
X0161000Y0128500D02*
X0121000Y0128500D01*
X0121000Y0146000D01*
X0161000Y0146000D01*
X0161000Y0128500D01*
X0161000Y0146000D02*
X0161000Y0153500D01*
X0121000Y0153500D01*
X0121000Y0146000D01*
M02*
