%
M48
M72
T01C0.0217
T02C0.0394
T03C0.0400
%
T01
X2099Y2887
X8004Y3281
X14303Y7218
X12728Y10761
X12728Y12730
X9973Y13911
X9973Y14698
X4461Y11942
X4067Y13517
X1705Y15879
T02
X2177Y6730
X2177Y5509
X10366Y5509
X10366Y6730
T03
X12783Y4793
X14563Y4793
X14563Y2233
X12783Y2233
X13993Y12431
X14093Y13431
X13993Y14431
X14093Y15431
M30
